<svg xmlns="http://www.w3.org/2000/svg" viewBox="0 0 184.92 175.92"><defs><style>.cls-1{fill:#fff;}</style></defs><title>Asset 2</title><g id="Layer_2" data-name="Layer 2"><g id="Layer_2-2" data-name="Layer 2"><path class="cls-1" d="M121,58,92.4,0,63.84,58,0,67.32l46.2,45-10.92,63.6L92.4,145.8l57.24,30.12-10.92-63.6,46.2-45ZM61.44,67a43.61,43.61,0,0,1,24-12.48V94.2L51.6,113.76a43.83,43.83,0,0,1-2.88-16A41.2,41.2,0,0,1,61.44,67Zm38,27.24V54.48a42.84,42.84,0,0,1,24,12.48C132,75.36,136.2,85.68,136.2,97.8a43.77,43.77,0,0,1-2.76,16Zm26.76,31.56a31.29,31.29,0,0,1-2.76,2.88,41.4,41.4,0,0,1-24,12.48V110.4Zm-40.8,15.36c-9-1.32-17-5.52-24-12.48-.84-.84-1.8-1.92-2.64-2.88L85.44,110.4Z"/></g></g></svg>