<?xml version="1.0" standalone="no"?>
<!DOCTYPE svg PUBLIC "-//W3C//DTD SVG 1.1//EN" "http://www.w3.org/Graphics/SVG/1.1/DTD/svg11.dtd" >
<svg>
<metadata>
Created by FontForge 20120731 at Sat Aug 15 12:44:10 2015
 By ,,,
Copyright (c) 1992 Adobe Systems Incorporated.  All Rights Reserved.Myriad is a trademark of Adobe Systems Incorporated.
</metadata>
<defs>
<font id="MyriadSetPro-ThinItalic" horiz-adv-x="0" >
  <font-face 
    font-family="Myriad Set Pro"
    font-weight="300"
    font-style="italic"
    font-stretch="normal"
    units-per-em="1000"
    panose-1="2 0 3 3 5 0 0 2 0 4"
    ascent="800"
    descent="-200"
    x-height="480"
    cap-height="674"
    bbox="-486 -292 1212 1093"
    underline-thickness="50"
    underline-position="-50"
    unicode-range="U+000A-FB06"
  />
<missing-glyph horiz-adv-x="500" 
d="M23 0l145 750h375l-145 -750h-375zM97 63h250l121 625h-250z" />
    <glyph glyph-name="ff" unicode="ff" horiz-adv-x="514" 
d="M377 720q65 0 121 -28q40 28 98 28q23 0 40.5 -5t26.5 -12l-22 -37q-9 5 -22.5 9t-34.5 4q-34 0 -57 -14t-39 -37t-26 -54.5t-17 -65.5l-5 -28h126l-8 -38h-126l-85 -442h-47l85 442h-210l-85 -442h-47l85 442h-69l8 38h69l5 28q19 99 82 155.5t154 56.5zM398 507
q9 45 24 83t38 67q-16 9 -42 15.5t-55 6.5q-38 0 -67.5 -13t-51 -36.5t-35.5 -54.5t-21 -67l-5 -28h210z" />
    <glyph glyph-name="fi" unicode="fi" horiz-adv-x="476" 
d="M43 0l85 442h-69l8 38h69l6 31q9 45 27 83.5t45.5 66.5t65 43.5t84.5 15.5q31 0 60 -10t42 -23l-29 -37q-13 11 -36.5 20t-53.5 9q-37 0 -64 -13.5t-45.5 -37t-30.5 -54.5t-19 -66l-5 -28h267l-93 -480h-47l85 442h-220l-85 -442h-47z" />
    <glyph glyph-name="fl" unicode="fl" horiz-adv-x="476" 
d="M43 0l85 442h-69l8 38h69l4 22q11 57 35 100t62 73q28 21 62.5 33t80.5 12q33 0 63 -7.5t48 -19.5l-134 -693h-47l129 664q-12 7 -30.5 11t-47.5 4q-40 0 -69.5 -14t-50 -37.5t-33.5 -54.5t-20 -64l-5 -29h126l-8 -38h-126l-85 -442h-47z" />
    <glyph glyph-name="ffi" unicode="ffi" horiz-adv-x="733" 
d="M377 720q65 0 121 -28v-8q10 6 19 11t19 9q36 16 85 16q31 0 60 -10t42 -23l-29 -37q-13 11 -36.5 20t-53.5 9q-56 0 -89 -29t-51 -76q-10 -24 -16 -53l-3 -13l-5 -28h267l-93 -480h-47l85 442h-220l-85 -442h-47l85 442h-210l-85 -442h-47l85 442h-69l8 38h69l5 28
q19 99 82 155.5t154 56.5zM399 511l2 11l2 11q7 30 18 57q17 40 39 67q-16 9 -42 15.5t-55 6.5q-38 0 -67.5 -13t-51 -36.5t-35.5 -54.5t-21 -67l-5 -28h210z" />
    <glyph glyph-name="ffl" unicode="ffl" horiz-adv-x="733" 
d="M90 0h-47l85 442h-69l8 38h69l5 28q19 99 83 155.5t158 56.5q77 0 137 -29q25 14 53.5 21.5t64.5 7.5q33 0 63 -7.5t48 -19.5l-134 -693h-47l129 664q-12 7 -30.5 11t-47.5 4q-40 0 -69.5 -14t-50 -37.5t-33.5 -54.5t-20 -64l-5 -29h126l-8 -38h-126l-85 -442h-47l85 442
h-210zM397 502q19 99 79 157q-18 8 -45.5 14t-62.5 6q-40 0 -70.5 -13t-52.5 -36.5t-36 -54.5t-21 -67l-5 -28h210z" />
    <glyph glyph-name=".notdef" horiz-adv-x="500" 
d="M23 0l145 750h375l-145 -750h-375zM97 63h250l121 625h-250z" />
    <glyph glyph-name=".null" 
 />
    <glyph glyph-name=".null" 
 />
    <glyph glyph-name="nonmarkingreturn" unicode="&#xa;" horiz-adv-x="214" 
 />
    <glyph glyph-name="nonmarkingreturn" unicode="&#xd;" horiz-adv-x="214" 
 />
    <glyph glyph-name="space" unicode=" " horiz-adv-x="214" 
 />
    <glyph glyph-name="exclam" unicode="!" horiz-adv-x="206" 
d="M76 176l88 498h58l-106 -498h-40zM59 -11q-18 0 -26 12t-4 32t17.5 32t30.5 12q18 0 26.5 -12t4.5 -32t-18 -32t-31 -12z" />
    <glyph glyph-name="quotedbl" unicode="&#x22;" horiz-adv-x="300" 
d="M211 691l-56 -220h-32l31 220h57zM334 691l-55 -220h-32l30 220h57z" />
    <glyph glyph-name="numbersign" unicode="#" horiz-adv-x="458" 
d="M281 245l52 165h-109l-53 -165h110zM52 0l66 206h-82l7 39h87l53 165h-87l8 38h92l65 202h40l-64 -202h110l65 202h40l-65 -202h82l-8 -38h-87l-52 -165h87l-7 -38h-92l-66 -207h-42l66 207h-109l-66 -207h-41z" />
    <glyph glyph-name="dollar" unicode="$" horiz-adv-x="479" 
d="M153 -84l20 103q-39 0 -74.5 12t-56.5 32l27 37q20 -18 51.5 -30.5t68.5 -12.5q29 0 55 9.5t46.5 25.5t34 38t18.5 47q10 50 -14 82t-74 58q-66 31 -99.5 68.5t-21.5 98.5q5 30 20 55.5t37.5 45t50.5 32.5t58 17l20 104h41l-20 -102q42 -2 68.5 -12.5t42.5 -23.5l-28 -37
q-12 9 -38 21.5t-69 12.5q-32 0 -55.5 -9.5t-40.5 -25t-27 -34t-14 -36.5q-5 -24 -1 -42t16.5 -33t33 -28.5t49.5 -28.5q32 -17 55.5 -34t38 -38t19.5 -47t-1 -59q-6 -29 -20.5 -55.5t-37 -48.5t-52 -37t-66.5 -21l-20 -104h-41z" />
    <glyph glyph-name="percent" unicode="%" horiz-adv-x="730" 
d="M109 -13l516 676h40l-516 -676h-40zM601 391q28 0 50 -11.5t35 -35.5t16 -60.5t-6 -86.5q-10 -52 -28.5 -90t-42.5 -63t-52 -37.5t-56 -12.5q-26 0 -48 11.5t-36 35.5t-18.5 60.5t5.5 87.5q10 52 29.5 90t44 63t52.5 37t55 12zM590 357q-23 0 -43 -13t-37 -35.5
t-29 -52.5t-18 -63q-8 -34 -7.5 -64t8.5 -52.5t23.5 -35.5t37.5 -13q25 0 46 13.5t37 36t27.5 53t17.5 64.5q7 31 7.5 60.5t-6.5 52t-22.5 36t-41.5 13.5zM262 661q28 0 50.5 -11.5t35.5 -35.5t16 -60.5t-7 -86.5q-10 -52 -28 -90t-42 -63t-52 -37.5t-56 -12.5
q-26 0 -48 11.5t-36.5 35.5t-18.5 60.5t6 87.5q10 52 29.5 90t44 63t52 37t54.5 12zM251 627q-23 0 -43 -13t-36.5 -35.5t-28.5 -52.5t-19 -63q-7 -34 -6.5 -64t8 -52.5t22.5 -35.5t38 -13q26 0 46.5 13.5t36.5 36t27.5 53t18.5 64.5q6 31 6.5 60.5t-6.5 52t-22.5 36
t-41.5 13.5z" />
    <glyph glyph-name="ampersand" unicode="&#x26;" horiz-adv-x="553" 
d="M452 0l-58 76q-60 -48 -112 -67.5t-106 -19.5q-41 0 -72.5 14.5t-52 40t-27.5 60t1 73.5q13 69 60 117t111 82v3q-20 38 -28 74.5t-1 72.5q6 30 21.5 59t38.5 51t54 35.5t67 13.5q25 0 46.5 -9.5t35 -26.5t19 -42t-0.5 -56q-11 -54 -54.5 -97.5t-135.5 -86.5l-1 -3
q40 -58 79.5 -119t70.5 -106q32 39 58.5 92t51.5 125h45q-29 -81 -61 -142t-74 -103l40 -52t45 -59h-60zM194 28q52 0 97.5 21.5t81.5 55.5q-12 18 -30 44t-39 57.5t-45 67t-48 72.5q-18 -10 -39.5 -24.5t-41 -34.5t-35 -46t-21.5 -58q-6 -33 -0.5 -61.5t21 -49.5t41 -32.5
t58.5 -11.5zM332 646q-24 0 -44 -9.5t-35 -25t-25 -36.5t-14 -44q-9 -43 1.5 -75t24.5 -61q67 32 110 66.5t53 85.5q3 18 1.5 35.5t-9.5 32t-23 23t-40 8.5z" />
    <glyph glyph-name="quotesingle" unicode="'" horiz-adv-x="177" 
d="M211 691l-56 -220h-32l31 220h57z" />
    <glyph glyph-name="parenleft" unicode="(" horiz-adv-x="264" 
d="M346 696q-76 -76 -134 -175.5t-84 -236.5q-14 -68 -14.5 -125.5t8.5 -107t26 -92.5t39 -82h-44q-20 32 -37 72t-27 90t-10 111t14 135t38 135.5t53.5 112t62.5 91t65 72.5h44z" />
    <glyph glyph-name="parenright" unicode=")" horiz-adv-x="264" 
d="M-50 -123q36 39 69 82t61 93.5t50 108.5t35 126q14 68 15 126t-8 108t-25.5 93.5t-38.5 81.5h44q19 -32 36 -72t27 -90t10.5 -111.5t-14.5 -135.5q-14 -74 -38.5 -135t-54 -111t-62 -90.5t-63.5 -73.5h-43z" />
    <glyph glyph-name="asterisk" unicode="*" horiz-adv-x="389" 
d="M390 661l-112 -123v-2l147 12l-9 -47l-142 12v-2l65 -118l-51 -26l-38 131h-2l-93 -132l-34 26l110 120v2l-144 -13l9 47l138 -11v2l-61 120l47 25l41 -132h2l88 133z" />
    <glyph glyph-name="plus" unicode="+" horiz-adv-x="596" 
d="M382 532l-48 -245h237l-7 -40h-237l-48 -247h-42l48 247h-237l7 40h237l48 245h42z" />
    <glyph glyph-name="comma" unicode="," horiz-adv-x="173" 
d="M-40 -126q9 15 21.5 41.5t26 56.5t26 60.5t19.5 53.5l65 10q-12 -28 -29 -61.5t-34.5 -64.5t-32.5 -56t-23 -35z" />
    <glyph glyph-name="hyphen" unicode="-" horiz-adv-x="297" 
d="M284 294l-8 -41h-237l8 41h237z" />
    <glyph glyph-name="period" unicode="." horiz-adv-x="173" 
d="M50 -11q-18 0 -26.5 13t-4.5 32t18 32t32 13t26.5 -13t4.5 -32q-4 -20 -18 -32.5t-32 -12.5z" />
    <glyph glyph-name="slash" unicode="/" horiz-adv-x="346" 
d="M-56 -40l451 725h48l-454 -725h-45z" />
    <glyph glyph-name="zero" unicode="0" horiz-adv-x="479" 
d="M59 322q17 89 47 153t67.5 105.5t79 61t82.5 19.5q42 0 74 -19.5t50 -60t21 -102t-14 -146.5q-34 -175 -106.5 -259.5t-169.5 -84.5q-42 0 -73.5 22.5t-49.5 65t-20.5 104.5t12.5 141zM109 328q-14 -67 -14.5 -122t11.5 -94.5t36.5 -61t60.5 -21.5q51 0 87.5 32t62 78
t41 98t22.5 91q13 64 14.5 117.5t-10 92.5t-36.5 61t-65 22q-35 0 -67 -21.5t-59.5 -60.5t-49 -93t-34.5 -118z" />
    <glyph glyph-name="one" unicode="1" horiz-adv-x="479" 
d="M309 601h-2l-118 -62l-5 37l139 74h42l-126 -650h-46z" />
    <glyph glyph-name="two" unicode="2" horiz-adv-x="479" 
d="M5 0l5 29l72 63q78 64 136 115.5t98 96.5t63 86t31 83q6 28 4.5 54.5t-13.5 46.5t-36 32.5t-64 12.5q-45 0 -83.5 -18.5t-62.5 -36.5l-12 33q35 27 79.5 45.5t95.5 18.5q49 0 79.5 -17t46.5 -43t19 -57.5t-3 -61.5q-9 -48 -34.5 -92.5t-66.5 -91t-97 -97t-127 -110.5
l-55 -49l-1 -2h313l-7 -40h-380z" />
    <glyph glyph-name="three" unicode="3" horiz-adv-x="479" 
d="M36 70q15 -12 49 -26t80 -14q48 0 82.5 15t57 37.5t34.5 48.5t16 49q8 40 -2 69t-32.5 47.5t-54.5 27.5t-68 9h-40l8 39h41q26 0 56 8t57 24t47 41t26 59q5 23 2 44t-15 37t-33.5 25.5t-54.5 9.5q-37 0 -72 -14t-60 -31l-12 36q27 18 70 34t88 16t74 -13t45 -34.5
t20 -48.5t-1 -55q-10 -51 -48.5 -91.5t-101.5 -62.5l-1 -2q29 -6 53 -20.5t39 -36t21 -50.5t-1 -65q-7 -37 -26.5 -71.5t-52 -61.5t-76.5 -43.5t-99 -16.5q-48 0 -85.5 14t-55.5 29z" />
    <glyph glyph-name="four" unicode="4" horiz-adv-x="479" 
d="M274 0l37 191h-303l6 32l392 427h40l-82 -419h98l-7 -40h-98l-37 -191h-46zM318 231l51 260q9 48 21 93l-3 1q-20 -29 -36 -48l-32 -38l-247 -266l-1 -2h247z" />
    <glyph glyph-name="five" unicode="5" horiz-adv-x="479" 
d="M478 608h-240l-72 -205q20 4 59 4q34 0 70 -9.5t64 -32.5t42 -61.5t3 -96.5q-10 -49 -34.5 -89t-59.5 -68.5t-77.5 -44.5t-87.5 -16q-49 0 -85 13t-54 28l27 38q15 -12 46.5 -25t76.5 -13q34 0 67 12.5t60 34.5t46 53t26 68q15 76 -21 122.5t-132 46.5q-29 0 -51.5 -2.5
l-40.5 -4.5l99 290h277z" />
    <glyph glyph-name="six" unicode="6" horiz-adv-x="479" 
d="M463 617q-66 0 -123.5 -23t-103 -62t-78 -90.5t-48.5 -108.5h2q30 36 77.5 63t105.5 27q44 0 76 -15.5t51.5 -43t25 -66t-3.5 -83.5q-8 -44 -29 -84.5t-52.5 -72t-72.5 -50.5t-89 -19q-43 0 -77.5 18t-56 52.5t-28 85t6.5 116.5q16 81 52.5 152.5t91 125t125.5 86
t157 36.5zM212 29q32 0 61.5 12.5t53.5 36t41.5 57t25.5 75.5q9 43 3.5 75t-22 53.5t-42.5 32.5t-58 11q-45 0 -89.5 -25.5t-75.5 -67.5q-6 -8 -11 -17.5t-7 -20.5q-9 -50 -6 -91t17.5 -70t41.5 -45t66 -16h1z" />
    <glyph glyph-name="seven" unicode="7" horiz-adv-x="479" 
d="M520 650l-7 -34l-407 -616h-46l402 608v2h-324l8 40h374z" />
    <glyph glyph-name="eight" unicode="8" horiz-adv-x="479" 
d="M335 661q33 0 61.5 -10.5t48 -30t28 -48.5t1.5 -66q-8 -42 -41 -84.5t-102 -72.5v-4q61 -28 86.5 -71.5t14.5 -100.5q-8 -41 -30.5 -75t-54.5 -58t-71 -37.5t-80 -13.5q-44 0 -78 13t-55.5 36.5t-30 55t-1.5 67.5q12 64 57 109.5t112 72.5l1 4q-54 26 -71.5 65.5
t-8.5 82.5q7 37 27 67.5t48.5 52.5t64 34t74.5 12zM205 29q26 0 54.5 7.5t53.5 24t44 42t27 62.5q6 35 -0.5 60.5t-23.5 44.5t-45 33t-64 26q-72 -21 -115 -63.5t-54 -97.5q-12 -66 21 -102.5t102 -36.5zM325 622q-33 0 -59.5 -10.5t-46 -27t-32 -38.5t-16.5 -44
q-11 -60 20.5 -92t92.5 -48q55 19 94 52.5t49 87.5q4 22 1.5 43.5t-14 38.5t-33.5 27.5t-56 10.5z" />
    <glyph glyph-name="nine" unicode="9" horiz-adv-x="479" 
d="M64 33q63 -3 118.5 16t101 56.5t79.5 92t54 122.5l-2 -1q-38 -39 -84 -61t-98 -22q-44 0 -74.5 16.5t-48.5 43.5t-23 62.5t3 74.5q8 45 30.5 86t55.5 72.5t74.5 50.5t87.5 19q42 0 74 -18t51 -52.5t23.5 -85t-8.5 -115.5q-14 -75 -44 -141t-73 -117.5t-98.5 -86.5
t-120.5 -47q-27 -5 -49 -7t-38 -2zM322 621q-32 0 -62 -13.5t-54.5 -38t-42 -58.5t-25.5 -75q-14 -75 17.5 -117t94.5 -42q51 0 94.5 23.5t73.5 60.5q4 5 7.5 12t5.5 16q10 52 9 95t-14.5 73.5t-39 47t-64.5 16.5z" />
    <glyph glyph-name="colon" unicode=":" horiz-adv-x="173" 
d="M49 -11q-18 0 -26.5 13t-4.5 32t18 32t32 13t26.5 -13t4.5 -32q-4 -20 -18 -32.5t-32 -12.5zM123 361q-18 0 -26.5 13t-5.5 32q4 19 18 32t32 13t26.5 -13t4.5 -32q-3 -20 -17 -32.5t-32 -12.5z" />
    <glyph glyph-name="semicolon" unicode=";" horiz-adv-x="173" 
d="M132 361q-18 0 -26.5 13t-5.5 32q4 19 18 32t32 13t26.5 -13t4.5 -32q-3 -20 -17 -32.5t-32 -12.5zM-40 -126q9 15 21.5 41.5t26 56.5t26 60.5t19.5 53.5l65 10q-12 -28 -29 -61.5t-34.5 -64.5t-32.5 -56t-23 -35z" />
    <glyph glyph-name="less" unicode="&#x3c;" horiz-adv-x="596" 
d="M86 284l502 248l-9 -46l-451 -219v-2l365 -219l-8 -46l-406 248z" />
    <glyph glyph-name="equal" unicode="=" horiz-adv-x="596" 
d="M67 345l7 40h516l-7 -40h-516zM30 155l7 40h516l-7 -40h-516z" />
    <glyph glyph-name="greater" unicode="&#x3e;" horiz-adv-x="596" 
d="M533 248l-502 -248l8 46l451 219v2l-365 219l9 46l406 -248z" />
    <glyph glyph-name="question" unicode="?" horiz-adv-x="375" 
d="M135 174l1 13q0 6 0.5 16t2.5 22q7 36 30 76.5t65 82.5q24 24 42.5 44t31.5 38.5t21.5 37t12.5 38.5q9 48 -13 74.5t-76 26.5q-27 0 -55.5 -8t-48.5 -22l-12 34q55 39 134 39q38 0 64 -12t41 -31.5t19 -45t-2 -52.5q-9 -48 -39 -88t-81 -89q-40 -39 -60 -73t-27 -69
q-1 -9 -2.5 -18t-1.5 -14l-2 -20h-45zM119 -11q-18 0 -26 12t-4 32t17.5 32t30.5 12q18 0 26.5 -12t4.5 -32t-18 -32t-31 -12z" />
    <glyph glyph-name="at" unicode="@" horiz-adv-x="707" 
d="M523 475q-9 3 -23 6.5t-35 3.5q-38 0 -75 -17t-67.5 -45.5t-52 -66t-29.5 -77.5q-7 -37 7 -60.5t51 -23.5q25 0 52 15t51 38t42.5 50t27.5 51zM468 30q-42 -23 -87 -32.5t-93 -9.5q-60 0 -109 21.5t-81.5 61.5t-44.5 97t2 129q15 78 54 149t96 124t129 84.5t153 31.5
q64 0 111 -21.5t75.5 -59.5t38 -90.5t-2.5 -113.5q-11 -59 -34 -104t-53 -76t-64 -47t-65 -16q-14 0 -25.5 5.5t-19 16.5t-9 29t5.5 43h-4q-38 -49 -77.5 -71.5t-87.5 -22.5q-20 0 -37 8t-28.5 24t-15.5 38.5t2 51.5q9 46 35.5 89.5t64.5 77.5t85.5 54t98.5 20q31 0 53.5 -5
t40.5 -13l-72 -181q-27 -66 -23.5 -95.5t30.5 -30.5q21 0 44.5 13.5t44.5 39t38 61.5t26 81q11 58 4 105.5t-31 81.5t-65 52.5t-98 18.5q-63 0 -123 -24.5t-110.5 -70.5t-87 -110.5t-51.5 -143.5q-12 -62 -3 -112.5t35.5 -86.5t69 -55.5t98.5 -19.5q46 0 85.5 10t74.5 28z
" />
    <glyph glyph-name="A" unicode="A" horiz-adv-x="574" 
d="M165 235l-127 -235h-48l369 674h46l106 -674h-49l-37 235h-260zM418 275l-36 223q-5 35 -7 63.5t-4 57.5h-2q-14 -30 -27.5 -58.5t-30.5 -60.5l-124 -225h231z" />
    <glyph glyph-name="B" unicode="B" horiz-adv-x="496" 
d="M169 665q29 6 63 10t72 4q63 0 102 -13.5t61 -41.5q34 -41 20 -111q-5 -26 -18 -49.5t-32.5 -43t-43.5 -34t-51 -23.5l-1 -3q22 -5 44.5 -17t39.5 -33t25 -51t0 -71q-8 -42 -28 -74t-47 -55q-40 -35 -95.5 -49.5t-125.5 -14.5q-38 0 -66.5 2t-47.5 4zM160 378h95
q36 0 67 10t55 28t39.5 42t21.5 52q12 70 -28 99.5t-116 29.5q-32 0 -52.5 -2t-32.5 -5zM94 40q14 -3 33.5 -4t45.5 -1q39 0 76 7.5t67.5 25.5t52.5 47t31 72q8 40 -2.5 68.5t-33.5 47t-57 27.5t-73 9h-82z" />
    <glyph glyph-name="C" unicode="C" horiz-adv-x="556" 
d="M489 23q-28 -13 -75 -23t-107 -10t-112.5 20t-88 61.5t-49 106.5t3.5 155q15 77 51 141.5t88.5 111t119 72.5t143.5 26q63 0 98 -10t48 -18l-23 -41q-23 13 -55.5 21t-74.5 8q-65 0 -121.5 -21t-101.5 -61.5t-76.5 -98.5t-45.5 -131q-14 -70 -6 -125.5t36.5 -94.5t76 -60
t112.5 -21q42 0 82 8t70 22z" />
    <glyph glyph-name="D" unicode="D" horiz-adv-x="632" 
d="M169 665q39 6 81 10t88 4q91 0 152.5 -23t93.5 -66q32 -42 43 -99.5t-5 -136.5q-15 -78 -48.5 -142.5t-88.5 -115.5q-54 -48 -130 -74.5t-172 -26.5q-38 0 -73.5 1t-69.5 5zM94 40q20 -3 46.5 -4t56.5 -1q157 0 252.5 83.5t124.5 232.5q12 64 4.5 117.5t-36.5 91
t-82 58.5t-132 21q-37 0 -67 -3t-52 -7z" />
    <glyph glyph-name="E" unicode="E" horiz-adv-x="456" 
d="M416 335h-264l-58 -295h295l-7 -40h-342l131 674h327l-8 -40h-280l-51 -259h264z" />
    <glyph glyph-name="F" unicode="F" horiz-adv-x="452" 
d="M171 674h327l-8 -40h-280l-52 -268h257l-8 -40h-257l-63 -326h-47z" />
    <glyph glyph-name="G" unicode="G" horiz-adv-x="610" 
d="M517 29q-28 -11 -79.5 -23.5t-118.5 -12.5q-66 0 -119.5 19t-95.5 68q-34 42 -46.5 106t3.5 148q14 72 49 135.5t88 110.5t122.5 74t152.5 27q54 0 91.5 -10t55.5 -20l-24 -39q-23 12 -54 20t-79 8q-67 0 -125 -21t-103.5 -60.5t-77 -95.5t-45.5 -126q-14 -72 -5 -128.5
t38 -95.5t77 -59t113 -20q51 0 86 6.5t54 15.5l47 239h-153l7 39h200z" />
    <glyph glyph-name="H" unicode="H" horiz-adv-x="616" 
d="M218 674l-58 -297h362l58 297h47l-131 -674h-47l65 337h-362l-65 -337h-47l131 674h47z" />
    <glyph glyph-name="I" unicode="I" horiz-adv-x="208" 
d="M218 674l-131 -674h-47l131 674h47z" />
    <glyph glyph-name="J" unicode="J" horiz-adv-x="338" 
d="M309 674h47l-91 -468q-13 -63 -35.5 -105t-51.5 -67t-63.5 -35t-70.5 -10q-23 0 -44 4.5t-33 10.5l18 39q11 -5 27.5 -9t38.5 -4q31 0 57.5 8.5t47.5 29.5t37 57t26 91z" />
    <glyph glyph-name="K" unicode="K" horiz-adv-x="489" 
d="M171 674h47l-67 -341h4q18 20 36 37.5t35 33.5l285 270h58l-307 -286l199 -388h-57l-180 355l-83 -76l-54 -279h-47z" />
    <glyph glyph-name="L" unicode="L" horiz-adv-x="440" 
d="M171 674h47l-124 -634h294l-7 -40h-341z" />
    <glyph glyph-name="M" unicode="M" horiz-adv-x="764" 
d="M659 320q5 38 10.5 79t11 80.5t11.5 75t12 63.5h-3q-28 -57 -61.5 -117t-75.5 -135l-210 -366h-33l-61 357q-13 79 -21.5 141.5t-12.5 119.5h-3q-13 -60 -32.5 -142t-41.5 -166l-81 -310h-46l179 674h54l66 -386q11 -66 19 -117t12 -102h3q22 48 49.5 99t66.5 119
l222 387h57l-86 -674h-47z" />
    <glyph glyph-name="N" unicode="N" horiz-adv-x="624" 
d="M40 0l131 674h45l178 -395q27 -63 47.5 -113.5t34.5 -101.5l2 1q4 35 9 67.5t10.5 65.5t12 68t14.5 75l65 333h46l-131 -674h-44l-175 390q-25 60 -47 113t-38 107l-2 -1q-4 -32 -9 -62.5t-11 -62.5t-12.5 -68t-14.5 -79l-65 -337h-46z" />
    <glyph glyph-name="O" unicode="O" horiz-adv-x="654" 
d="M281 -11q-60 0 -108 23.5t-78 67.5t-40 107.5t6 143.5q16 83 51.5 149t84.5 111.5t107.5 69.5t120.5 24q61 0 109 -24t77.5 -68t38.5 -107.5t-7 -142.5q-17 -89 -54.5 -155.5t-87 -110.5t-106.5 -66t-114 -22zM290 29q59 0 109 25.5t89 68.5t66 99t39 118q10 53 6 107.5
t-25 98.5t-61 71.5t-101 27.5q-62 0 -113 -27t-89 -71t-63.5 -100.5t-36.5 -114.5q-11 -56 -6 -110.5t27 -97.5t61.5 -69t97.5 -26z" />
    <glyph glyph-name="P" unicode="P" horiz-adv-x="492" 
d="M169 666q30 5 65.5 9t77.5 4q60 0 101 -14.5t64 -41.5q19 -24 26 -57t-1 -76q-10 -52 -36 -91t-63.5 -65.5t-84.5 -39.5t-98 -13q-47 0 -78 7l-55 -288h-47zM151 330q16 -5 36.5 -7t44.5 -2q90 0 147.5 42t73.5 123q8 39 0.5 68t-28 47.5t-51.5 28t-71 9.5
q-32 0 -55.5 -2.5t-38.5 -5.5z" />
    <glyph glyph-name="Q" unicode="Q" horiz-adv-x="654" 
d="M552 -87q-61 15 -123 33.5t-110 33.5q-10 3 -18.5 6t-16.5 3q-60 1 -108.5 24t-79 66.5t-41 106.5t5.5 144q16 85 52 151t85 111.5t107.5 69t120.5 23.5q61 0 108.5 -24t77 -68t38.5 -107.5t-7 -142.5q-26 -140 -99.5 -223.5t-171.5 -113.5l-1 -3q54 -14 107.5 -26.5
t96.5 -20.5zM291 29q59 0 109 25.5t89 68.5t66 99t39 118q10 53 6 107.5t-25 98.5t-61 71.5t-101 27.5q-62 0 -113 -27t-89 -71t-63.5 -100.5t-36.5 -114.5q-11 -56 -6 -110.5t27 -97.5t61.5 -69t97.5 -26z" />
    <glyph glyph-name="R" unicode="R" horiz-adv-x="496" 
d="M169 665q31 7 70.5 10.5t73.5 3.5q66 0 105.5 -14t62.5 -42q18 -21 24 -53t-1 -67q-13 -69 -57 -112.5t-107 -63.5v-2q38 -13 56 -50t18 -95q2 -79 5 -120t11 -60h-50q-6 15 -8 57.5t-3 106.5q-1 75 -28 108.5t-93 36.5h-101l-60 -309h-47zM154 347h103q78 0 131.5 39.5
t66.5 108.5q14 76 -28.5 110.5t-121.5 34.5q-33 0 -57.5 -3t-38.5 -6z" />
    <glyph glyph-name="S" unicode="S" horiz-adv-x="455" 
d="M33 74q24 -20 58.5 -32t76.5 -12q75 0 125 38.5t63 101.5q11 57 -13.5 93t-90.5 65q-72 28 -109.5 72t-24.5 114q8 37 28.5 68.5t50.5 54t67.5 35t79.5 12.5q48 0 79.5 -10t45.5 -21l-25 -40q-12 10 -40 20.5t-70 10.5q-41 0 -70.5 -11.5t-49.5 -29.5t-31.5 -39.5
t-15.5 -41.5q-11 -56 15.5 -89.5t92.5 -61.5q37 -17 64.5 -36t44 -42t21.5 -52t-2 -66q-8 -37 -28 -70.5t-51 -59t-73 -40.5t-94 -15q-43 0 -85.5 12.5t-64.5 31.5z" />
    <glyph glyph-name="T" unicode="T" horiz-adv-x="456" 
d="M288 634h-214l8 40h475l-8 -40h-214l-123 -634h-47z" />
    <glyph glyph-name="U" unicode="U" horiz-adv-x="613" 
d="M218 674l-80 -410q-12 -63 -7 -107.5t23 -72.5t47 -41t66 -13q40 0 76.5 13.5t66.5 42t52.5 72.5t34.5 106l80 410h47l-79 -406q-15 -77 -44.5 -130t-68 -86t-84 -48t-92.5 -15q-43 0 -80 13.5t-61 45.5t-32 83.5t7 128.5l81 414h47z" />
    <glyph glyph-name="V" unicode="V" horiz-adv-x="502" 
d="M181 0l-88 674h49l47 -359q9 -73 16 -138t10 -122h3q25 58 60 123t74 137l198 359h50l-374 -674h-45z" />
    <glyph glyph-name="W" unicode="W" horiz-adv-x="808" 
d="M150 0l-44 674h48l23 -379q4 -66 6.5 -124.5t3.5 -107.5h2q17 48 45 107t60 126l182 378h46l25 -375q4 -63 7 -122.5t1 -113.5h2q22 57 48.5 113t57.5 120l181 378h49l-329 -674h-45l-25 388q-6 74 -7.5 127t0.5 101h-2q-17 -48 -41.5 -101t-61.5 -126l-187 -389h-45z
" />
    <glyph glyph-name="X" unicode="X" horiz-adv-x="535" 
d="M410 0l-68 167q-21 46 -34.5 77.5t-24.5 60.5h-2q-22 -29 -46 -60.5t-63 -78.5l-127 -166h-55l275 342l-136 332h54l71 -180q13 -33 24.5 -60t20.5 -55h2q22 29 43 55.5t49 59.5l145 180h56l-274 -328l145 -346h-55z" />
    <glyph glyph-name="Y" unicode="Y" horiz-adv-x="495" 
d="M186 0l56 292l-135 382h53l69 -199q13 -40 25 -74.5t21 -71.5h2q22 35 48.5 70t57.5 77l151 198h53l-298 -383l-56 -291h-47z" />
    <glyph glyph-name="Z" unicode="Z" horiz-adv-x="525" 
d="M-1 31l512 600l1 3h-363l8 40h423l-7 -31l-512 -600l-1 -3h400l-7 -40h-460z" />
    <glyph glyph-name="bracketleft" unicode="[" horiz-adv-x="264" 
d="M28 -112l155 798h167l-7 -37h-124l-141 -724h124l-7 -37h-167z" />
    <glyph glyph-name="backslash" unicode="\" horiz-adv-x="343" 
d="M257 -40l-167 725h47l167 -725h-47z" />
    <glyph glyph-name="bracketright" unicode="]" horiz-adv-x="264" 
d="M268 686l-155 -798h-167l7 37h123l141 724h-124l7 37h168z" />
    <glyph glyph-name="asciicircum" unicode="^" horiz-adv-x="596" 
d="M476 196l-100 407h-2l-258 -407h-46l292 454h44l116 -454h-46z" />
    <glyph glyph-name="underscore" unicode="_" horiz-adv-x="500" 
d="M445 -75l-10 -50h-499l10 50h499z" />
    <glyph glyph-name="grave" unicode="`" horiz-adv-x="300" 
d="M194 677l61 -137h-36l-94 137h69z" />
    <glyph glyph-name="a" unicode="a" horiz-adv-x="483" 
d="M346 0q-1 23 2 58.5t8 73.5h-2q-36 -75 -86 -109t-101 -34q-31 0 -55 11.5t-41 32.5t-26 50t-9 63q0 63 21.5 125t62 111.5t99 80t132.5 30.5q28 0 58 -4.5t50 -12.5l-52 -265q-12 -59 -16.5 -115t-2.5 -96h-42zM408 447q-23 10 -67 10q-57 0 -104.5 -26.5t-82 -69
t-53.5 -97t-19 -111.5q0 -26 5.5 -49t17.5 -40t30.5 -27t44.5 -10q35 0 66 19t56 52.5t43.5 78.5t28.5 97z" />
    <glyph glyph-name="b" unicode="b" horiz-adv-x="486" 
d="M209 709l-65 -322h2q32 54 77 80t95 26q68 0 104 -46.5t36 -124.5q0 -65 -22 -125t-59.5 -106.5t-89 -74t-109.5 -27.5q-63 0 -95.5 32t-32.5 88q0 29 8 72l105 528h46zM411 318q0 63 -28 100t-79 37q-32 0 -64 -16t-60 -51q-20 -26 -37.5 -62.5t-27.5 -85.5l-12 -59
q-4 -17 -5.5 -34t-1.5 -33q0 -43 23 -65.5t65 -22.5q48 0 89 25t72 65.5t48.5 93t17.5 108.5z" />
    <glyph glyph-name="c" unicode="c" horiz-adv-x="435" 
d="M365 19q-16 -8 -53 -18.5t-88 -10.5t-89.5 17.5t-61.5 50t-30.5 77.5t3.5 100q11 57 38 104t66 80.5t87 52.5t101 19q43 0 73.5 -9.5t42.5 -19.5l-24 -40q-16 10 -41 19t-64 9q-47 0 -86 -17.5t-68.5 -46.5t-49 -67.5t-27.5 -80.5q-9 -47 -3 -85.5t25.5 -65.5t51 -41.5
t72.5 -14.5q42 0 70.5 9t50.5 17z" />
    <glyph glyph-name="d" unicode="d" horiz-adv-x="489" 
d="M505 709l-106 -560q-7 -37 -12.5 -76.5t-7.5 -72.5h-42q2 24 5.5 49.5t8.5 51.5h-2q-32 -57 -79 -84.5t-95 -27.5q-34 0 -59.5 13.5t-43 36.5t-26 55t-8.5 68q0 65 22.5 125t61.5 105.5t92.5 73t115.5 27.5q26 0 47.5 -4.5t38.5 -12.5l44 233h45zM409 437q-14 8 -35.5 14
t-46.5 6q-51 0 -95.5 -24.5t-77 -65t-51 -93t-18.5 -107.5q0 -28 5.5 -53t18 -44.5t32.5 -31t49 -11.5q31 0 59.5 14.5t52.5 41t41.5 64t26.5 84.5z" />
    <glyph glyph-name="e" unicode="e" horiz-adv-x="409" 
d="M342 27q-23 -14 -60 -25.5t-82 -11.5q-44 0 -74.5 15t-50.5 41.5t-29 61t-9 73.5q0 54 17.5 109.5t50 100.5t77.5 73.5t99 28.5q58 0 90 -31.5t32 -78.5q0 -45 -23.5 -74t-63.5 -46.5t-94 -24.5t-114 -7h-20q-2 -11 -3.5 -23t-1.5 -28q0 -67 31 -110t94 -43q42 0 74 11
t52 24zM94 267q56 0 104 4.5t83.5 17t56 35t20.5 58.5q0 35 -23 54.5t-60 19.5q-34 0 -63.5 -16t-52.5 -42t-39.5 -60t-25.5 -71z" />
    <glyph glyph-name="f" unicode="f" horiz-adv-x="257" 
d="M43 0l85 442h-69l8 38h69l5 27q9 45 24.5 84t39.5 67.5t57 45t77 16.5q23 0 40.5 -5t26.5 -12l-22 -37q-9 5 -22.5 9t-34.5 4q-34 0 -57 -14t-39 -37t-26 -54.5t-17 -65.5l-5 -28h126l-8 -38h-126l-85 -442h-47z" />
    <glyph glyph-name="g" unicode="g" horiz-adv-x="481" 
d="M26 -138q19 -15 50 -24t66 -9q33 0 62 9.5t53 33t43 62t31 97.5l17 79h-2q-32 -60 -79 -85.5t-94 -25.5q-35 0 -60.5 13.5t-42.5 36.5t-25.5 53t-8.5 62q0 62 20 121t57 105.5t90 74.5t118 28q36 0 73.5 -9t61.5 -23l-77 -407q-15 -83 -39.5 -134t-56 -79.5t-68.5 -38.5
t-77 -10q-38 0 -72 9t-54 25zM406 435q-15 8 -40 15t-52 7q-52 0 -94.5 -25t-73 -65.5t-47 -91.5t-16.5 -103q0 -25 5.5 -49.5t18 -43.5t33 -31t50.5 -12q29 0 57 13.5t52.5 41t43.5 68t29 94.5z" />
    <glyph glyph-name="h" unicode="h" horiz-adv-x="525" 
d="M176 709h47l-61 -313h2q32 45 76.5 70t101.5 25q16 0 42.5 -6.5t48.5 -27.5t33.5 -60t-1.5 -104l-56 -293h-47l55 287q7 32 6.5 61.5t-11.5 52t-33 36t-58 13.5q-51 0 -94.5 -31.5t-67.5 -76.5q-5 -10 -9.5 -21.5t-6.5 -25.5l-57 -295h-47z" />
    <glyph glyph-name="i" unicode="i" horiz-adv-x="206" 
d="M143 626q3 17 17 29t31 12t26.5 -12t6.5 -29t-17.5 -28.5t-31.5 -11.5t-26 11.5t-6 28.5zM39 0l93 480h47l-93 -480h-47z" />
    <glyph glyph-name="j" unicode="j" horiz-adv-x="211" 
d="M-120 -170q31 2 58 11.5t46 29.5q12 11 21.5 25t18 35.5t16.5 53.5t17 79l81 416h48l-87 -447q-13 -66 -31.5 -111t-56.5 -79q-15 -14 -33 -23.5t-36 -15.5t-34.5 -9t-28.5 -3zM149 626q3 17 17 29t31 12t26.5 -12t6.5 -29t-17.5 -28.5t-31.5 -11.5t-26 11.5t-6 28.5z
" />
    <glyph glyph-name="k" unicode="k" horiz-adv-x="416" 
d="M134 249h2q11 11 26.5 26t28.5 26l201 179h58l-229 -199l162 -281h-58l-143 251l-58 -51l-38 -200h-47l137 709h47z" />
    <glyph glyph-name="l" unicode="l" horiz-adv-x="206" 
d="M176 709h47l-137 -709h-47z" />
    <glyph glyph-name="m" unicode="m" horiz-adv-x="803" 
d="M109 365q7 34 11 60t8 55h46l-16 -83h4q30 42 71 68t99 26q49 0 79 -29t36 -74h2q28 40 61 64q27 19 54.5 29t64.5 10q18 0 42.5 -7t45 -29t30 -62t-3.5 -107l-55 -286h-48l54 280q15 81 -5.5 125.5t-83.5 44.5q-22 0 -43 -7.5t-39 -20.5t-33.5 -30.5t-25.5 -36.5
q-12 -23 -18 -47l-59 -308h-47l58 302q13 64 -8.5 106t-79.5 42q-24 0 -46.5 -9t-42 -23.5t-35.5 -34t-27 -40.5q-10 -21 -16 -47l-57 -296h-47z" />
    <glyph glyph-name="n" unicode="n" horiz-adv-x="525" 
d="M109 365q7 34 11 60t8 55h46l-17 -85h4q27 40 74.5 68t105.5 28q16 0 42.5 -6.5t49 -27.5t34 -60.5t-1.5 -105.5l-56 -291h-47l55 286q6 32 5.5 62t-11 52.5t-32.5 36t-59 13.5q-50 0 -94 -31t-67 -79q-5 -10 -9.5 -20.5t-6.5 -21.5l-57 -298h-47z" />
    <glyph glyph-name="o" unicode="o" horiz-adv-x="520" 
d="M317 491q48 0 84.5 -17.5t59 -50t29.5 -78t-4 -101.5q-13 -68 -42.5 -116t-68 -79t-81 -45.5t-81.5 -14.5q-45 0 -81 17t-58.5 49.5t-30.5 78t3 102.5q12 62 39.5 109.5t64.5 80t80.5 49t86.5 16.5zM308 451q-45 0 -81 -19t-63.5 -49t-45 -68t-24.5 -76q-9 -45 -4 -83.5
t22 -66.5t45 -44t66 -16q37 0 72 16t63.5 44t49 67t30.5 86q6 33 3.5 69.5t-16.5 67.5t-42.5 51.5t-74.5 20.5z" />
    <glyph glyph-name="p" unicode="p" horiz-adv-x="487" 
d="M-10 -198l97 512q8 45 15.5 89t12.5 80h42q-3 -23 -7 -49t-8 -51h2q28 48 73.5 79t100.5 31q38 0 64.5 -15t43 -40t24 -57.5t7.5 -67.5q-1 -61 -21.5 -119t-56.5 -103.5t-85 -73.5t-106 -28q-44 0 -71.5 7.5t-41.5 14.5l-39 -209h-46zM409 312q0 28 -5.5 54t-17.5 45.5
t-32 31.5t-49 12q-26 0 -55 -12.5t-55 -40t-47.5 -72.5t-33.5 -110l-31 -167q33 -27 101 -27q47 0 88 24t71 64t48 91.5t18 106.5z" />
    <glyph glyph-name="q" unicode="q" horiz-adv-x="493" 
d="M293 -198l57 290h-2q-14 -25 -34 -44t-42.5 -32t-47 -20t-46.5 -7q-36 0 -62.5 14t-44.5 37.5t-26.5 54.5t-8.5 66q0 61 21.5 120.5t60.5 106.5t93.5 76t120.5 29q43 0 76.5 -9t55.5 -22l-126 -660h-45zM414 435q-14 9 -37 15.5t-52 6.5q-52 0 -96.5 -24.5t-76.5 -65
t-50.5 -93t-18.5 -108.5q0 -62 27.5 -100.5t79.5 -38.5q35 0 65 15.5t53.5 42.5t40 64t25.5 81z" />
    <glyph glyph-name="r" unicode="r" horiz-adv-x="290" 
d="M105 338q7 35 13 71.5t11 70.5h45l-19 -96h3q25 45 66 76t90 31q4 0 8.5 -0.5t9.5 -1.5l-9 -46q-6 1 -11 1h-12q-24 0 -47 -10t-42.5 -28t-35 -42.5t-25.5 -52.5q-4 -11 -7.5 -22.5t-5.5 -22.5l-51 -266h-47z" />
    <glyph glyph-name="s" unicode="s" horiz-adv-x="366" 
d="M32 63q16 -12 41 -22.5t57 -10.5q57 0 89 26.5t39 64.5q8 39 -11 63.5t-67 45.5q-54 23 -78.5 54.5t-15.5 76.5q5 26 19.5 49.5t37 41.5t51.5 28.5t63 10.5q32 0 57 -9t41 -21l-26 -39q-11 9 -31.5 19t-55.5 10q-45 0 -73.5 -25t-34.5 -58q-7 -37 13 -57.5t65 -40.5
q54 -23 79.5 -55.5t14.5 -87.5q-12 -63 -63 -100t-123 -37q-35 0 -64.5 9t-49.5 24z" />
    <glyph glyph-name="t" unicode="t" horiz-adv-x="303" 
d="M218 586l-20 -106h133l-8 -38h-133l-60 -313q-10 -48 0.5 -73.5t48.5 -25.5q18 0 31.5 2t23.5 5l-2 -36q-25 -11 -66 -11q-33 0 -52.5 11t-28.5 30.5t-8.5 47t6.5 59.5l59 304h-79l8 38h79l17 88z" />
    <glyph glyph-name="u" unicode="u" horiz-adv-x="519" 
d="M423 117q-6 -32 -10.5 -61t-7.5 -56h-46l16 83h-4q-12 -16 -30 -33t-40.5 -30.5t-49.5 -22t-59 -8.5q-23 0 -49.5 8t-46 30.5t-28 63.5t4.5 107l55 282h48l-53 -272q-8 -39 -8 -71.5t10.5 -56t31.5 -37t55 -13.5q26 0 50 8.5t44 22.5t36 31t26 35q6 11 11.5 24.5
t7.5 27.5l59 301h48z" />
    <glyph glyph-name="v" unicode="v" horiz-adv-x="443" 
d="M118 480l52 -298q7 -35 12 -66t9 -61h2q15 29 33 60.5t39 66.5l169 298h50l-284 -480h-41l-91 480h50z" />
    <glyph glyph-name="w" unicode="w" horiz-adv-x="709" 
d="M124 480l26 -272q4 -42 6.5 -79t4.5 -72h3q15 34 34.5 71.5t41.5 79.5l147 272h44l38 -269q6 -44 10 -82t6 -72h3q13 35 31 71t40 81l137 271h48l-250 -480h-41l-37 268q-7 43 -11.5 81.5t-5.5 80.5h-2q-19 -43 -40 -82.5t-43 -81.5l-145 -266h-41l-53 480h49z" />
    <glyph glyph-name="x" unicode="x" horiz-adv-x="420" 
d="M127 480l58 -117q11 -21 19.5 -40.5t17.5 -41.5h2q19 23 36 42.5t35 39.5l103 117h53l-210 -234l122 -246h-54l-60 121q-12 23 -21.5 45t-19.5 45h-2q-18 -23 -36 -44t-40 -46l-105 -121h-54l219 245l-116 235h53z" />
    <glyph glyph-name="y" unicode="y" horiz-adv-x="431" 
d="M115 480l61 -312q5 -26 8.5 -53.5t6.5 -50.5h2q11 22 25.5 49.5t31.5 56.5l174 310h50l-208 -352q-32 -56 -59.5 -101.5t-53 -82t-50.5 -64.5t-53 -49q-33 -25 -59 -36.5t-33 -14.5l-9 39q19 8 43.5 21t49.5 34q22 18 49 47.5t52 71.5q8 14 10 21q2 9 -2 21l-86 445h50z
" />
    <glyph glyph-name="z" unicode="z" horiz-adv-x="395" 
d="M-19 29l318 341q18 17 34 34t34 35v2h-285l8 39h342l-6 -32l-320 -341q-16 -17 -31 -33t-32 -33v-2h304l-7 -39h-364z" />
    <glyph glyph-name="braceleft" unicode="{" horiz-adv-x="264" 
d="M46 305q27 0 44.5 6.5t29 18t17 25.5t8.5 29q4 22 5.5 43.5t2.5 42.5q0 22 1 43.5t6 43.5q6 34 21.5 58.5t37.5 40t49 23t56 7.5h12l-7 -37h-18q-51 -2 -75 -25.5t-33 -69.5q-4 -20 -4.5 -40t-1.5 -40l-2 -40t-5 -41q-9 -45 -31.5 -70t-52.5 -34l-1 -2q28 -8 40.5 -34
t3.5 -71q-4 -20 -11 -40l-14 -40t-14 -40.5t-11 -41.5q-17 -92 71 -95h18l-7 -37h-12q-30 0 -53.5 7t-39 23.5t-21.5 42t1 63.5q4 22 11.5 43t14.5 41q8 21 15 42t11 42q2 13 1.5 27t-7 26t-21.5 19t-42 6z" />
    <glyph glyph-name="bar" unicode="|" horiz-adv-x="210" 
d="M231 750l-194 -1000h-42l194 1000h42z" />
    <glyph glyph-name="braceright" unicode="}" horiz-adv-x="264" 
d="M249 270q-27 1 -45 -6t-29.5 -19t-17 -26t-7.5 -27q-4 -21 -5 -42l-2 -42q0 -43 -7 -84q-7 -38 -23 -63.5t-38.5 -42t-49.5 -23.5t-55 -7h-10l6 37h17q48 2 73.5 24.5t34.5 70.5q4 21 5 41.5t2 40.5l2 40t5 40q9 45 31.5 71t52.5 34l1 2q-28 9 -40.5 34t-3.5 70
q4 21 11 41l14 40t13.5 40t10.5 40q9 46 -6.5 69.5t-64.5 25.5h-17l7 37h11q60 0 93.5 -30.5t21.5 -98.5q-5 -22 -12 -43.5t-14 -43.5q-8 -21 -15.5 -42.5t-11.5 -43.5q-3 -15 -2.5 -29t7 -25.5t22 -18t42.5 -6.5z" />
    <glyph glyph-name="asciitilde" unicode="~" horiz-adv-x="596" 
d="M57 222q3 29 15 53t30 40.5t40.5 25.5t45.5 9q27 0 56 -9.5t77 -33.5q38 -18 69.5 -31t63.5 -13t51.5 24t26.5 62h37q-4 -35 -17 -59t-31 -39.5t-39 -22.5t-41 -7q-26 0 -55.5 8.5t-81.5 33.5q-34 17 -64.5 31t-62.5 14q-65 0 -82 -86h-38z" />
    <glyph glyph-name="uni00A0.nbspace" unicode="&#xa0;" horiz-adv-x="214" 
 />
    <glyph glyph-name="exclamdown" unicode="&#xa1;" horiz-adv-x="206" 
d="M140 297l-87 -493h-58l105 493h40zM157 485q18 0 26 -12t4 -32t-17.5 -32t-30.5 -12q-18 0 -26.5 12t-4.5 32t18 32t31 12z" />
    <glyph glyph-name="cent" unicode="&#xa2;" horiz-adv-x="479" 
d="M212 -16l21 104q-46 5 -75 20.5t-50 43.5q-21 27 -28 70t5 103q9 50 31.5 92.5t54.5 74t71.5 51.5t83.5 26l20 103h40l-20 -102q37 0 66 -9t43 -19l-24 -37q-15 10 -40.5 18.5t-65.5 8.5q-41 0 -76.5 -17t-63.5 -45.5t-47 -65.5t-27 -77q-9 -46 -3 -83t23.5 -63t45.5 -40
t64 -14q45 0 75.5 9.5t50.5 18.5l5 -35q-14 -8 -46.5 -19t-72.5 -13l-21 -104h-40z" />
    <glyph glyph-name="sterling" unicode="&#xa3;" horiz-adv-x="479" 
d="M16 0l5 30q63 30 102 81t51 111q4 23 6.5 43.5t3.5 46.5h-104l8 38h100q-1 25 1.5 57.5t9.5 66.5q8 43 27.5 77.5t47 59t61 37.5t68.5 13q37 0 60.5 -7.5t36.5 -17.5l-23 -37q-12 8 -33 15t-54 7q-61 0 -97 -40t-48 -103q-8 -42 -9.5 -71t-1.5 -57h144l-8 -38h-139
q-4 -35 -8.5 -70.5t-19.5 -68.5q-33 -78 -106 -130l-1 -2h313l-7 -41h-386z" />
    <glyph glyph-name="currency" unicode="&#xa4;" horiz-adv-x="479" 
d="M128 416q20 55 49.5 100t66.5 77.5t81 50t94 17.5q48 0 78 -11.5t39 -19.5l-23 -40q-17 14 -44 23t-58 9q-78 0 -138 -53t-97 -153h262l-16 -36h-257q-4 -14 -7.5 -29t-6.5 -31q-2 -10 -4 -19t-2 -18h237l-16 -36h-225q-7 -103 29.5 -160.5t114.5 -57.5q27 0 57.5 8.5
t54.5 23.5l6 -36q-23 -16 -56.5 -26t-75.5 -10q-41 0 -76 15t-60 46.5t-37 80t-6 116.5h-67l16 36h55q0 9 2 18.5t4 19.5q3 15 6.5 30t7.5 29h-66l17 36h61z" />
    <glyph glyph-name="yen" unicode="&#xa5;" horiz-adv-x="479" 
d="M170 0l36 186h-152l7 36h152l15 78h-152l7 36h134l-106 314h50l76 -232q7 -23 13 -42t10 -39h4q10 19 24 40t31 44l171 229h50l-241 -314h134l-7 -36h-153l-15 -78h153l-7 -36h-153l-36 -186h-45z" />
    <glyph glyph-name="brokenbar" unicode="&#xa6;" horiz-adv-x="210" 
d="M120 175l-69 -350h-42l69 350h42zM217 675l-68 -350h-42l68 350h42z" />
    <glyph glyph-name="section" unicode="&#xa7;" horiz-adv-x="486" 
d="M137 356q-6 -29 13 -54.5t81 -50.5q37 -14 61 -26.5t41 -25.5q50 36 61 92q7 34 -10.5 60t-68.5 46q-27 11 -56.5 23.5t-52.5 29.5q-33 -23 -48.5 -45.5t-20.5 -48.5zM442 612q-14 13 -40 23t-63 10q-22 0 -43.5 -6t-39.5 -18t-31 -28.5t-17 -37.5q-4 -24 3 -41t23 -29
t38.5 -21.5t49.5 -19.5q28 -11 52 -24t40 -30t23 -40t1 -54q-8 -39 -29 -67.5t-54 -52.5q10 -11 17 -34t1 -53q-7 -35 -25.5 -61.5t-45 -44.5t-59.5 -27.5t-68 -9.5q-45 0 -78.5 11.5t-50.5 28.5l28 36q12 -13 39.5 -26t72.5 -13q51 0 92 25.5t50 73.5q10 41 -13.5 68
t-93.5 55q-34 14 -60 28t-43 31.5t-23.5 39t-1.5 50.5q5 26 25.5 55.5t65.5 59.5q-14 11 -19.5 32.5t-1.5 45.5q6 31 23.5 55.5t43 42t57 27t65.5 9.5q42 0 71 -10t46 -24z" />
    <glyph glyph-name="dieresis" unicode="&#xa8;" horiz-adv-x="300" 
d="M103 601q3 16 16.5 27.5t29.5 11.5t25 -11.5t6 -27.5t-16.5 -27t-29.5 -11t-25 11t-6 27zM271 601q3 16 16.5 27.5t29.5 11.5t25 -11.5t6 -27.5t-16.5 -27t-29.5 -11t-25 11t-6 27z" />
    <glyph glyph-name="copyright" unicode="&#xa9;" horiz-adv-x="677" 
d="M422 648q64 0 114.5 -24t83 -65.5t45 -98t0.5 -120.5q-13 -65 -47 -121.5t-82.5 -98.5t-107.5 -66t-123 -24q-63 0 -113.5 24t-83.5 66t-45 98.5t1 121.5q12 64 46 120t82 98t107.5 66t122.5 24zM513 463q-9 6 -32.5 15t-61.5 9q-39 0 -69 -12t-52.5 -32.5t-36.5 -47.5
t-20 -58t-2 -58.5t18.5 -48t40.5 -32.5t65 -12q31 0 59.5 7.5t48.5 19.5l4 -29q-29 -18 -63.5 -24.5t-65.5 -6.5q-43 0 -74 14t-49.5 38.5t-24.5 57.5t1 71q9 42 31 76.5t53 59t67.5 37.5t74.5 13q42 0 68.5 -9t36.5 -17zM416 616q-54 1 -105.5 -20.5t-94 -59.5t-72 -89.5
t-40.5 -110.5q-11 -58 -0.5 -108t38 -87t71.5 -58t100 -21q54 -1 105 20t93 58.5t72 88.5t42 111q11 59 0.5 109.5t-38 87.5t-71.5 58t-100 21z" />
    <glyph glyph-name="ordfeminine" unicode="&#xaa;" horiz-adv-x="321" 
d="M251 266l4 46h-2q-15 -18 -44.5 -34.5t-65.5 -16.5q-49 0 -69 27.5t-13 65.5q10 52 67 84t154 28l3 13q1 8 0.5 21t-6.5 25t-20.5 21t-40.5 9q-21 0 -42.5 -6t-42.5 -21l-7 30q26 18 54.5 25.5t52.5 7.5q34 0 54.5 -11.5t29.5 -31t9 -44.5t-6 -52l-21 -109
q-4 -19 -6.5 -38t-3.5 -39h-38zM276 433q-25 1 -53 -1t-52.5 -10.5t-42.5 -24t-23 -41.5q-6 -30 11 -45t43 -15t48.5 12t36.5 28q16 18 18 29z" />
    <glyph glyph-name="guillemotleft" unicode="&#xab;" horiz-adv-x="388" 
d="M87 252l106 -179h-49l-106 179l175 179h49zM232 252l106 -179h-50l-105 179l174 179h49z" />
    <glyph glyph-name="logicalnot" unicode="&#xac;" horiz-adv-x="596" 
d="M590 385l-49 -255h-43l42 215h-473l7 40h516z" />
    <glyph glyph-name="uni00AD" unicode="&#xad;" horiz-adv-x="596" 
d="M571 287l-7 -40h-516l7 40h516z" />
    <glyph glyph-name="registered" unicode="&#xae;" horiz-adv-x="510" 
d="M346 682q46 0 83.5 -16.5t62 -46.5t34 -71t0.5 -90q-10 -48 -35 -89t-61 -71.5t-79.5 -48t-89.5 -17.5t-83.5 17.5t-62 48t-34 71.5t0.5 89q8 46 33 87t61 71.5t80 48t90 17.5zM342 654q-38 0 -74.5 -15.5t-67 -42t-52 -62t-28.5 -76.5q-8 -41 -0.5 -77t27.5 -63
t51 -42.5t70 -15.5q38 0 74.5 15.5t66.5 42t51.5 62.5t29.5 77t0.5 77t-27.5 62.5t-51 42t-70 15.5zM235 327h-32l49 251q17 2 32 4t34 2q26 0 43.5 -5.5t26.5 -13.5q20 -17 13 -51q-5 -26 -22 -41t-39 -21v-2q32 -6 31 -61q-1 -29 0.5 -42.5t4.5 -19.5h-34q-7 13 -6 64
q0 26 -11.5 36.5t-37.5 10.5h-30zM261 462h31q26 0 47.5 10.5t26.5 36.5q4 18 -7.5 33.5t-49.5 15.5q-10 0 -17 -0.5t-12 -1.5z" />
    <glyph glyph-name="macron" unicode="&#xaf;" horiz-adv-x="300" 
d="M335 623l-8 -38h-208l8 38h208z" />
    <glyph glyph-name="degree" unicode="&#xb0;" horiz-adv-x="293" 
d="M246 686q28 0 48 -10t32 -27t16 -38.5t-1 -45.5q-5 -29 -20 -52t-36 -39.5t-45 -25t-46 -8.5q-26 0 -46 9.5t-33 26t-17.5 38t0.5 45.5q5 27 19 50.5t34 40.5t44 26.5t50 9.5h1zM236 653q-20 0 -37 -8.5t-30 -22t-21 -30t-11 -32.5q-7 -37 11.5 -62t53.5 -25q36 0 65 26
t36 64q3 14 1.5 30t-9 29.5t-21.5 22t-37 8.5h-1z" />
    <glyph glyph-name="plusminus" unicode="&#xb1;" horiz-adv-x="596" 
d="M389 567l-41 -207h237l-7 -40h-237l-42 -215h-42l42 215h-237l7 40h237l41 207h42zM523 39l-7 -39h-516l7 39h516z" />
    <glyph glyph-name="twosuperior" unicode="&#xb2;" horiz-adv-x="330" 
d="M65 290l74 60q75 60 117 105.5t50 88.5q7 33 -8 57t-60 24q-28 0 -51 -11t-37 -21l-10 27q20 16 50.5 28.5t64.5 12.5q33 0 53.5 -10.5t31 -26.5t13 -35t-0.5 -36q-6 -29 -21.5 -55.5t-39 -52t-54.5 -52t-68 -55.5l-42 -35v-2h183l-7 -35h-243z" />
    <glyph glyph-name="threesuperior" unicode="&#xb3;" horiz-adv-x="316" 
d="M141 630q17 11 45 21t60 10q29 0 48 -8t29.5 -20.5t13 -29t-1.5 -33.5q-5 -29 -28.5 -53t-60.5 -38l-1 -2q39 -7 58 -34.5t12 -65.5q-4 -22 -17 -42.5t-34 -37t-50 -26.5t-65 -10q-32 0 -57.5 8t-38.5 19l23 33q8 -8 31 -17t52 -9q27 0 47 7.5t33.5 19.5t21.5 26t11 28
q4 23 -3 39t-22 25.5t-35 14t-41 4.5h-24l6 32h26q13 0 31 4.5t35 13.5t30.5 23.5t17.5 35.5t-9 40t-49 19q-27 0 -50.5 -10t-34.5 -18z" />
    <glyph glyph-name="acute" unicode="&#xb4;" horiz-adv-x="300" 
d="M365 677l-148 -137h-36l115 137h69z" />
    <glyph glyph-name="uni00B5" unicode="&#xb5;" horiz-adv-x="512" 
d="M174 483l-63 -325q-5 -26 -0.5 -49.5t17 -41t33.5 -28t49 -10.5q30 0 58 12t51 30t38 39.5t19 41.5l64 331h47l-70 -360q-11 -55 -6.5 -75t29.5 -21l-12 -35q-5 -2 -9 -2.5t-10 -0.5q-12 0 -22 4t-15.5 14t-7 27.5t2.5 44.5h-2q-12 -15 -28.5 -30.5t-37.5 -28.5t-46 -21
t-53 -8q-41 0 -71.5 18.5t-39.5 50.5l-15 -79q-5 -24 -9.5 -50t-7.5 -50t-4.5 -44.5t-0.5 -33.5l-43 -2q-3 23 3 71t17 106l98 505h47z" />
    <glyph glyph-name="paragraph" unicode="&#xb6;" horiz-adv-x="486" 
d="M192 -51l61 316h-8q-34 0 -66.5 12t-56.5 35.5t-35.5 59.5t-3.5 84q7 39 26.5 78.5t55.5 70.5t90 50.5t131 19.5q35 0 58 -2t39 -5l-139 -719h-41l133 687h-70l-133 -687h-41z" />
    <glyph glyph-name="periodcentered" unicode="&#xb7;" horiz-adv-x="173" 
d="M90 230q-18 0 -26.5 13t-4.5 32t18 32t32 13t26.5 -13t4.5 -32q-4 -20 -18 -32.5t-32 -12.5z" />
    <glyph glyph-name="cedilla" unicode="&#xb8;" horiz-adv-x="300" 
d="M142 2l-47 -56q26 -4 43 -21.5t12 -45.5q-8 -41 -39.5 -59t-68.5 -18q-14 0 -30 4.5t-27 11.5l19 34q19 -13 51 -13q18 0 33.5 7.5t19.5 27.5q3 23 -17 32.5t-51 12.5l65 83h37z" />
    <glyph glyph-name="onesuperior" unicode="&#xb9;" horiz-adv-x="288" 
d="M154 266l68 349h-2l-75 -35l-1 34l90 42h37l-76 -390h-41z" />
    <glyph glyph-name="ordmasculine" unicode="&#xba;" horiz-adv-x="334" 
d="M243 591q70 0 100 -46t18 -118q-9 -44 -29 -75t-45.5 -51.5t-54.5 -30t-55 -9.5q-32 0 -57 11.5t-41.5 32.5t-22 51t1.5 67q7 40 26.5 71t45 52.5t55.5 33t58 11.5zM236 556q-29 0 -51.5 -12t-39.5 -30.5t-28 -42t-16 -47.5q-6 -28 -1.5 -51.5t16.5 -41t30 -27t39 -9.5
q24 0 45.5 9.5t39.5 27t30.5 41.5t18.5 53q4 21 2.5 43.5t-10.5 42t-27 32t-48 12.5z" />
    <glyph glyph-name="guillemotright" unicode="&#xbb;" horiz-adv-x="388" 
d="M67 431h49l105 -179l-174 -179h-49l174 179zM211 431h49l106 -179l-174 -179h-49l173 179z" />
    <glyph glyph-name="onequarter" unicode="&#xbc;" horiz-adv-x="706" 
d="M137 266l68 349h-2l-75 -35l-2 34l91 42h36l-76 -390h-40zM73 -11l513 672h40l-514 -672h-39zM527 0l21 111h-200l5 24l254 260h36l-49 -251h64l-6 -33h-64l-21 -111h-40zM582 288q4 17 7 31.5t7 25.5h-2q-12 -15 -22 -26.5t-20 -23.5l-146 -149l-1 -2h149z" />
    <glyph glyph-name="onehalf" unicode="&#xbd;" horiz-adv-x="706" 
d="M121 266l68 349h-2l-75 -35l-2 34l91 42h36l-76 -390h-40zM56 -11l513 672h40l-514 -672h-39zM372 24l74 60q75 60 117.5 105.5t51.5 88.5q6 33 -9.5 57.5t-60.5 24.5q-28 0 -51 -11.5t-37 -21.5l-10 27q21 17 51 29t64 12q33 0 54 -10.5t32 -26.5t13 -35t-2 -36
q-5 -29 -20.5 -55t-39.5 -52.5t-55.5 -53t-67.5 -54.5l-41 -34l-1 -2h183l-6 -36h-243z" />
    <glyph glyph-name="threequarters" unicode="&#xbe;" horiz-adv-x="706" 
d="M134 629q17 11 44.5 21.5t59.5 10.5q29 0 48.5 -8t30 -20.5t13 -29t-1.5 -33.5q-5 -29 -28.5 -53t-60.5 -38l-1 -2q39 -7 58 -34.5t12 -65.5q-4 -22 -17 -42.5t-34 -37t-50 -26.5t-65 -10q-32 0 -57.5 8t-38.5 19l23 33q8 -8 31 -17t52 -9q27 0 47 7.5t33.5 19.5t21.5 26
t11 28q4 23 -3 39t-22 25.5t-35 14t-41 4.5h-24l6 32h26q13 0 31 4.5t35 13.5t30.5 23.5t17.5 35.5t-8.5 40t-50.5 19q-27 0 -50 -10t-34 -18zM111 -11l514 672h40l-514 -672h-40zM538 0l21 111h-200l5 24l254 260h36l-49 -251h64l-6 -33h-64l-21 -111h-40zM593 288
q4 17 7 31.5t7 25.5h-2q-14 -16 -22.5 -27.5t-18.5 -22.5l-148 -149l-1 -2h150z" />
    <glyph glyph-name="questiondown" unicode="&#xbf;" horiz-adv-x="375" 
d="M266 300l-1 -13q0 -6 -0.5 -16t-2.5 -22q-7 -36 -30 -76.5t-65 -82.5q-48 -48 -74 -83t-34 -75q-9 -48 13 -74.5t76 -26.5q27 0 55.5 8t48.5 22l12 -34q-56 -39 -134 -39q-38 0 -64 12t-41 31.5t-19 45t2 52.5q9 48 40 88t80 89q40 39 60 73t27 69q1 9 2.5 18t1.5 14
l2 20h45zM281 485q18 0 26 -12t4 -32t-17.5 -32t-30.5 -12q-18 0 -26.5 12t-4.5 32t18 32t31 12z" />
    <glyph glyph-name="Agrave" unicode="&#xc0;" horiz-adv-x="574" 
d="M165 235l-127 -235h-48l369 674h46l106 -674h-49l-37 235h-260zM418 275l-36 223q-5 35 -7 63.5t-4 57.5h-2q-14 -30 -27.5 -58.5t-30.5 -60.5l-124 -225h231zM348 822l77 -112h-41l-109 112h73z" />
    <glyph glyph-name="Aacute" unicode="&#xc1;" horiz-adv-x="574" 
d="M165 235l-127 -235h-48l369 674h46l106 -674h-49l-37 235h-260zM418 275l-36 223q-5 35 -7 63.5t-4 57.5h-2q-14 -30 -27.5 -58.5t-30.5 -60.5l-124 -225h231zM544 822l-151 -112h-40l119 112h72z" />
    <glyph glyph-name="Acircumflex" unicode="&#xc2;" horiz-adv-x="574" 
d="M165 235l-127 -235h-48l369 674h46l106 -674h-49l-37 235h-260zM418 275l-36 223q-5 35 -7 63.5t-4 57.5h-2q-14 -30 -27.5 -58.5t-30.5 -60.5l-124 -225h231zM430 822l82 -112h-51l-54 78h-2l-85 -78h-48l121 112h37z" />
    <glyph glyph-name="Atilde" unicode="&#xc3;" horiz-adv-x="574" 
d="M165 235l-127 -235h-48l369 674h46l106 -674h-49l-37 235h-260zM418 275l-36 223q-5 35 -7 63.5t-4 57.5h-2q-14 -30 -27.5 -58.5t-30.5 -60.5l-124 -225h231zM273 716q5 32 25.5 57t49.5 25q14 0 26 -6t28 -15q11 -7 22 -12t24 -5t21.5 7t15.5 33h31q-7 -34 -25 -56.5
t-50 -22.5q-14 0 -26.5 5t-27.5 15q-14 8 -24.5 13.5t-23.5 5.5q-14 0 -22.5 -12.5t-13.5 -31.5h-30z" />
    <glyph glyph-name="Adieresis" unicode="&#xc4;" horiz-adv-x="574" 
d="M165 235l-127 -235h-48l369 674h46l106 -674h-49l-37 235h-260zM418 275l-36 223q-5 35 -7 63.5t-4 57.5h-2q-14 -30 -27.5 -58.5t-30.5 -60.5l-124 -225h231zM276 766q4 16 17 27.5t29 11.5t25.5 -11.5t5.5 -27.5q-3 -16 -16.5 -27t-29.5 -11t-25 11t-6 27zM444 766
q4 16 17 27.5t29 11.5t25.5 -11.5t5.5 -27.5q-3 -16 -16.5 -27t-29.5 -11t-25 11t-6 27z" />
    <glyph glyph-name="Aring" unicode="&#xc5;" horiz-adv-x="574" 
d="M165 235l-127 -235h-48l355 650q-23 10 -34.5 33t-6.5 52q4 19 14.5 35.5t25 29t32.5 19.5t37 7q38 0 59.5 -26.5t13.5 -64.5q-5 -30 -27.5 -53.5t-49.5 -32.5l102 -649h-49l-37 235h-260zM418 275l-36 223q-5 35 -7 63.5t-4 57.5h-2q-14 -30 -27.5 -58.5t-30.5 -60.5
l-124 -225h231zM339 735q-4 -24 9 -40.5t36 -16.5q24 0 44 16.5t24 40.5q5 23 -8.5 40t-37.5 17q-23 0 -42.5 -17t-24.5 -40z" />
    <glyph glyph-name="AE" unicode="&#xc6;" horiz-adv-x="724" 
d="M-42 0l444 674h359l-9 -40h-285l-21 -260h244l-8 -40h-239l-23 -294h238l-7 -40h-278l19 269h-208l-177 -269h-49zM395 308l19 213q2 26 5 59t6 59h-5q-14 -24 -32 -53t-37 -59l-142 -219h186z" />
    <glyph glyph-name="Ccedilla" unicode="&#xc7;" horiz-adv-x="556" 
d="M489 23q-27 -13 -74 -23t-111 -10l-37 -44q27 -4 43.5 -22.5t10.5 -47.5q-7 -39 -38.5 -56.5t-67.5 -17.5q-17 0 -33 5t-26 11l19 35q20 -14 51 -14q18 0 34 8.5t19 26.5q4 23 -17 32.5t-51 13.5l57 72q-53 6 -98 29t-74.5 64.5t-40 103t5.5 144.5q15 77 51 141.5
t88.5 111t119 72.5t143.5 26q63 0 98 -10t48 -18l-23 -41q-23 13 -55.5 21t-74.5 8q-65 0 -121.5 -21t-101.5 -61.5t-76.5 -98.5t-45.5 -131q-14 -70 -6 -125.5t36.5 -94.5t76 -60t112.5 -21q42 0 82 8t70 22z" />
    <glyph glyph-name="Egrave" unicode="&#xc8;" horiz-adv-x="456" 
d="M416 335h-264l-58 -295h295l-7 -40h-342l131 674h327l-8 -40h-280l-51 -259h264zM316 822l77 -112h-41l-109 112h73z" />
    <glyph glyph-name="Eacute" unicode="&#xc9;" horiz-adv-x="456" 
d="M416 335h-264l-58 -295h295l-7 -40h-342l131 674h327l-8 -40h-280l-51 -259h264zM496 822l-151 -112h-41l119 112h73z" />
    <glyph glyph-name="Ecircumflex" unicode="&#xca;" horiz-adv-x="456" 
d="M416 335h-264l-58 -295h295l-7 -40h-342l131 674h327l-8 -40h-280l-51 -259h264zM377 822l82 -112h-51l-55 78h-2l-84 -78h-48l121 112h37z" />
    <glyph glyph-name="Edieresis" unicode="&#xcb;" horiz-adv-x="456" 
d="M416 335h-264l-58 -295h295l-7 -40h-342l131 674h327l-8 -40h-280l-51 -259h264zM232 766q4 16 17 27.5t29 11.5t25.5 -11.5t5.5 -27.5q-3 -16 -16.5 -27t-29.5 -11t-25 11t-6 27zM402 766q4 16 17 27.5t29 11.5t25.5 -11.5t5.5 -27.5q-3 -16 -16.5 -27t-29.5 -11t-25 11
t-6 27z" />
    <glyph glyph-name="Igrave" unicode="&#xcc;" horiz-adv-x="208" 
d="M218 674l-131 -674h-47l131 674h47zM164 822l77 -112h-40l-110 112h73z" />
    <glyph glyph-name="Iacute" unicode="&#xcd;" horiz-adv-x="208" 
d="M218 674l-131 -674h-47l131 674h47zM356 822l-152 -112h-40l119 112h73z" />
    <glyph glyph-name="Icircumflex" unicode="&#xce;" horiz-adv-x="208" 
d="M218 674l-131 -674h-47l131 674h47zM240 822l82 -112h-51l-55 78h-2l-84 -78h-48l121 112h37z" />
    <glyph glyph-name="Idieresis" unicode="&#xcf;" horiz-adv-x="208" 
d="M218 674l-131 -674h-47l131 674h47zM88 766q4 16 17 27.5t29 11.5t25.5 -11.5t5.5 -27.5q-3 -16 -16.5 -27t-29.5 -11t-25 11t-6 27zM258 766q4 16 17 27.5t29 11.5t25.5 -11.5t5.5 -27.5q-3 -16 -16.5 -27t-29.5 -11t-25 11t-6 27z" />
    <glyph glyph-name="Eth" unicode="&#xd0;" horiz-adv-x="636" 
d="M26 361h88l59 306q39 6 80.5 10t89.5 4q90 0 151 -23t94 -66q32 -42 43 -100t-5 -139q-15 -78 -48.5 -142.5t-88.5 -115.5q-54 -48 -130.5 -74.5t-172.5 -26.5q-38 0 -73 1t-69 5l62 322h-88zM356 322h-203l-55 -283q19 -3 46 -4t57 -1q158 0 252.5 83t123.5 236
q14 65 7 118t-37 91t-83.5 58.5t-131.5 20.5t-119 -10l-52 -270h203z" />
    <glyph glyph-name="Ntilde" unicode="&#xd1;" horiz-adv-x="624" 
d="M40 0l131 674h45l178 -395q27 -63 47.5 -113.5t34.5 -101.5l2 1q4 35 9 67.5t10.5 65.5t12 68t14.5 75l65 333h46l-131 -674h-44l-175 390q-25 60 -47 113t-38 107l-2 -1q-4 -32 -9 -62.5t-11 -62.5t-12.5 -68t-14.5 -79l-65 -337h-46zM312 716q5 32 26 57t50 25
q14 0 26 -6t28 -15q11 -7 22 -12t24 -5t21.5 7t15.5 33h30q-7 -34 -25 -56.5t-50 -22.5q-13 0 -25.5 5t-28.5 15q-13 8 -24 13.5t-24 5.5q-14 0 -22 -12.5t-13 -31.5h-31z" />
    <glyph glyph-name="Ograve" unicode="&#xd2;" horiz-adv-x="654" 
d="M383 822l77 -112h-40l-109 112h72zM281 -11q-60 0 -108 23.5t-78 67.5t-40 107.5t6 143.5q16 83 51.5 149t84.5 111.5t107.5 69.5t120.5 24q61 0 109 -24t77.5 -68t38.5 -107.5t-7 -142.5q-17 -89 -54.5 -155.5t-87 -110.5t-106.5 -66t-114 -22zM290 29q59 0 109 25.5
t89 68.5t66 99t39 118q10 53 6 107.5t-25 98.5t-61 71.5t-101 27.5q-62 0 -113 -27t-89 -71t-63.5 -100.5t-36.5 -114.5q-11 -56 -6 -110.5t27 -97.5t61.5 -69t97.5 -26z" />
    <glyph glyph-name="Oacute" unicode="&#xd3;" horiz-adv-x="654" 
d="M590 822l-152 -112h-40l119 112h73zM281 -11q-60 0 -108 23.5t-78 67.5t-40 107.5t6 143.5q16 83 51.5 149t84.5 111.5t107.5 69.5t120.5 24q61 0 109 -24t77.5 -68t38.5 -107.5t-7 -142.5q-17 -89 -54.5 -155.5t-87 -110.5t-106.5 -66t-114 -22zM290 29q59 0 109 25.5
t89 68.5t66 99t39 118q10 53 6 107.5t-25 98.5t-61 71.5t-101 27.5q-62 0 -113 -27t-89 -71t-63.5 -100.5t-36.5 -114.5q-11 -56 -6 -110.5t27 -97.5t61.5 -69t97.5 -26z" />
    <glyph glyph-name="Ocircumflex" unicode="&#xd4;" horiz-adv-x="654" 
d="M464 822l81 -112h-51l-54 78h-2l-84 -78h-49l121 112h38zM281 -11q-60 0 -108 23.5t-78 67.5t-40 107.5t6 143.5q16 83 51.5 149t84.5 111.5t107.5 69.5t120.5 24q61 0 109 -24t77.5 -68t38.5 -107.5t-7 -142.5q-17 -89 -54.5 -155.5t-87 -110.5t-106.5 -66t-114 -22z
M290 29q59 0 109 25.5t89 68.5t66 99t39 118q10 53 6 107.5t-25 98.5t-61 71.5t-101 27.5q-62 0 -113 -27t-89 -71t-63.5 -100.5t-36.5 -114.5q-11 -56 -6 -110.5t27 -97.5t61.5 -69t97.5 -26z" />
    <glyph glyph-name="Otilde" unicode="&#xd5;" horiz-adv-x="654" 
d="M313 716q3 16 9.5 31t16.5 26t22.5 18t26.5 7t26.5 -6t28.5 -15q10 -7 21 -12t24 -5t21.5 7t15.5 33h31q-7 -34 -25 -56.5t-50 -22.5q-14 0 -26.5 5t-27.5 15q-13 8 -24 13.5t-24 5.5q-14 0 -22.5 -12.5t-13.5 -31.5h-30zM281 -11q-60 0 -108 23.5t-78 67.5t-40 107.5
t6 143.5q16 83 51.5 149t84.5 111.5t107.5 69.5t120.5 24q61 0 109 -24t77.5 -68t38.5 -107.5t-7 -142.5q-17 -89 -54.5 -155.5t-87 -110.5t-106.5 -66t-114 -22zM290 29q59 0 109 25.5t89 68.5t66 99t39 118q10 53 6 107.5t-25 98.5t-61 71.5t-101 27.5q-62 0 -113 -27
t-89 -71t-63.5 -100.5t-36.5 -114.5q-11 -56 -6 -110.5t27 -97.5t61.5 -69t97.5 -26z" />
    <glyph glyph-name="Odieresis" unicode="&#xd6;" horiz-adv-x="654" 
d="M281 -11q-60 0 -108 23.5t-78 67.5t-40 107.5t6 143.5q16 83 51.5 149t84.5 111.5t107.5 69.5t120.5 24q61 0 109 -24t77.5 -68t38.5 -107.5t-7 -142.5q-17 -89 -54.5 -155.5t-87 -110.5t-106.5 -66t-114 -22zM290 29q59 0 109 25.5t89 68.5t66 99t39 118q10 53 6 107.5
t-25 98.5t-61 71.5t-101 27.5q-62 0 -113 -27t-89 -71t-63.5 -100.5t-36.5 -114.5q-11 -56 -6 -110.5t27 -97.5t61.5 -69t97.5 -26zM312 766q4 16 17 27.5t29 11.5t25.5 -11.5t5.5 -27.5q-3 -16 -16.5 -27t-29.5 -11t-25 11t-6 27zM480 766q4 16 17 27.5t29 11.5t25.5 -11.5
t5.5 -27.5q-3 -16 -16.5 -27t-29.5 -11t-25 11t-6 27z" />
    <glyph glyph-name="multiply" unicode="&#xd7;" horiz-adv-x="596" 
d="M132 526l182 -233l274 233l24 -30l-274 -233l182 -233l-35 -30l-182 232l-273 -232l-25 30l274 233l-183 233z" />
    <glyph glyph-name="Oslash" unicode="&#xd8;" horiz-adv-x="654" 
d="M94 81q-29 45 -39 107t6 143q16 83 51.5 149t84.5 111.5t107.5 69.5t120.5 24q103 0 162 -63l74 80l28 -22l-79 -86q29 -45 39 -107.5t-6 -143.5q-17 -89 -54.5 -155.5t-87 -110.5t-106.5 -66t-114 -22q-104 0 -166 65l-75 -82l-24 23zM290 29q59 0 109 25.5t89 68.5
t66 99t39 118q10 55 5.5 111t-27.5 101l-420 -459q23 -30 57 -47t82 -17zM110 332q-11 -57 -6 -112t28 -98l420 460q-24 29 -58 46t-82 17q-62 0 -113 -27t-89 -71t-63.5 -100.5t-36.5 -114.5z" />
    <glyph glyph-name="Ugrave" unicode="&#xd9;" horiz-adv-x="613" 
d="M218 674l-80 -410q-12 -63 -7 -107.5t23 -72.5t47 -41t66 -13q40 0 76.5 13.5t66.5 42t52.5 72.5t34.5 106l80 410h47l-79 -406q-15 -77 -44.5 -130t-68 -86t-84 -48t-92.5 -15q-43 0 -80 13.5t-61 45.5t-32 83.5t7 128.5l81 414h47zM374 822l76 -112h-40l-109 112h73z
" />
    <glyph glyph-name="Uacute" unicode="&#xda;" horiz-adv-x="613" 
d="M218 674l-80 -410q-12 -63 -7 -107.5t23 -72.5t47 -41t66 -13q40 0 76.5 13.5t66.5 42t52.5 72.5t34.5 106l80 410h47l-79 -406q-15 -77 -44.5 -130t-68 -86t-84 -48t-92.5 -15q-43 0 -80 13.5t-61 45.5t-32 83.5t7 128.5l81 414h47zM563 822l-151 -112h-40l119 112h72z
" />
    <glyph glyph-name="Ucircumflex" unicode="&#xdb;" horiz-adv-x="613" 
d="M218 674l-80 -410q-12 -63 -7 -107.5t23 -72.5t47 -41t66 -13q40 0 76.5 13.5t66.5 42t52.5 72.5t34.5 106l80 410h47l-79 -406q-15 -77 -44.5 -130t-68 -86t-84 -48t-92.5 -15q-43 0 -80 13.5t-61 45.5t-32 83.5t7 128.5l81 414h47zM447 822l81 -112h-51l-54 78h-2
l-84 -78h-49l121 112h38z" />
    <glyph glyph-name="Udieresis" unicode="&#xdc;" horiz-adv-x="613" 
d="M218 674l-80 -410q-12 -63 -7 -107.5t23 -72.5t47 -41t66 -13q40 0 76.5 13.5t66.5 42t52.5 72.5t34.5 106l80 410h47l-79 -406q-15 -77 -44.5 -130t-68 -86t-84 -48t-92.5 -15q-43 0 -80 13.5t-61 45.5t-32 83.5t7 128.5l81 414h47zM291 766q4 16 17 27.5t29 11.5
t25.5 -11.5t5.5 -27.5q-3 -16 -16.5 -27t-29.5 -11t-25 11t-6 27zM461 766q4 16 17 27.5t29 11.5t25.5 -11.5t5.5 -27.5q-3 -16 -16.5 -27t-29.5 -11t-25 11t-6 27z" />
    <glyph glyph-name="Yacute" unicode="&#xdd;" horiz-adv-x="495" 
d="M186 0l56 292l-135 382h53l69 -199q13 -40 25 -74.5t21 -71.5h2q22 35 48.5 70t57.5 77l151 198h53l-298 -383l-56 -291h-47zM513 822l-151 -112h-40l118 112h73z" />
    <glyph glyph-name="Thorn" unicode="&#xde;" horiz-adv-x="492" 
d="M171 674h47l-27 -138q24 5 51 6.5t50 1.5q60 0 99 -14.5t62 -40.5q18 -23 25 -54t0 -67q-9 -48 -34 -85.5t-61.5 -63.5t-84 -39.5t-101.5 -13.5q-19 0 -39.5 1.5t-37.5 4.5l-33 -172h-47zM128 213q19 -5 39 -6t40 -1q93 0 150 41t72 114q14 75 -27.5 109.5t-119.5 34.5
q-32 0 -58.5 -3t-40.5 -7z" />
    <glyph glyph-name="germandbls" unicode="&#xdf;" horiz-adv-x="508" 
d="M39 0l90 464q16 85 43.5 134.5t65.5 78.5q56 43 131 43q30 0 55.5 -9.5t43 -29.5t24.5 -50t0 -70q-6 -28 -17.5 -49.5t-20.5 -32.5q-39 -14 -65.5 -36t-31.5 -52q-4 -16 -2 -28.5t8 -23.5t15 -22.5t19 -24.5q13 -16 24.5 -32t19.5 -34t10.5 -39t-2.5 -47q-7 -34 -24 -62
t-42.5 -47.5t-57.5 -30.5t-69 -11q-58 0 -99 23l22 40q41 -23 87 -23q57 0 92.5 30.5t43.5 73.5q8 38 -3.5 66.5t-37.5 56.5q-29 32 -44 61t-8 67q8 39 38.5 70t79.5 52q12 19 18 48q13 64 -15 94.5t-79 30.5q-66 0 -109.5 -50t-66.5 -167l-89 -462h-47z" />
    <glyph glyph-name="agrave" unicode="&#xe0;" horiz-adv-x="483" 
d="M346 0q-1 23 2 58.5t8 73.5h-2q-36 -75 -86 -109t-101 -34q-31 0 -55 11.5t-41 32.5t-26 50t-9 63q0 63 21.5 125t62 111.5t99 80t132.5 30.5q28 0 58 -4.5t50 -12.5l-52 -265q-12 -59 -16.5 -115t-2.5 -96h-42zM408 447q-23 10 -67 10q-57 0 -104.5 -26.5t-82 -69
t-53.5 -97t-19 -111.5q0 -26 5.5 -49t17.5 -40t30.5 -27t44.5 -10q35 0 66 19t56 52.5t43.5 78.5t28.5 97zM304 677l61 -137h-36l-94 137h69z" />
    <glyph glyph-name="aacute" unicode="&#xe1;" horiz-adv-x="483" 
d="M346 0q-1 23 2 58.5t8 73.5h-2q-36 -75 -86 -109t-101 -34q-31 0 -55 11.5t-41 32.5t-26 50t-9 63q0 63 21.5 125t62 111.5t99 80t132.5 30.5q28 0 58 -4.5t50 -12.5l-52 -265q-12 -59 -16.5 -115t-2.5 -96h-42zM408 447q-23 10 -67 10q-57 0 -104.5 -26.5t-82 -69
t-53.5 -97t-19 -111.5q0 -26 5.5 -49t17.5 -40t30.5 -27t44.5 -10q35 0 66 19t56 52.5t43.5 78.5t28.5 97zM465 677l-148 -137h-36l115 137h69z" />
    <glyph glyph-name="acircumflex" unicode="&#xe2;" horiz-adv-x="483" 
d="M346 0q-1 23 2 58.5t8 73.5h-2q-36 -75 -86 -109t-101 -34q-31 0 -55 11.5t-41 32.5t-26 50t-9 63q0 63 21.5 125t62 111.5t99 80t132.5 30.5q28 0 58 -4.5t50 -12.5l-52 -265q-12 -59 -16.5 -115t-2.5 -96h-42zM408 447q-23 10 -67 10q-57 0 -104.5 -26.5t-82 -69
t-53.5 -97t-19 -111.5q0 -26 5.5 -49t17.5 -40t30.5 -27t44.5 -10q35 0 66 19t56 52.5t43.5 78.5t28.5 97zM366 677l66 -137h-48l-41 99h-2l-82 -99h-45l117 137h35z" />
    <glyph glyph-name="atilde" unicode="&#xe3;" horiz-adv-x="483" 
d="M346 0q-1 23 2 58.5t8 73.5h-2q-36 -75 -86 -109t-101 -34q-31 0 -55 11.5t-41 32.5t-26 50t-9 63q0 63 21.5 125t62 111.5t99 80t132.5 30.5q28 0 58 -4.5t50 -12.5l-52 -265q-12 -59 -16.5 -115t-2.5 -96h-42zM408 447q-23 10 -67 10q-57 0 -104.5 -26.5t-82 -69
t-53.5 -97t-19 -111.5q0 -26 5.5 -49t17.5 -40t30.5 -27t44.5 -10q35 0 66 19t56 52.5t43.5 78.5t28.5 97zM208 563q5 33 25 58t49 25q16 0 28 -6t29 -16q11 -6 20.5 -11t23.5 -5q11 0 19 8.5t15 32.5h30q-7 -35 -25.5 -57.5t-50.5 -22.5q-14 0 -26.5 6t-25.5 15
q-13 8 -22.5 13t-20.5 5q-13 0 -21.5 -12.5t-14.5 -32.5h-32z" />
    <glyph glyph-name="adieresis" unicode="&#xe4;" horiz-adv-x="483" 
d="M346 0q-1 23 2 58.5t8 73.5h-2q-36 -75 -86 -109t-101 -34q-31 0 -55 11.5t-41 32.5t-26 50t-9 63q0 63 21.5 125t62 111.5t99 80t132.5 30.5q28 0 58 -4.5t50 -12.5l-52 -265q-12 -59 -16.5 -115t-2.5 -96h-42zM408 447q-23 10 -67 10q-57 0 -104.5 -26.5t-82 -69
t-53.5 -97t-19 -111.5q0 -26 5.5 -49t17.5 -40t30.5 -27t44.5 -10q35 0 66 19t56 52.5t43.5 78.5t28.5 97zM203 601q3 16 16.5 27.5t29.5 11.5t25 -11.5t6 -27.5t-16.5 -27t-29.5 -11t-25 11t-6 27zM371 601q3 16 16.5 27.5t29.5 11.5t25 -11.5t6 -27.5t-16.5 -27t-29.5 -11
t-25 11t-6 27z" />
    <glyph glyph-name="aring" unicode="&#xe5;" horiz-adv-x="483" 
d="M346 0q-1 23 2 58.5t8 73.5h-2q-36 -75 -86 -109t-101 -34q-31 0 -55 11.5t-41 32.5t-26 50t-9 63q0 63 21.5 125t62 111.5t99 80t132.5 30.5q28 0 58 -4.5t50 -12.5l-52 -265q-12 -59 -16.5 -115t-2.5 -96h-42zM408 447q-23 10 -67 10q-57 0 -104.5 -26.5t-82 -69
t-53.5 -97t-19 -111.5q0 -26 5.5 -49t17.5 -40t30.5 -27t44.5 -10q35 0 66 19t56 52.5t43.5 78.5t28.5 97zM421 621q-3 -19 -13.5 -35.5t-25 -29t-32.5 -19.5t-37 -7q-38 0 -59.5 26.5t-14.5 64.5q4 19 14.5 35.5t25 29t32.5 19.5t37 7q38 0 59.5 -26.5t13.5 -64.5zM274 621
q-4 -24 9 -40.5t36 -16.5q24 0 44 16.5t24 40.5q5 23 -8.5 40t-37.5 17q-23 0 -42.5 -17t-24.5 -40z" />
    <glyph glyph-name="ae" unicode="&#xe6;" horiz-adv-x="739" 
d="M379 252q-12 -56 -8.5 -97.5t20.5 -69t45 -41t66 -13.5q51 0 82.5 9.5t47.5 17.5l6 -37q-25 -12 -63 -21.5t-86 -9.5q-61 0 -105 30.5t-51 87.5h-2q-30 -57 -82.5 -87.5t-113.5 -30.5q-36 0 -60 11t-37.5 29t-17 41t0.5 47q16 81 96 128t225 44l5 25q2 12 2.5 35t-8 45.5
t-29 39t-61.5 16.5q-32 0 -66 -9.5t-58 -25.5l-8 34q39 23 78 32t65 9q67 0 97 -31.5t31 -82.5h2q31 54 80 84t107 30q55 0 84.5 -24.5t42 -58.5t12.5 -69t-5 -57q-2 -20 -8 -30h-326zM334 252q-35 1 -77 -2t-80.5 -16.5t-68 -39.5t-38.5 -71q-8 -45 15.5 -69.5t62.5 -24.5
q58 0 98 30t60 72q5 9 7.5 18.5t4.5 18.5zM666 290q6 24 5 52.5t-12 52.5t-33.5 40.5t-58.5 16.5t-66.5 -15.5t-54 -39.5t-38.5 -52.5t-21 -54.5h279z" />
    <glyph glyph-name="ccedilla" unicode="&#xe7;" horiz-adv-x="435" 
d="M366 20q-16 -8 -52 -18.5t-84 -11.5l-38 -44q26 -4 43 -21.5t12 -45.5q-8 -42 -39 -59.5t-69 -17.5q-14 0 -30 4.5t-27 11.5l19 34q19 -13 50 -13q19 0 34.5 7.5t19.5 27.5q3 23 -17 32.5t-51 12.5l57 73q-43 5 -75.5 24.5t-52 51.5t-25 74.5t4.5 92.5q11 57 38 104
t66 80.5t87 52.5t101 19q43 0 73.5 -9.5t42.5 -19.5l-24 -40q-16 10 -41 19t-64 9q-47 0 -86 -17.5t-68.5 -46.5t-49 -67.5t-27.5 -80.5q-9 -47 -3 -85.5t25.5 -65.5t51 -41.5t72.5 -14.5q42 0 71.5 9t49.5 18z" />
    <glyph glyph-name="egrave" unicode="&#xe8;" horiz-adv-x="409" 
d="M342 27q-23 -14 -60 -25.5t-82 -11.5q-44 0 -74.5 15t-50.5 41.5t-29 61t-9 73.5q0 54 17.5 109.5t50 100.5t77.5 73.5t99 28.5q58 0 90 -31.5t32 -78.5q0 -45 -23.5 -74t-63.5 -46.5t-94 -24.5t-114 -7h-20q-2 -11 -3.5 -23t-1.5 -28q0 -67 31 -110t94 -43q42 0 74 11
t52 24zM94 267q56 0 104 4.5t83.5 17t56 35t20.5 58.5q0 35 -23 54.5t-60 19.5q-34 0 -63.5 -16t-52.5 -42t-39.5 -60t-25.5 -71zM254 677l61 -137h-36l-94 137h69z" />
    <glyph glyph-name="eacute" unicode="&#xe9;" horiz-adv-x="409" 
d="M342 27q-23 -14 -60 -25.5t-82 -11.5q-44 0 -74.5 15t-50.5 41.5t-29 61t-9 73.5q0 54 17.5 109.5t50 100.5t77.5 73.5t99 28.5q58 0 90 -31.5t32 -78.5q0 -45 -23.5 -74t-63.5 -46.5t-94 -24.5t-114 -7h-20q-2 -11 -3.5 -23t-1.5 -28q0 -67 31 -110t94 -43q42 0 74 11
t52 24zM94 267q56 0 104 4.5t83.5 17t56 35t20.5 58.5q0 35 -23 54.5t-60 19.5q-34 0 -63.5 -16t-52.5 -42t-39.5 -60t-25.5 -71zM425 677l-148 -137h-36l115 137h69z" />
    <glyph glyph-name="ecircumflex" unicode="&#xea;" horiz-adv-x="409" 
d="M342 27q-23 -14 -60 -25.5t-82 -11.5q-44 0 -74.5 15t-50.5 41.5t-29 61t-9 73.5q0 54 17.5 109.5t50 100.5t77.5 73.5t99 28.5q58 0 90 -31.5t32 -78.5q0 -45 -23.5 -74t-63.5 -46.5t-94 -24.5t-114 -7h-20q-2 -11 -3.5 -23t-1.5 -28q0 -67 31 -110t94 -43q42 0 74 11
t52 24zM94 267q56 0 104 4.5t83.5 17t56 35t20.5 58.5q0 35 -23 54.5t-60 19.5q-34 0 -63.5 -16t-52.5 -42t-39.5 -60t-25.5 -71zM317 677l66 -137h-48l-41 99h-2l-82 -99h-45l117 137h35z" />
    <glyph glyph-name="edieresis" unicode="&#xeb;" horiz-adv-x="409" 
d="M342 27q-23 -14 -60 -25.5t-82 -11.5q-44 0 -74.5 15t-50.5 41.5t-29 61t-9 73.5q0 54 17.5 109.5t50 100.5t77.5 73.5t99 28.5q58 0 90 -31.5t32 -78.5q0 -45 -23.5 -74t-63.5 -46.5t-94 -24.5t-114 -7h-20q-2 -11 -3.5 -23t-1.5 -28q0 -67 31 -110t94 -43q42 0 74 11
t52 24zM94 267q56 0 104 4.5t83.5 17t56 35t20.5 58.5q0 35 -23 54.5t-60 19.5q-34 0 -63.5 -16t-52.5 -42t-39.5 -60t-25.5 -71zM163 601q3 16 16.5 27.5t29.5 11.5t25 -11.5t6 -27.5t-16.5 -27t-29.5 -11t-25 11t-6 27zM331 601q3 16 16.5 27.5t29.5 11.5t25 -11.5
t6 -27.5t-16.5 -27t-29.5 -11t-25 11t-6 27z" />
    <glyph glyph-name="igrave" unicode="&#xec;" horiz-adv-x="206" 
d="M39 0l93 480h47l-93 -480h-47zM134 677l61 -137h-36l-94 137h69z" />
    <glyph glyph-name="iacute" unicode="&#xed;" horiz-adv-x="206" 
d="M39 0l93 480h47l-93 -480h-47zM318 677l-148 -137h-36l115 137h69z" />
    <glyph glyph-name="icircumflex" unicode="&#xee;" horiz-adv-x="206" 
d="M39 0l93 480h47l-93 -480h-47zM210 677l66 -137h-48l-41 99h-2l-82 -99h-45l117 137h35z" />
    <glyph glyph-name="idieresis" unicode="&#xef;" horiz-adv-x="206" 
d="M39 0l93 480h47l-93 -480h-47zM56 601q3 16 16.5 27.5t29.5 11.5t25 -11.5t6 -27.5t-16.5 -27t-29.5 -11t-25 11t-6 27zM224 601q3 16 16.5 27.5t29.5 11.5t25 -11.5t6 -27.5t-16.5 -27t-29.5 -11t-25 11t-6 27z" />
    <glyph glyph-name="eth" unicode="&#xf0;" horiz-adv-x="510" 
d="M216 29q38 0 72 16.5t61.5 45t47 67.5t28.5 85q8 44 7 82t-14.5 66t-42 44t-74.5 16q-45 0 -80.5 -20.5t-61.5 -52t-42.5 -69.5t-22.5 -72q-9 -43 -4 -81t21.5 -66t43 -44.5t61.5 -16.5zM173 557l132 59q-19 18 -44 35.5t-52 32.5l29 36q30 -18 58.5 -39t52.5 -44l131 61
l10 -34l-115 -52q35 -36 59.5 -76.5t36.5 -85.5q12 -42 14 -91.5t-10 -109.5q-14 -69 -42.5 -118.5t-65.5 -81t-78 -46t-81 -14.5q-45 0 -79.5 17.5t-56.5 49.5t-29 77.5t4 101.5q12 61 39.5 109t64 80.5t77.5 49.5t80 17q35 0 65.5 -10.5t57.5 -44.5l3 3q-15 42 -39.5 79.5
t-62.5 72.5l-152 -67z" />
    <glyph glyph-name="ntilde" unicode="&#xf1;" horiz-adv-x="525" 
d="M109 365q7 34 11 60t8 55h46l-17 -85h4q27 40 74.5 68t105.5 28q16 0 42.5 -6.5t49 -27.5t34 -60.5t-1.5 -105.5l-56 -291h-47l55 286q6 32 5.5 62t-11 52.5t-32.5 36t-59 13.5q-50 0 -94 -31t-67 -79q-5 -10 -9.5 -20.5t-6.5 -21.5l-57 -298h-47zM221 563q5 33 25 58
t49 25q16 0 28 -6t29 -16q11 -6 20.5 -11t23.5 -5q11 0 19 8.5t15 32.5h30q-7 -35 -25.5 -57.5t-50.5 -22.5q-14 0 -26.5 6t-25.5 15q-13 8 -22.5 13t-20.5 5q-13 0 -21.5 -12.5t-14.5 -32.5h-32z" />
    <glyph glyph-name="ograve" unicode="&#xf2;" horiz-adv-x="520" 
d="M317 491q48 0 84.5 -17.5t59 -50t29.5 -78t-4 -101.5q-13 -68 -42.5 -116t-68 -79t-81 -45.5t-81.5 -14.5q-45 0 -81 17t-58.5 49.5t-30.5 78t3 102.5q12 62 39.5 109.5t64.5 80t80.5 49t86.5 16.5zM308 451q-45 0 -81 -19t-63.5 -49t-45 -68t-24.5 -76q-9 -45 -4 -83.5
t22 -66.5t45 -44t66 -16q37 0 72 16t63.5 44t49 67t30.5 86q6 33 3.5 69.5t-16.5 67.5t-42.5 51.5t-74.5 20.5zM304 677l61 -137h-36l-94 137h69z" />
    <glyph glyph-name="oacute" unicode="&#xf3;" horiz-adv-x="520" 
d="M317 491q48 0 84.5 -17.5t59 -50t29.5 -78t-4 -101.5q-13 -68 -42.5 -116t-68 -79t-81 -45.5t-81.5 -14.5q-45 0 -81 17t-58.5 49.5t-30.5 78t3 102.5q12 62 39.5 109.5t64.5 80t80.5 49t86.5 16.5zM308 451q-45 0 -81 -19t-63.5 -49t-45 -68t-24.5 -76q-9 -45 -4 -83.5
t22 -66.5t45 -44t66 -16q37 0 72 16t63.5 44t49 67t30.5 86q6 33 3.5 69.5t-16.5 67.5t-42.5 51.5t-74.5 20.5zM467 677l-148 -137h-36l115 137h69z" />
    <glyph glyph-name="ocircumflex" unicode="&#xf4;" horiz-adv-x="520" 
d="M317 491q48 0 84.5 -17.5t59 -50t29.5 -78t-4 -101.5q-13 -68 -42.5 -116t-68 -79t-81 -45.5t-81.5 -14.5q-45 0 -81 17t-58.5 49.5t-30.5 78t3 102.5q12 62 39.5 109.5t64.5 80t80.5 49t86.5 16.5zM308 451q-45 0 -81 -19t-63.5 -49t-45 -68t-24.5 -76q-9 -45 -4 -83.5
t22 -66.5t45 -44t66 -16q37 0 72 16t63.5 44t49 67t30.5 86q6 33 3.5 69.5t-16.5 67.5t-42.5 51.5t-74.5 20.5zM367 677l66 -137h-48l-41 99h-2l-82 -99h-45l117 137h35z" />
    <glyph glyph-name="otilde" unicode="&#xf5;" horiz-adv-x="520" 
d="M317 491q48 0 84.5 -17.5t59 -50t29.5 -78t-4 -101.5q-13 -68 -42.5 -116t-68 -79t-81 -45.5t-81.5 -14.5q-45 0 -81 17t-58.5 49.5t-30.5 78t3 102.5q12 62 39.5 109.5t64.5 80t80.5 49t86.5 16.5zM308 451q-45 0 -81 -19t-63.5 -49t-45 -68t-24.5 -76q-9 -45 -4 -83.5
t22 -66.5t45 -44t66 -16q37 0 72 16t63.5 44t49 67t30.5 86q6 33 3.5 69.5t-16.5 67.5t-42.5 51.5t-74.5 20.5zM218 563q5 33 25 58t49 25q16 0 28 -6t29 -16q11 -6 20.5 -11t23.5 -5q11 0 19 8.5t15 32.5h30q-7 -35 -25.5 -57.5t-50.5 -22.5q-14 0 -26.5 6t-25.5 15
q-13 8 -22.5 13t-20.5 5q-13 0 -21.5 -12.5t-14.5 -32.5h-32z" />
    <glyph glyph-name="odieresis" unicode="&#xf6;" horiz-adv-x="520" 
d="M317 491q48 0 84.5 -17.5t59 -50t29.5 -78t-4 -101.5q-13 -68 -42.5 -116t-68 -79t-81 -45.5t-81.5 -14.5q-45 0 -81 17t-58.5 49.5t-30.5 78t3 102.5q12 62 39.5 109.5t64.5 80t80.5 49t86.5 16.5zM308 451q-45 0 -81 -19t-63.5 -49t-45 -68t-24.5 -76q-9 -45 -4 -83.5
t22 -66.5t45 -44t66 -16q37 0 72 16t63.5 44t49 67t30.5 86q6 33 3.5 69.5t-16.5 67.5t-42.5 51.5t-74.5 20.5zM213 601q3 16 16.5 27.5t29.5 11.5t25 -11.5t6 -27.5t-16.5 -27t-29.5 -11t-25 11t-6 27zM381 601q3 16 16.5 27.5t29.5 11.5t25 -11.5t6 -27.5t-16.5 -27
t-29.5 -11t-25 11t-6 27z" />
    <glyph glyph-name="divide" unicode="&#xf7;" horiz-adv-x="596" 
d="M384 442q-3 -19 -17 -31.5t-32 -12.5t-26.5 12.5t-5.5 31.5q4 19 18 31.5t32 12.5t26.5 -12.5t4.5 -31.5zM47 247l7 40h516l-7 -40h-516zM315 92q-3 -19 -17 -31.5t-32 -12.5t-26.5 12.5t-5.5 31.5q4 19 18 31.5t32 12.5t26.5 -12.5t4.5 -31.5z" />
    <glyph glyph-name="oslash" unicode="&#xf8;" horiz-adv-x="520" 
d="M456 428q24 -32 32.5 -79t-2.5 -105q-13 -68 -42.5 -116t-68 -79t-81 -45.5t-81.5 -14.5q-69 0 -113 38l-50 -54l-23 23l49 56q-24 32 -32.5 78t2.5 106q12 62 39.5 109.5t64.5 80t80.5 49t86.5 16.5q35 0 64 -10t52 -28l47 53l27 -20zM308 451q-45 0 -81 -19t-63.5 -49
t-45 -68t-24.5 -76q-17 -90 16 -148l289 325q-16 16 -38 25.5t-53 9.5zM438 242q6 35 3 74.5t-21 71.5l-288 -325q34 -34 91 -34q37 0 72 16t63.5 44t49 67t30.5 86z" />
    <glyph glyph-name="ugrave" unicode="&#xf9;" horiz-adv-x="519" 
d="M296 671l61 -137h-36l-94 137h69zM423 117q-6 -32 -10.5 -61t-7.5 -56h-46l16 83h-4q-12 -16 -30 -33t-40.5 -30.5t-49.5 -22t-59 -8.5q-23 0 -49.5 8t-46 30.5t-28 63.5t4.5 107l55 282h48l-53 -272q-8 -39 -8 -71.5t10.5 -56t31.5 -37t55 -13.5q26 0 50 8.5t44 22.5
t36 31t26 35q6 11 11.5 24.5t7.5 27.5l59 301h48z" />
    <glyph glyph-name="uacute" unicode="&#xfa;" horiz-adv-x="519" 
d="M472 671l-148 -137h-36l115 137h69zM423 117q-6 -32 -10.5 -61t-7.5 -56h-46l16 83h-4q-12 -16 -30 -33t-40.5 -30.5t-49.5 -22t-59 -8.5q-23 0 -49.5 8t-46 30.5t-28 63.5t4.5 107l55 282h48l-53 -272q-8 -39 -8 -71.5t10.5 -56t31.5 -37t55 -13.5q26 0 50 8.5t44 22.5
t36 31t26 35q6 11 11.5 24.5t7.5 27.5l59 301h48z" />
    <glyph glyph-name="ucircumflex" unicode="&#xfb;" horiz-adv-x="519" 
d="M423 117q-6 -32 -10.5 -61t-7.5 -56h-46l16 83h-4q-12 -16 -30 -33t-40.5 -30.5t-49.5 -22t-59 -8.5q-23 0 -49.5 8t-46 30.5t-28 63.5t4.5 107l55 282h48l-53 -272q-8 -39 -8 -71.5t10.5 -56t31.5 -37t55 -13.5q26 0 50 8.5t44 22.5t36 31t26 35q6 11 11.5 24.5
t7.5 27.5l59 301h48zM367 677l66 -137h-48l-41 99h-2l-82 -99h-45l117 137h35z" />
    <glyph glyph-name="udieresis" unicode="&#xfc;" horiz-adv-x="519" 
d="M423 117q-6 -32 -10.5 -61t-7.5 -56h-46l16 83h-4q-12 -16 -30 -33t-40.5 -30.5t-49.5 -22t-59 -8.5q-23 0 -49.5 8t-46 30.5t-28 63.5t4.5 107l55 282h48l-53 -272q-8 -39 -8 -71.5t10.5 -56t31.5 -37t55 -13.5q26 0 50 8.5t44 22.5t36 31t26 35q6 11 11.5 24.5
t7.5 27.5l59 301h48zM216 601q3 16 16.5 27.5t29.5 11.5t25 -11.5t6 -27.5t-16.5 -27t-29.5 -11t-25 11t-6 27zM384 601q3 16 16.5 27.5t29.5 11.5t25 -11.5t6 -27.5t-16.5 -27t-29.5 -11t-25 11t-6 27z" />
    <glyph glyph-name="yacute" unicode="&#xfd;" horiz-adv-x="431" 
d="M115 480l61 -312q5 -26 8.5 -53.5t6.5 -50.5h2q11 22 25.5 49.5t31.5 56.5l174 310h50l-208 -352q-32 -56 -59.5 -101.5t-53 -82t-50.5 -64.5t-53 -49q-33 -25 -59 -36.5t-33 -14.5l-9 39q19 8 43.5 21t49.5 34q22 18 49 47.5t52 71.5q8 14 10 21q2 9 -2 21l-86 445h50z
M437 677l-148 -137h-36l115 137h69z" />
    <glyph glyph-name="thorn" unicode="&#xfe;" horiz-adv-x="487" 
d="M409 312q0 28 -5.5 54t-17.5 45.5t-32 31.5t-49 12q-26 0 -55 -12.5t-55 -40t-47.5 -72.5t-33.5 -110l-31 -167q33 -27 101 -27q47 0 88 24t71 64t48 91.5t18 106.5zM142 383h2q28 48 73.5 79t100.5 31q38 0 64.5 -15t43 -40t24 -57.5t7.5 -67.5q-1 -61 -21.5 -119
t-56.5 -103.5t-85 -73.5t-106 -28q-44 0 -71.5 7.5t-41.5 14.5l-39 -209h-46l165 862h47z" />
    <glyph glyph-name="ydieresis" unicode="&#xff;" horiz-adv-x="431" 
d="M115 480l61 -312q5 -26 8.5 -53.5t6.5 -50.5h2q11 22 25.5 49.5t31.5 56.5l174 310h50l-208 -352q-32 -56 -59.5 -101.5t-53 -82t-50.5 -64.5t-53 -49q-33 -25 -59 -36.5t-33 -14.5l-9 39q19 8 43.5 21t49.5 34q22 18 49 47.5t52 71.5q8 14 10 21q2 9 -2 21l-86 445h50z
M160 601q3 16 16.5 27.5t29.5 11.5t25 -11.5t6 -27.5t-16.5 -27t-29.5 -11t-25 11t-6 27zM328 601q3 16 16.5 27.5t29.5 11.5t25 -11.5t6 -27.5t-16.5 -27t-29.5 -11t-25 11t-6 27z" />
    <glyph glyph-name="Amacron" unicode="&#x100;" horiz-adv-x="574" 
d="M165 235l-127 -235h-48l369 674h46l106 -674h-49l-37 235h-260zM418 275l-36 223q-5 35 -7 63.5t-4 57.5h-2q-14 -30 -27.5 -58.5t-30.5 -60.5l-124 -225h231zM512 762l-8 -38h-229l8 38h229z" />
    <glyph glyph-name="amacron" unicode="&#x101;" horiz-adv-x="483" 
d="M346 0q-1 23 2 58.5t8 73.5h-2q-36 -75 -86 -109t-101 -34q-31 0 -55 11.5t-41 32.5t-26 50t-9 63q0 63 21.5 125t62 111.5t99 80t132.5 30.5q28 0 58 -4.5t50 -12.5l-52 -265q-12 -59 -16.5 -115t-2.5 -96h-42zM408 447q-23 10 -67 10q-57 0 -104.5 -26.5t-82 -69
t-53.5 -97t-19 -111.5q0 -26 5.5 -49t17.5 -40t30.5 -27t44.5 -10q35 0 66 19t56 52.5t43.5 78.5t28.5 97zM445 614l-8 -38h-229l8 38h229z" />
    <glyph glyph-name="Abreve" unicode="&#x102;" horiz-adv-x="574" 
d="M165 235l-127 -235h-48l369 674h46l106 -674h-49l-37 235h-260zM418 275l-36 223q-5 35 -7 63.5t-4 57.5h-2q-14 -30 -27.5 -58.5t-30.5 -60.5l-124 -225h231zM334 837q-1 -30 15.5 -51.5t48.5 -21.5q19 0 34.5 6.5t27 17t19 23.5t11.5 26h36q-10 -51 -47 -82t-88 -31
q-32 0 -51.5 10.5t-30 26.5t-12.5 36t2 40h35z" />
    <glyph glyph-name="abreve" unicode="&#x103;" horiz-adv-x="483" 
d="M346 0q-1 23 2 58.5t8 73.5h-2q-36 -75 -86 -109t-101 -34q-31 0 -55 11.5t-41 32.5t-26 50t-9 63q0 63 21.5 125t62 111.5t99 80t132.5 30.5q28 0 58 -4.5t50 -12.5l-52 -265q-12 -59 -16.5 -115t-2.5 -96h-42zM408 447q-23 10 -67 10q-57 0 -104.5 -26.5t-82 -69
t-53.5 -97t-19 -111.5q0 -26 5.5 -49t17.5 -40t30.5 -27t44.5 -10q35 0 66 19t56 52.5t43.5 78.5t28.5 97zM257 654q-1 -30 15.5 -51.5t48.5 -21.5q19 0 34.5 6.5t27 17t19 23.5t11.5 26h36q-10 -51 -47 -82t-88 -31q-32 0 -51.5 10.5t-30 26.5t-12.5 36t2 40h35z" />
    <glyph glyph-name="Aogonek" unicode="&#x104;" horiz-adv-x="574" 
d="M165 235l-127 -235h-48l369 674h46l106 -674h-49l-37 235h-260zM418 275l-36 223q-5 35 -7 63.5t-4 57.5h-2q-14 -30 -27.5 -58.5t-30.5 -60.5l-124 -225h231zM504 0q-19 -10 -38.5 -23t-36 -27.5t-28 -31t-14.5 -32.5q-6 -25 6.5 -36.5t29.5 -11.5q11 0 24.5 2t26.5 8
l2 -31q-32 -15 -71 -15q-34 0 -52 20t-11 55q3 19 17 39t32.5 37t38 29.5t33.5 17.5h41z" />
    <glyph glyph-name="aogonek" unicode="&#x105;" horiz-adv-x="483" 
d="M382 0q-19 -10 -37.5 -22.5t-34 -27t-26 -30t-13.5 -31.5q-6 -25 6.5 -36.5t29.5 -11.5q11 0 24.5 2t26.5 8l2 -31q-32 -15 -71 -15q-34 0 -52 20t-11 55q3 19 17 39t32 36.5t37.5 29t33.5 17.5q-1 23 2 57.5t8 72.5h-2q-36 -75 -86 -109t-101 -34q-31 0 -55 11.5
t-41 32.5t-26 50t-9 63q0 63 21.5 125t62 111.5t99 80t132.5 30.5q28 0 58 -4.5t50 -12.5l-52 -265q-12 -59 -16.5 -115t-2.5 -96h-6zM408 447q-23 10 -67 10q-57 0 -104.5 -26.5t-82 -69t-53.5 -97t-19 -111.5q0 -26 5.5 -49t17.5 -40t30.5 -27t44.5 -10q35 0 66 19
t56 52.5t43.5 78.5t28.5 97z" />
    <glyph glyph-name="Cacute" unicode="&#x106;" horiz-adv-x="556" 
d="M489 23q-28 -13 -75 -23t-107 -10t-112.5 20t-88 61.5t-49 106.5t3.5 155q15 77 51 141.5t88.5 111t119 72.5t143.5 26q63 0 98 -10t48 -18l-23 -41q-23 13 -55.5 21t-74.5 8q-65 0 -121.5 -21t-101.5 -61.5t-76.5 -98.5t-45.5 -131q-14 -70 -6 -125.5t36.5 -94.5t76 -60
t112.5 -21q42 0 82 8t70 22zM488 871l-148 -137h-36l115 137h69z" />
    <glyph glyph-name="cacute" unicode="&#x107;" horiz-adv-x="435" 
d="M365 19q-16 -8 -53 -18.5t-88 -10.5t-89.5 17.5t-61.5 50t-30.5 77.5t3.5 100q11 57 38 104t66 80.5t87 52.5t101 19q43 0 73.5 -9.5t42.5 -19.5l-24 -40q-16 10 -41 19t-64 9q-47 0 -86 -17.5t-68.5 -46.5t-49 -67.5t-27.5 -80.5q-9 -47 -3 -85.5t25.5 -65.5t51 -41.5
t72.5 -14.5q42 0 70.5 9t50.5 17zM473 678l-148 -137h-36l115 137h69z" />
    <glyph glyph-name="Ccircumflex" unicode="&#x108;" horiz-adv-x="556" 
d="M489 23q-28 -13 -75 -23t-107 -10t-112.5 20t-88 61.5t-49 106.5t3.5 155q15 77 51 141.5t88.5 111t119 72.5t143.5 26q63 0 98 -10t48 -18l-23 -41q-23 13 -55.5 21t-74.5 8q-65 0 -121.5 -21t-101.5 -61.5t-76.5 -98.5t-45.5 -131q-14 -70 -6 -125.5t36.5 -94.5t76 -60
t112.5 -21q42 0 82 8t70 22zM426 871l65 -137h-47l-41 99h-2l-82 -99h-45l117 137h35z" />
    <glyph glyph-name="ccircumflex" unicode="&#x109;" horiz-adv-x="435" 
d="M365 19q-16 -8 -53 -18.5t-88 -10.5t-89.5 17.5t-61.5 50t-30.5 77.5t3.5 100q11 57 38 104t66 80.5t87 52.5t101 19q43 0 73.5 -9.5t42.5 -19.5l-24 -40q-16 10 -41 19t-64 9q-47 0 -86 -17.5t-68.5 -46.5t-49 -67.5t-27.5 -80.5q-9 -47 -3 -85.5t25.5 -65.5t51 -41.5
t72.5 -14.5q42 0 70.5 9t50.5 17zM351 678l65 -137h-47l-41 99h-2l-82 -99h-45l117 137h35z" />
    <glyph glyph-name="Cdotaccent" unicode="&#x10a;" horiz-adv-x="556" 
d="M489 23q-28 -13 -75 -23t-107 -10t-112.5 20t-88 61.5t-49 106.5t3.5 155q15 77 51 141.5t88.5 111t119 72.5t143.5 26q63 0 98 -10t48 -18l-23 -41q-23 13 -55.5 21t-74.5 8q-65 0 -121.5 -21t-101.5 -61.5t-76.5 -98.5t-45.5 -131q-14 -70 -6 -125.5t36.5 -94.5t76 -60
t112.5 -21q42 0 82 8t70 22zM351 773q3 17 16.5 28.5t30.5 11.5t26 -11.5t6 -28.5t-16.5 -28t-30.5 -11t-26 11t-6 28z" />
    <glyph glyph-name="cdotaccent" unicode="&#x10b;" horiz-adv-x="435" 
d="M365 19q-16 -8 -53 -18.5t-88 -10.5t-89.5 17.5t-61.5 50t-30.5 77.5t3.5 100q11 57 38 104t66 80.5t87 52.5t101 19q43 0 73.5 -9.5t42.5 -19.5l-24 -40q-16 10 -41 19t-64 9q-47 0 -86 -17.5t-68.5 -46.5t-49 -67.5t-27.5 -80.5q-9 -47 -3 -85.5t25.5 -65.5t51 -41.5
t72.5 -14.5q42 0 70.5 9t50.5 17zM286 580q3 17 16.5 28.5t30.5 11.5t26 -11.5t6 -28.5t-16.5 -28t-30.5 -11t-26 11t-6 28z" />
    <glyph glyph-name="Ccaron" unicode="&#x10c;" horiz-adv-x="556" 
d="M489 23q-28 -13 -75 -23t-107 -10t-112.5 20t-88 61.5t-49 106.5t3.5 155q15 77 51 141.5t88.5 111t119 72.5t143.5 26q63 0 98 -10t48 -18l-23 -41q-23 13 -55.5 21t-74.5 8q-65 0 -121.5 -21t-101.5 -61.5t-76.5 -98.5t-45.5 -131q-14 -70 -6 -125.5t36.5 -94.5t76 -60
t112.5 -21q42 0 82 8t70 22zM367 734l-67 137h47l44 -99h2l82 99h44l-117 -137h-35z" />
    <glyph glyph-name="ccaron" unicode="&#x10d;" horiz-adv-x="435" 
d="M365 19q-16 -8 -53 -18.5t-88 -10.5t-89.5 17.5t-61.5 50t-30.5 77.5t3.5 100q11 57 38 104t66 80.5t87 52.5t101 19q43 0 73.5 -9.5t42.5 -19.5l-24 -40q-16 10 -41 19t-64 9q-47 0 -86 -17.5t-68.5 -46.5t-49 -67.5t-27.5 -80.5q-9 -47 -3 -85.5t25.5 -65.5t51 -41.5
t72.5 -14.5q42 0 70.5 9t50.5 17zM302 541l-67 137h47l44 -99h2l82 99h44l-117 -137h-35z" />
    <glyph glyph-name="Dcaron" unicode="&#x10e;" horiz-adv-x="632" 
d="M169 665q39 6 81 10t88 4q91 0 152.5 -23t93.5 -66q32 -42 43 -99.5t-5 -136.5q-15 -78 -48.5 -142.5t-88.5 -115.5q-54 -48 -130 -74.5t-172 -26.5q-38 0 -73.5 1t-69.5 5zM94 40q20 -3 46.5 -4t56.5 -1q157 0 252.5 83.5t124.5 232.5q12 64 4.5 117.5t-36.5 91
t-82 58.5t-132 21q-37 0 -67 -3t-52 -7zM422 729l-67 137h47l44 -99h2l82 99h44l-117 -137h-35z" />
    <glyph glyph-name="dcaron" unicode="&#x10f;" horiz-adv-x="499" 
d="M505 709l-106 -560q-7 -37 -12.5 -76.5t-7.5 -72.5h-42q2 24 5.5 49.5t8.5 51.5h-2q-32 -57 -79 -84.5t-95 -27.5q-34 0 -59.5 13.5t-43 36.5t-26 55t-8.5 68q0 65 22.5 125t61.5 105.5t92.5 73t115.5 27.5q26 0 47.5 -4.5t38.5 -12.5l44 233h45zM409 437q-14 8 -35.5 14
t-46.5 6q-51 0 -95.5 -24.5t-77 -65t-51 -93t-18.5 -107.5q0 -28 5.5 -53t18 -44.5t32.5 -31t49 -11.5q31 0 59.5 14.5t52.5 41t41.5 64t26.5 84.5zM665 691q-13 -28 -30 -61.5t-34.5 -64.5t-32 -56t-22.5 -35l-34 -5q9 16 21.5 42t25.5 56t25.5 60.5t20.5 53.5z" />
    <glyph glyph-name="Dcroat" unicode="&#x110;" horiz-adv-x="636" 
d="M26 361h88l59 306q39 6 80.5 10t89.5 4q90 0 151 -23t94 -66q32 -42 43 -100t-5 -139q-15 -78 -48.5 -142.5t-88.5 -115.5q-54 -48 -130.5 -74.5t-172.5 -26.5q-38 0 -73 1t-69 5l62 322h-88zM356 322h-203l-55 -283q19 -3 46 -4t57 -1q158 0 252.5 83t123.5 236
q14 65 7 118t-37 91t-83.5 58.5t-131.5 20.5t-119 -10l-52 -270h203z" />
    <glyph glyph-name="dcroat" unicode="&#x111;" horiz-adv-x="489" 
d="M480 578l-81 -429q-7 -37 -12.5 -76.5t-7.5 -72.5h-42q2 24 5.5 49.5t8.5 51.5h-2q-32 -57 -79 -84.5t-95 -27.5q-34 0 -59.5 13.5t-43 36.5t-26 55t-8.5 68q0 65 22.5 125t61.5 105.5t92.5 73t115.5 27.5q26 0 47.5 -4.5t38.5 -12.5l19 102h-121l7 38h121l18 93h45
l-18 -93h76l-7 -38h-76zM409 437q-14 8 -35.5 14t-46.5 6q-51 0 -95.5 -24.5t-77 -65t-51 -93t-18.5 -107.5q0 -28 5.5 -53t18 -44.5t32.5 -31t49 -11.5q31 0 59.5 14.5t52.5 41t41.5 64t26.5 84.5z" />
    <glyph glyph-name="Emacron" unicode="&#x112;" horiz-adv-x="456" 
d="M416 335h-264l-58 -295h295l-7 -40h-342l131 674h327l-8 -40h-280l-51 -259h264zM473 762l-8 -38h-229l8 38h229z" />
    <glyph glyph-name="emacron" unicode="&#x113;" horiz-adv-x="409" 
d="M342 27q-23 -14 -60 -25.5t-82 -11.5q-44 0 -74.5 15t-50.5 41.5t-29 61t-9 73.5q0 54 17.5 109.5t50 100.5t77.5 73.5t99 28.5q58 0 90 -31.5t32 -78.5q0 -45 -23.5 -74t-63.5 -46.5t-94 -24.5t-114 -7h-20q-2 -11 -3.5 -23t-1.5 -28q0 -67 31 -110t94 -43q42 0 74 11
t52 24zM94 267q56 0 104 4.5t83.5 17t56 35t20.5 58.5q0 35 -23 54.5t-60 19.5q-34 0 -63.5 -16t-52.5 -42t-39.5 -60t-25.5 -71zM408 614l-8 -38h-229l8 38h229z" />
    <glyph glyph-name="Ebreve" unicode="&#x114;" horiz-adv-x="456" 
d="M416 335h-264l-58 -295h295l-7 -40h-342l131 674h327l-8 -40h-280l-51 -259h264zM295 837q-1 -30 15.5 -51.5t48.5 -21.5q19 0 34.5 6.5t27 17t19 23.5t11.5 26h36q-10 -51 -47 -82t-88 -31q-32 0 -51.5 10.5t-30 26.5t-12.5 36t2 40h35z" />
    <glyph glyph-name="ebreve" unicode="&#x115;" horiz-adv-x="409" 
d="M342 27q-23 -14 -60 -25.5t-82 -11.5q-44 0 -74.5 15t-50.5 41.5t-29 61t-9 73.5q0 54 17.5 109.5t50 100.5t77.5 73.5t99 28.5q58 0 90 -31.5t32 -78.5q0 -45 -23.5 -74t-63.5 -46.5t-94 -24.5t-114 -7h-20q-2 -11 -3.5 -23t-1.5 -28q0 -67 31 -110t94 -43q42 0 74 11
t52 24zM94 267q56 0 104 4.5t83.5 17t56 35t20.5 58.5q0 35 -23 54.5t-60 19.5q-34 0 -63.5 -16t-52.5 -42t-39.5 -60t-25.5 -71zM236 654q-1 -30 15.5 -51.5t48.5 -21.5q19 0 34.5 6.5t27 17t19 23.5t11.5 26h36q-10 -51 -47 -82t-88 -31q-32 0 -51.5 10.5t-30 26.5
t-12.5 36t2 40h35z" />
    <glyph glyph-name="Edotaccent" unicode="&#x116;" horiz-adv-x="456" 
d="M416 335h-264l-58 -295h295l-7 -40h-342l131 674h327l-8 -40h-280l-51 -259h264zM319 763q3 17 16.5 28.5t30.5 11.5t26 -11.5t6 -28.5t-16.5 -28t-30.5 -11t-26 11t-6 28z" />
    <glyph glyph-name="edotaccent" unicode="&#x117;" horiz-adv-x="409" 
d="M342 27q-23 -14 -60 -25.5t-82 -11.5q-44 0 -74.5 15t-50.5 41.5t-29 61t-9 73.5q0 54 17.5 109.5t50 100.5t77.5 73.5t99 28.5q58 0 90 -31.5t32 -78.5q0 -45 -23.5 -74t-63.5 -46.5t-94 -24.5t-114 -7h-20q-2 -11 -3.5 -23t-1.5 -28q0 -67 31 -110t94 -43q42 0 74 11
t52 24zM94 267q56 0 104 4.5t83.5 17t56 35t20.5 58.5q0 35 -23 54.5t-60 19.5q-34 0 -63.5 -16t-52.5 -42t-39.5 -60t-25.5 -71zM250 580q3 17 16.5 28.5t30.5 11.5t26 -11.5t6 -28.5t-16.5 -28t-30.5 -11t-26 11t-6 28z" />
    <glyph glyph-name="Eogonek" unicode="&#x118;" horiz-adv-x="456" 
d="M416 335h-264l-58 -295h295l-7 -40h-342l131 674h327l-8 -40h-280l-51 -259h264zM277 0q-19 -10 -38.5 -23t-36 -27.5t-28 -31t-14.5 -32.5q-6 -25 6.5 -36.5t29.5 -11.5q11 0 24.5 2t26.5 8l2 -31q-32 -15 -71 -15q-34 0 -52 20t-11 55q3 19 17 39t32.5 37t38 29.5
t33.5 17.5h41z" />
    <glyph glyph-name="eogonek" unicode="&#x119;" horiz-adv-x="409" 
d="M342 27q-18 -11 -41 -20q-19 -10 -37.5 -22.5t-34.5 -26.5t-26.5 -30t-13.5 -32q-6 -25 6.5 -36.5t29.5 -11.5q11 0 24.5 2t26.5 8l2 -31q-32 -15 -71 -15q-34 0 -52 20t-11 55q5 29 31.5 57.5t54.5 47.5q-8 -1 -15 -1.5t-15 -0.5q-44 0 -74.5 15t-50.5 41.5t-29 61
t-9 73.5q0 54 17.5 109.5t50 100.5t77.5 73.5t99 28.5q58 0 90 -31.5t32 -78.5q0 -45 -23.5 -74t-63.5 -46.5t-94 -24.5t-114 -7h-20q-2 -11 -3.5 -23t-1.5 -28q0 -67 31 -110t94 -43q42 0 74 11t52 24zM94 267q56 0 104 4.5t83.5 17t56 35t20.5 58.5q0 35 -23 54.5
t-60 19.5q-34 0 -63.5 -16t-52.5 -42t-39.5 -60t-25.5 -71z" />
    <glyph glyph-name="Ecaron" unicode="&#x11a;" horiz-adv-x="456" 
d="M416 335h-264l-58 -295h295l-7 -40h-342l131 674h327l-8 -40h-280l-51 -259h264zM335 724l-67 137h47l44 -99h2l82 99h44l-117 -137h-35z" />
    <glyph glyph-name="ecaron" unicode="&#x11b;" horiz-adv-x="409" 
d="M342 27q-23 -14 -60 -25.5t-82 -11.5q-44 0 -74.5 15t-50.5 41.5t-29 61t-9 73.5q0 54 17.5 109.5t50 100.5t77.5 73.5t99 28.5q58 0 90 -31.5t32 -78.5q0 -45 -23.5 -74t-63.5 -46.5t-94 -24.5t-114 -7h-20q-2 -11 -3.5 -23t-1.5 -28q0 -67 31 -110t94 -43q42 0 74 11
t52 24zM94 267q56 0 104 4.5t83.5 17t56 35t20.5 58.5q0 35 -23 54.5t-60 19.5q-34 0 -63.5 -16t-52.5 -42t-39.5 -60t-25.5 -71zM266 541l-67 137h47l44 -99h2l82 99h44l-117 -137h-35z" />
    <glyph glyph-name="Gcircumflex" unicode="&#x11c;" horiz-adv-x="610" 
d="M517 29q-28 -11 -79.5 -23.5t-118.5 -12.5q-66 0 -119.5 19t-95.5 68q-34 42 -46.5 106t3.5 148q14 72 49 135.5t88 110.5t122.5 74t152.5 27q54 0 91.5 -10t55.5 -20l-24 -39q-23 12 -54 20t-79 8q-67 0 -125 -21t-103.5 -60.5t-77 -95.5t-45.5 -126q-14 -72 -5 -128.5
t38 -95.5t77 -59t113 -20q51 0 86 6.5t54 15.5l47 239h-153l7 39h200zM439 868l65 -137h-47l-41 99h-2l-82 -99h-45l117 137h35z" />
    <glyph glyph-name="gcircumflex" unicode="&#x11d;" horiz-adv-x="481" 
d="M26 -138q19 -15 50 -24t66 -9q33 0 62 9.5t53 33t43 62t31 97.5l17 79h-2q-32 -60 -79 -85.5t-94 -25.5q-35 0 -60.5 13.5t-42.5 36.5t-25.5 53t-8.5 62q0 62 20 121t57 105.5t90 74.5t118 28q36 0 73.5 -9t61.5 -23l-77 -407q-15 -83 -39.5 -134t-56 -79.5t-68.5 -38.5
t-77 -10q-38 0 -72 9t-54 25zM406 435q-15 8 -40 15t-52 7q-52 0 -94.5 -25t-73 -65.5t-47 -91.5t-16.5 -103q0 -25 5.5 -49.5t18 -43.5t33 -31t50.5 -12q29 0 57 13.5t52.5 41t43.5 68t29 94.5zM357 678l65 -137h-47l-41 99h-2l-82 -99h-45l117 137h35z" />
    <glyph glyph-name="Gbreve" unicode="&#x11e;" horiz-adv-x="610" 
d="M517 29q-28 -11 -79.5 -23.5t-118.5 -12.5q-66 0 -119.5 19t-95.5 68q-34 42 -46.5 106t3.5 148q14 72 49 135.5t88 110.5t122.5 74t152.5 27q54 0 91.5 -10t55.5 -20l-24 -39q-23 12 -54 20t-79 8q-67 0 -125 -21t-103.5 -60.5t-77 -95.5t-45.5 -126q-14 -72 -5 -128.5
t38 -95.5t77 -59t113 -20q51 0 86 6.5t54 15.5l47 239h-153l7 39h200zM340 844q-1 -30 15.5 -51.5t48.5 -21.5q19 0 34.5 6.5t27 17t19 23.5t11.5 26h36q-10 -51 -47 -82t-88 -31q-32 0 -51.5 10.5t-30 26.5t-12.5 36t2 40h35z" />
    <glyph glyph-name="gbreve" unicode="&#x11f;" horiz-adv-x="481" 
d="M26 -138q19 -15 50 -24t66 -9q33 0 62 9.5t53 33t43 62t31 97.5l17 79h-2q-32 -60 -79 -85.5t-94 -25.5q-35 0 -60.5 13.5t-42.5 36.5t-25.5 53t-8.5 62q0 62 20 121t57 105.5t90 74.5t118 28q36 0 73.5 -9t61.5 -23l-77 -407q-15 -83 -39.5 -134t-56 -79.5t-68.5 -38.5
t-77 -10q-38 0 -72 9t-54 25zM406 435q-15 8 -40 15t-52 7q-52 0 -94.5 -25t-73 -65.5t-47 -91.5t-16.5 -103q0 -25 5.5 -49.5t18 -43.5t33 -31t50.5 -12q29 0 57 13.5t52.5 41t43.5 68t29 94.5zM258 654q-1 -30 15.5 -51.5t48.5 -21.5q19 0 34.5 6.5t27 17t19 23.5t11.5 26
h36q-10 -51 -47 -82t-88 -31q-32 0 -51.5 10.5t-30 26.5t-12.5 36t2 40h35z" />
    <glyph glyph-name="Gdotaccent" unicode="&#x120;" horiz-adv-x="610" 
d="M517 29q-28 -11 -79.5 -23.5t-118.5 -12.5q-66 0 -119.5 19t-95.5 68q-34 42 -46.5 106t3.5 148q14 72 49 135.5t88 110.5t122.5 74t152.5 27q54 0 91.5 -10t55.5 -20l-24 -39q-23 12 -54 20t-79 8q-67 0 -125 -21t-103.5 -60.5t-77 -95.5t-45.5 -126q-14 -72 -5 -128.5
t38 -95.5t77 -59t113 -20q51 0 86 6.5t54 15.5l47 239h-153l7 39h200zM364 770q3 17 16.5 28.5t30.5 11.5t26 -11.5t6 -28.5t-16.5 -28t-30.5 -11t-26 11t-6 28z" />
    <glyph glyph-name="gdotaccent" unicode="&#x121;" horiz-adv-x="481" 
d="M26 -138q19 -15 50 -24t66 -9q33 0 62 9.5t53 33t43 62t31 97.5l17 79h-2q-32 -60 -79 -85.5t-94 -25.5q-35 0 -60.5 13.5t-42.5 36.5t-25.5 53t-8.5 62q0 62 20 121t57 105.5t90 74.5t118 28q36 0 73.5 -9t61.5 -23l-77 -407q-15 -83 -39.5 -134t-56 -79.5t-68.5 -38.5
t-77 -10q-38 0 -72 9t-54 25zM406 435q-15 8 -40 15t-52 7q-52 0 -94.5 -25t-73 -65.5t-47 -91.5t-16.5 -103q0 -25 5.5 -49.5t18 -43.5t33 -31t50.5 -12q29 0 57 13.5t52.5 41t43.5 68t29 94.5zM282 580q3 17 16.5 28.5t30.5 11.5t26 -11.5t6 -28.5t-16.5 -28t-30.5 -11
t-26 11t-6 28z" />
    <glyph glyph-name="Gcedilla" unicode="&#x122;" horiz-adv-x="610" 
d="M517 29q-28 -11 -79.5 -23.5t-118.5 -12.5q-66 0 -119.5 19t-95.5 68q-34 42 -46.5 106t3.5 148q14 72 49 135.5t88 110.5t122.5 74t152.5 27q54 0 91.5 -10t55.5 -20l-24 -39q-23 12 -54 20t-79 8q-67 0 -125 -21t-103.5 -60.5t-77 -95.5t-45.5 -126q-14 -72 -5 -128.5
t38 -95.5t77 -59t113 -20q51 0 86 6.5t54 15.5l47 239h-153l7 39h200zM152 -229q9 16 21.5 42t25.5 56t25.5 60.5t20.5 53.5l65 10q-13 -28 -30 -61.5t-34.5 -64.5t-32 -56t-22.5 -35z" />
    <glyph glyph-name="gcedilla" unicode="&#x123;" horiz-adv-x="481" 
d="M26 -138q19 -15 50 -24t66 -9q33 0 62 9.5t53 33t43 62t31 97.5l17 79h-2q-32 -60 -79 -85.5t-94 -25.5q-35 0 -60.5 13.5t-42.5 36.5t-25.5 53t-8.5 62q0 62 20 121t57 105.5t90 74.5t118 28q36 0 73.5 -9t61.5 -23l-77 -407q-15 -83 -39.5 -134t-56 -79.5t-68.5 -38.5
t-77 -10q-38 0 -72 9t-54 25zM406 435q-15 8 -40 15t-52 7q-52 0 -94.5 -25t-73 -65.5t-47 -91.5t-16.5 -103q0 -25 5.5 -49.5t18 -43.5t33 -31t50.5 -12q29 0 57 13.5t52.5 41t43.5 68t29 94.5zM259 541q12 28 29 61.5t34 64t32.5 55.5t23.5 36l34 5q-9 -16 -22 -42.5
t-26.5 -56.5t-25.5 -60t-19 -53z" />
    <glyph glyph-name="Hcircumflex" unicode="&#x124;" horiz-adv-x="616" 
d="M218 674l-58 -297h362l58 297h47l-131 -674h-47l65 337h-362l-65 -337h-47l131 674h47zM451 861l65 -137h-47l-41 99h-2l-82 -99h-45l117 137h35z" />
    <glyph glyph-name="hcircumflex" unicode="&#x125;" horiz-adv-x="525" 
d="M176 709h47l-61 -313h2q32 45 76.5 70t101.5 25q16 0 42.5 -6.5t48.5 -27.5t33.5 -60t-1.5 -104l-56 -293h-47l55 287q7 32 6.5 61.5t-11.5 52t-33 36t-58 13.5q-51 0 -94.5 -31.5t-67.5 -76.5q-5 -10 -9.5 -21.5t-6.5 -25.5l-57 -295h-47zM414 896l65 -137h-47l-41 99
h-2l-82 -99h-45l117 137h35z" />
    <glyph glyph-name="Hbar" unicode="&#x126;" horiz-adv-x="616" 
d="M78 539l8 38h66l19 97h47l-19 -97h362l19 97h47l-19 -97h60l-8 -38h-60l-104 -539h-47l65 337h-362l-65 -337h-47l104 539h-66zM522 377l31 162h-362l-31 -162h362z" />
    <glyph glyph-name="hbar" unicode="&#x127;" horiz-adv-x="525" 
d="M77 578l7 38h74l18 93h47l-18 -93h121l-7 -38h-121l-36 -182h2q32 45 76.5 70t101.5 25q16 0 42.5 -6.5t48.5 -27.5t33.5 -60t-1.5 -104l-56 -293h-47l55 287q7 32 6.5 61.5t-11.5 52t-33 36t-58 13.5q-51 0 -94.5 -31.5t-67.5 -76.5q-5 -10 -9.5 -21.5t-6.5 -25.5
l-57 -295h-47l112 578h-74z" />
    <glyph glyph-name="Itilde" unicode="&#x128;" horiz-adv-x="208" 
d="M218 674l-131 -674h-47l131 674h47zM93 724q5 33 25 58t49 25q16 0 28 -6t29 -16q11 -6 20.5 -11t23.5 -5q11 0 18.5 8.5t14.5 32.5h30q-7 -35 -25.5 -57.5t-49.5 -22.5q-14 0 -26.5 6t-25.5 15q-13 8 -22.5 13t-20.5 5q-13 0 -21.5 -12.5t-14.5 -32.5h-32z" />
    <glyph glyph-name="itilde" unicode="&#x129;" horiz-adv-x="206" 
d="M39 0l93 480h47l-93 -480h-47zM54 530q5 33 25 58t49 25q16 0 28 -6t29 -16q11 -6 20.5 -11t23.5 -5q11 0 18.5 8.5t14.5 32.5h30q-7 -35 -25.5 -57.5t-49.5 -22.5q-14 0 -26.5 6t-25.5 15q-13 8 -22.5 13t-20.5 5q-13 0 -21.5 -12.5t-14.5 -32.5h-32z" />
    <glyph glyph-name="Imacron" unicode="&#x12a;" horiz-adv-x="208" 
d="M218 674l-131 -674h-47l131 674h47zM325 762l-8 -38h-229l8 38h229z" />
    <glyph glyph-name="imacron" unicode="&#x12b;" horiz-adv-x="206" 
d="M39 0l93 480h47l-93 -480h-47zM295 614l-8 -38h-229l8 38h229z" />
    <glyph glyph-name="Ibreve" unicode="&#x12c;" horiz-adv-x="208" 
d="M218 674l-131 -674h-47l131 674h47zM147 837q-1 -30 15.5 -51.5t48.5 -21.5q19 0 34.5 6.5t27 17t19.5 23.5t12 26h36q-10 -51 -47.5 -82t-88.5 -31q-32 0 -51.5 10.5t-30 26.5t-12.5 36t2 40h35z" />
    <glyph glyph-name="ibreve" unicode="&#x12d;" horiz-adv-x="206" 
d="M39 0l93 480h47l-93 -480h-47zM108 643q-1 -30 15.5 -51.5t48.5 -21.5q19 0 34.5 6.5t27 17t19.5 23.5t12 26h36q-10 -51 -47.5 -82t-88.5 -31q-32 0 -51.5 10.5t-30 26.5t-12.5 36t2 40h35z" />
    <glyph glyph-name="Iogonek" unicode="&#x12e;" horiz-adv-x="208" 
d="M218 674l-131 -674h-47l131 674h47zM129 0q-19 -10 -38.5 -23t-36 -27.5t-28 -31t-14.5 -32.5q-6 -25 6.5 -36.5t29.5 -11.5q11 0 24.5 2t26.5 8l2 -31q-32 -15 -71 -15q-34 0 -52 20t-11 55q3 19 17 39t32.5 37t38 29.5t33.5 17.5h41z" />
    <glyph glyph-name="iogonek" unicode="&#x12f;" horiz-adv-x="206" 
d="M143 626q3 17 17 29t31 12t26.5 -12t6.5 -29t-17.5 -28.5t-31.5 -11.5t-26 11.5t-6 28.5zM39 0l93 480h47l-93 -480h-47zM85 3q-19 -10 -38.5 -23t-36 -27.5t-28 -31t-14.5 -32.5q-6 -25 6.5 -36.5t29.5 -11.5q11 0 24.5 2t26.5 8l2 -31q-32 -15 -71 -15q-34 0 -52 20
t-11 55q3 19 17 39t32.5 37t38 29.5t33.5 17.5h41z" />
    <glyph glyph-name="Idotaccent" unicode="&#x130;" horiz-adv-x="208" 
d="M218 674l-131 -674h-47l131 674h47zM172 763q3 17 16.5 28.5t30.5 11.5t26 -11.5t6 -28.5t-16.5 -28t-30.5 -11t-26 11t-6 28z" />
    <glyph glyph-name="dotlessi" unicode="&#x131;" horiz-adv-x="206" 
d="M39 0l93 480h47l-93 -480h-47z" />
    <glyph glyph-name="IJ" unicode="&#x132;" horiz-adv-x="546" 
d="M218 674l-131 -674h-47l131 674h47zM517 674h47l-91 -468q-13 -63 -35.5 -105t-51.5 -67t-63.5 -35t-70.5 -10q-23 0 -44 4.5t-33 10.5l18 39q11 -5 27.5 -9t38.5 -4q31 0 57.5 8.5t47.5 29.5t37 57t26 91z" />
    <glyph glyph-name="ij" unicode="&#x133;" horiz-adv-x="417" 
d="M143 626q3 17 17 29t31 12t26.5 -12t6.5 -29t-17.5 -28.5t-31.5 -11.5t-26 11.5t-6 28.5zM39 0l93 480h47l-93 -480h-47zM86 -170q31 2 58 11.5t46 29.5q12 11 21.5 25t18 35.5t16.5 53.5t17 79l81 416h48l-87 -447q-13 -66 -31.5 -111t-56.5 -79q-15 -14 -33 -23.5
t-36 -15.5t-34.5 -9t-28.5 -3zM355 626q3 17 17 29t31 12t26.5 -12t6.5 -29t-17.5 -28.5t-31.5 -11.5t-26 11.5t-6 28.5z" />
    <glyph glyph-name="Jcircumflex" unicode="&#x134;" horiz-adv-x="338" 
d="M309 674h47l-91 -468q-13 -63 -35.5 -105t-51.5 -67t-63.5 -35t-70.5 -10q-23 0 -44 4.5t-33 10.5l18 39q11 -5 27.5 -9t38.5 -4q31 0 57.5 8.5t47.5 29.5t37 57t26 91zM378 861l66 -137h-48l-41 99h-2l-82 -99h-45l117 137h35z" />
    <glyph glyph-name="jcircumflex" unicode="&#x135;" horiz-adv-x="211" 
d="M-120 -170q31 2 58 11.5t46 29.5q12 11 21.5 25t18 35.5t16.5 53.5t17 79l81 416h48l-87 -447q-13 -66 -31.5 -111t-56.5 -79q-15 -14 -33 -23.5t-36 -15.5t-34.5 -9t-28.5 -3zM214 667l66 -137h-48l-41 99h-2l-82 -99h-45l117 137h35z" />
    <glyph glyph-name="Kcedilla" unicode="&#x136;" horiz-adv-x="489" 
d="M171 674h47l-67 -341h4q18 20 36 37.5t35 33.5l285 270h58l-307 -286l199 -388h-57l-180 355l-83 -76l-54 -279h-47zM149 -222q9 16 21.5 42t25.5 56t25.5 60.5t20.5 53.5l65 10q-13 -28 -30 -61.5t-34.5 -64.5t-32 -56t-22.5 -35z" />
    <glyph glyph-name="kcedilla" unicode="&#x137;" horiz-adv-x="416" 
d="M134 249h2q11 11 26.5 26t28.5 26l201 179h58l-229 -199l162 -281h-58l-143 251l-58 -51l-38 -200h-47l137 709h47zM110 -222q9 16 21.5 42t25.5 56t25.5 60.5t20.5 53.5l65 10q-13 -28 -30 -61.5t-34.5 -64.5t-32 -56t-22.5 -35z" />
    <glyph glyph-name="kgreenlandic" unicode="&#x138;" horiz-adv-x="416" 
d="M134 249h2q11 11 26.5 26t28.5 26l201 179h58l-229 -199l162 -281h-58l-143 251l-58 -51l-38 -200h-47l93 480h47z" />
    <glyph glyph-name="Lacute" unicode="&#x139;" horiz-adv-x="440" 
d="M171 674h47l-124 -634h294l-7 -40h-341zM455 861l-148 -137h-36l115 137h69z" />
    <glyph glyph-name="lacute" unicode="&#x13a;" horiz-adv-x="206" 
d="M176 709h47l-137 -709h-47zM344 896l-148 -137h-36l115 137h69z" />
    <glyph glyph-name="Lcedilla" unicode="&#x13b;" horiz-adv-x="440" 
d="M171 674h47l-124 -634h294l-7 -40h-341zM109 -222q9 16 21.5 42t25.5 56t25.5 60.5t20.5 53.5l65 10q-13 -28 -30 -61.5t-34.5 -64.5t-32 -56t-22.5 -35z" />
    <glyph glyph-name="lcedilla" unicode="&#x13c;" horiz-adv-x="206" 
d="M176 709h47l-137 -709h-47zM-39 -222q9 16 21.5 42t25.5 56t25.5 60.5t20.5 53.5l65 10q-13 -28 -30 -61.5t-34.5 -64.5t-32 -56t-22.5 -35z" />
    <glyph glyph-name="Lcaron" unicode="&#x13d;" horiz-adv-x="440" 
d="M171 674h47l-124 -634h294l-7 -40h-341zM289 438q9 16 21.5 42t25.5 56t25.5 60.5t20.5 53.5l65 10q-13 -28 -30 -61.5t-34.5 -64.5t-32 -56t-22.5 -35z" />
    <glyph glyph-name="lcaron" unicode="&#x13e;" horiz-adv-x="216" 
d="M176 709h47l-137 -709h-47zM382 691q-13 -28 -30 -61.5t-34.5 -64.5t-32 -56t-22.5 -35l-34 -5q9 16 21.5 42t25.5 56t25.5 60.5t20.5 53.5z" />
    <glyph glyph-name="Ldot" unicode="&#x13f;" horiz-adv-x="440" 
d="M171 674h47l-124 -634h294l-7 -40h-341zM323 361q-18 0 -26.5 13t-5.5 32q4 19 18 32t32 13t26.5 -13t4.5 -32q-3 -20 -17 -32.5t-32 -12.5z" />
    <glyph glyph-name="ldot" unicode="&#x140;" horiz-adv-x="327" 
d="M176 709h47l-137 -709h-47zM283 361q-18 0 -26.5 13t-5.5 32q4 19 18 32t32 13t26.5 -13t4.5 -32q-3 -20 -17 -32.5t-32 -12.5z" />
    <glyph glyph-name="Lslash" unicode="&#x141;" horiz-adv-x="443" 
d="M43 0l56 289l-102 -68l9 44l101 68l67 341h47l-60 -306l157 105l-8 -45l-158 -105l-55 -283h294l-7 -40h-341z" />
    <glyph glyph-name="lslash" unicode="&#x142;" horiz-adv-x="211" 
d="M42 0l62 324l-82 -64l9 45l82 64l66 340h47l-58 -300l85 65l-9 -46l-85 -65l-70 -363h-47z" />
    <glyph glyph-name="Nacute" unicode="&#x143;" horiz-adv-x="624" 
d="M40 0l131 674h45l178 -395q27 -63 47.5 -113.5t34.5 -101.5l2 1q4 35 9 67.5t10.5 65.5t12 68t14.5 75l65 333h46l-131 -674h-44l-175 390q-25 60 -47 113t-38 107l-2 -1q-4 -32 -9 -62.5t-11 -62.5t-12.5 -68t-14.5 -79l-65 -337h-46zM517 861l-148 -137h-36l115 137h69
z" />
    <glyph glyph-name="nacute" unicode="&#x144;" horiz-adv-x="525" 
d="M109 365q7 34 11 60t8 55h46l-17 -85h4q27 40 74.5 68t105.5 28q16 0 42.5 -6.5t49 -27.5t34 -60.5t-1.5 -105.5l-56 -291h-47l55 286q6 32 5.5 62t-11 52.5t-32.5 36t-59 13.5q-50 0 -94 -31t-67 -79q-5 -10 -9.5 -20.5t-6.5 -21.5l-57 -298h-47zM462 678l-148 -137h-36
l115 137h69z" />
    <glyph glyph-name="Ncedilla" unicode="&#x145;" horiz-adv-x="624" 
d="M40 0l131 674h45l178 -395q27 -63 47.5 -113.5t34.5 -101.5l2 1q4 35 9 67.5t10.5 65.5t12 68t14.5 75l65 333h46l-131 -674h-44l-175 390q-25 60 -47 113t-38 107l-2 -1q-4 -32 -9 -62.5t-11 -62.5t-12.5 -68t-14.5 -79l-65 -337h-46zM171 -222q9 16 21.5 42t25.5 56
t25.5 60.5t20.5 53.5l65 10q-13 -28 -30 -61.5t-34.5 -64.5t-32 -56t-22.5 -35z" />
    <glyph glyph-name="ncedilla" unicode="&#x146;" horiz-adv-x="525" 
d="M109 365q7 34 11 60t8 55h46l-17 -85h4q27 40 74.5 68t105.5 28q16 0 42.5 -6.5t49 -27.5t34 -60.5t-1.5 -105.5l-56 -291h-47l55 286q6 32 5.5 62t-11 52.5t-32.5 36t-59 13.5q-50 0 -94 -31t-67 -79q-5 -10 -9.5 -20.5t-6.5 -21.5l-57 -298h-47zM121 -222q9 16 21.5 42
t25.5 56t25.5 60.5t20.5 53.5l65 10q-13 -28 -30 -61.5t-34.5 -64.5t-32 -56t-22.5 -35z" />
    <glyph glyph-name="Ncaron" unicode="&#x147;" horiz-adv-x="624" 
d="M40 0l131 674h45l178 -395q27 -63 47.5 -113.5t34.5 -101.5l2 1q4 35 9 67.5t10.5 65.5t12 68t14.5 75l65 333h46l-131 -674h-44l-175 390q-25 60 -47 113t-38 107l-2 -1q-4 -32 -9 -62.5t-11 -62.5t-12.5 -68t-14.5 -79l-65 -337h-46zM396 724l-67 137h47l44 -99h2
l82 99h44l-117 -137h-35z" />
    <glyph glyph-name="ncaron" unicode="&#x148;" horiz-adv-x="525" 
d="M109 365q7 34 11 60t8 55h46l-17 -85h4q27 40 74.5 68t105.5 28q16 0 42.5 -6.5t49 -27.5t34 -60.5t-1.5 -105.5l-56 -291h-47l55 286q6 32 5.5 62t-11 52.5t-32.5 36t-59 13.5q-50 0 -94 -31t-67 -79q-5 -10 -9.5 -20.5t-6.5 -21.5l-57 -298h-47zM311 541l-67 137h47
l44 -99h2l82 99h44l-117 -137h-35z" />
    <glyph glyph-name="napostrophe" unicode="&#x149;" horiz-adv-x="525" 
d="M170 691q-13 -28 -30 -61.5t-34.5 -64.5t-32 -56t-22.5 -35l-34 -5q9 16 21.5 42t25.5 56t25.5 60.5t20.5 53.5zM109 365q7 34 11 60t8 55h46l-17 -85h4q27 40 74.5 68t105.5 28q16 0 42.5 -6.5t49 -27.5t34 -60.5t-1.5 -105.5l-56 -291h-47l55 286q6 32 5.5 62t-11 52.5
t-32.5 36t-59 13.5q-50 0 -94 -31t-67 -79q-5 -10 -9.5 -20.5t-6.5 -21.5l-57 -298h-47z" />
    <glyph glyph-name="Eng" unicode="&#x14a;" horiz-adv-x="624" 
d="M290 -170q31 2 58.5 11.5t46.5 29.5q9 9 16.5 18.5t14 22.5t12.5 31t13 42l6 21l-172 384q-25 60 -47 113t-38 107l-2 -1q-6 -48 -13.5 -93.5t-18.5 -99.5l-80 -416h-46l131 674h45l178 -395q27 -63 47.5 -113.5t34.5 -101.5l2 1q4 35 9 67.5t10.5 65.5t12 68t14.5 75
l65 333h46l-125 -641l-4 -20l-2 -13h-1q-5 -23 -11.5 -42t-13.5 -36q-17 -43 -56 -79q-16 -14 -34.5 -23.5t-36.5 -15.5t-34 -9t-28 -3z" />
    <glyph glyph-name="eng" unicode="&#x14b;" horiz-adv-x="525" 
d="M195 -170q31 2 58.5 11.5t46.5 29.5q12 10 21.5 24t18 36t17 54t17.5 79l43 222q6 32 5.5 62t-11 52.5t-32.5 36t-59 13.5q-50 0 -94 -31t-67 -79q-5 -10 -9.5 -20.5t-6.5 -21.5l-57 -298h-47l70 365q7 34 11 60t8 55h46l-17 -85h4q27 40 74.5 68t105.5 28
q16 0 42.5 -6.5t49 -27.5t34 -60.5t-1.5 -105.5l-50 -258l-4 -20l-2 -13h-1q-5 -23 -11.5 -42t-13.5 -36q-17 -43 -56 -79q-16 -14 -34.5 -23.5t-36.5 -15.5t-34 -9t-28 -3z" />
    <glyph glyph-name="Omacron" unicode="&#x14c;" horiz-adv-x="654" 
d="M281 -11q-60 0 -108 23.5t-78 67.5t-40 107.5t6 143.5q16 83 51.5 149t84.5 111.5t107.5 69.5t120.5 24q61 0 109 -24t77.5 -68t38.5 -107.5t-7 -142.5q-17 -89 -54.5 -155.5t-87 -110.5t-106.5 -66t-114 -22zM290 29q59 0 109 25.5t89 68.5t66 99t39 118q10 53 6 107.5
t-25 98.5t-61 71.5t-101 27.5q-62 0 -113 -27t-89 -71t-63.5 -100.5t-36.5 -114.5q-11 -56 -6 -110.5t27 -97.5t61.5 -69t97.5 -26zM551 773l-8 -38h-229l8 38h229z" />
    <glyph glyph-name="omacron" unicode="&#x14d;" horiz-adv-x="520" 
d="M317 491q48 0 84.5 -17.5t59 -50t29.5 -78t-4 -101.5q-13 -68 -42.5 -116t-68 -79t-81 -45.5t-81.5 -14.5q-45 0 -81 17t-58.5 49.5t-30.5 78t3 102.5q12 62 39.5 109.5t64.5 80t80.5 49t86.5 16.5zM308 451q-45 0 -81 -19t-63.5 -49t-45 -68t-24.5 -76q-9 -45 -4 -83.5
t22 -66.5t45 -44t66 -16q37 0 72 16t63.5 44t49 67t30.5 86q6 33 3.5 69.5t-16.5 67.5t-42.5 51.5t-74.5 20.5zM455 614l-8 -38h-229l8 38h229z" />
    <glyph glyph-name="Obreve" unicode="&#x14e;" horiz-adv-x="654" 
d="M281 -11q-60 0 -108 23.5t-78 67.5t-40 107.5t6 143.5q16 83 51.5 149t84.5 111.5t107.5 69.5t120.5 24q61 0 109 -24t77.5 -68t38.5 -107.5t-7 -142.5q-17 -89 -54.5 -155.5t-87 -110.5t-106.5 -66t-114 -22zM290 29q59 0 109 25.5t89 68.5t66 99t39 118q10 53 6 107.5
t-25 98.5t-61 71.5t-101 27.5q-62 0 -113 -27t-89 -71t-63.5 -100.5t-36.5 -114.5q-11 -56 -6 -110.5t27 -97.5t61.5 -69t97.5 -26zM373 848q-1 -30 15.5 -51.5t48.5 -21.5q19 0 34.5 6.5t27 17t19 23.5t11.5 26h36q-10 -51 -47 -82t-88 -31q-32 0 -51.5 10.5t-30 26.5
t-12.5 36t2 40h35z" />
    <glyph glyph-name="obreve" unicode="&#x14f;" horiz-adv-x="520" 
d="M317 491q48 0 84.5 -17.5t59 -50t29.5 -78t-4 -101.5q-13 -68 -42.5 -116t-68 -79t-81 -45.5t-81.5 -14.5q-45 0 -81 17t-58.5 49.5t-30.5 78t3 102.5q12 62 39.5 109.5t64.5 80t80.5 49t86.5 16.5zM308 451q-45 0 -81 -19t-63.5 -49t-45 -68t-24.5 -76q-9 -45 -4 -83.5
t22 -66.5t45 -44t66 -16q37 0 72 16t63.5 44t49 67t30.5 86q6 33 3.5 69.5t-16.5 67.5t-42.5 51.5t-74.5 20.5zM269 654q-1 -30 15.5 -51.5t48.5 -21.5q19 0 34.5 6.5t27 17t19 23.5t11.5 26h36q-10 -51 -47 -82t-88 -31q-32 0 -51.5 10.5t-30 26.5t-12.5 36t2 40h35z" />
    <glyph glyph-name="Ohungarumlaut" unicode="&#x150;" horiz-adv-x="654" 
d="M281 -11q-60 0 -108 23.5t-78 67.5t-40 107.5t6 143.5q16 83 51.5 149t84.5 111.5t107.5 69.5t120.5 24q61 0 109 -24t77.5 -68t38.5 -107.5t-7 -142.5q-17 -89 -54.5 -155.5t-87 -110.5t-106.5 -66t-114 -22zM290 29q59 0 109 25.5t89 68.5t66 99t39 118q10 53 6 107.5
t-25 98.5t-61 71.5t-101 27.5q-62 0 -113 -27t-89 -71t-63.5 -100.5t-36.5 -114.5q-11 -56 -6 -110.5t27 -97.5t61.5 -69t97.5 -26zM469 864l-142 -129h-36l113 129h65zM593 864l-141 -129h-35l112 129h64z" />
    <glyph glyph-name="ohungarumlaut" unicode="&#x151;" horiz-adv-x="520" 
d="M317 491q48 0 84.5 -17.5t59 -50t29.5 -78t-4 -101.5q-13 -68 -42.5 -116t-68 -79t-81 -45.5t-81.5 -14.5q-45 0 -81 17t-58.5 49.5t-30.5 78t3 102.5q12 62 39.5 109.5t64.5 80t80.5 49t86.5 16.5zM308 451q-45 0 -81 -19t-63.5 -49t-45 -68t-24.5 -76q-9 -45 -4 -83.5
t22 -66.5t45 -44t66 -16q37 0 72 16t63.5 44t49 67t30.5 86q6 33 3.5 69.5t-16.5 67.5t-42.5 51.5t-74.5 20.5zM364 670l-142 -129h-36l113 129h65zM488 670l-141 -129h-35l112 129h64z" />
    <glyph glyph-name="OE" unicode="&#x152;" horiz-adv-x="849" 
d="M774 0h-317q-34 -2 -68 -6q-19 -2 -39 -3.5t-43 -1.5q-72 0 -125 25.5t-84.5 71.5t-41 109t4.5 137q17 85 54 151t88.5 111t114.5 68t132 23q25 0 44.5 -1.5t37.5 -3.5q34 -4 62 -6h295l-8 -40h-279l-51 -260h264l-8 -40h-264l-57 -294h295zM554 630q-21 6 -47.5 10.5
t-68.5 4.5q-65 0 -119 -23t-95.5 -64.5t-70 -98t-41.5 -123.5q-14 -71 -6.5 -127.5t35 -96.5t74 -61.5t110.5 -21.5q32 0 63 3.5t52 10.5z" />
    <glyph glyph-name="oe" unicode="&#x153;" horiz-adv-x="841" 
d="M312 491q66 0 109 -34t50 -97h2q39 66 91 98.5t112 32.5q56 0 86.5 -24t43 -58t12.5 -70.5t-5 -61.5l-3.5 -17.5t-3.5 -14.5l-332 1q-22 -108 16 -161.5t116 -53.5q45 0 74.5 9t52.5 18l7 -37q-26 -14 -66 -22.5t-82 -8.5q-67 0 -111 32t-57 98h-2q-19 -34 -44 -58.5
t-52.5 -40.5t-57 -23.5t-57.5 -7.5q-45 0 -81 17.5t-58.5 49.5t-29.5 77.5t5 102.5q11 60 37.5 107t62.5 80t78.5 50t86.5 17zM302 452q-47 0 -82.5 -20.5t-61 -52t-41.5 -69t-23 -71.5q-8 -44 -3 -82t21.5 -66.5t44 -45t63.5 -16.5q37 0 70.5 16t61 44t47 67t28.5 85
q8 37 6 75t-16.5 68t-43 49t-71.5 19zM765 284q6 26 5.5 55.5t-11 54.5t-34 41.5t-62.5 16.5q-38 0 -68 -15.5t-52.5 -40t-38 -54.5t-23.5 -58h284z" />
    <glyph glyph-name="Racute" unicode="&#x154;" horiz-adv-x="496" 
d="M169 665q31 7 70.5 10.5t73.5 3.5q66 0 105.5 -14t62.5 -42q18 -21 24 -53t-1 -67q-13 -69 -57 -112.5t-107 -63.5v-2q38 -13 56 -50t18 -95q2 -79 5 -120t11 -60h-50q-6 15 -8 57.5t-3 106.5q-1 75 -28 108.5t-93 36.5h-101l-60 -309h-47zM154 347h103q78 0 131.5 39.5
t66.5 108.5q14 76 -28.5 110.5t-121.5 34.5q-33 0 -57.5 -3t-38.5 -6zM481 866l-148 -137h-36l115 137h69z" />
    <glyph glyph-name="racute" unicode="&#x155;" horiz-adv-x="290" 
d="M105 338q7 35 13 71.5t11 70.5h45l-19 -96h3q25 45 66 76t90 31q4 0 8.5 -0.5t9.5 -1.5l-9 -46q-6 1 -11 1h-12q-24 0 -47 -10t-42.5 -28t-35 -42.5t-25.5 -52.5q-4 -11 -7.5 -22.5t-5.5 -22.5l-51 -266h-47zM346 678l-148 -137h-36l115 137h69z" />
    <glyph glyph-name="Rcedilla" unicode="&#x156;" horiz-adv-x="496" 
d="M169 665q31 7 70.5 10.5t73.5 3.5q66 0 105.5 -14t62.5 -42q18 -21 24 -53t-1 -67q-13 -69 -57 -112.5t-107 -63.5v-2q38 -13 56 -50t18 -95q2 -79 5 -120t11 -60h-50q-6 15 -8 57.5t-3 106.5q-1 75 -28 108.5t-93 36.5h-101l-60 -309h-47zM154 347h103q78 0 131.5 39.5
t66.5 108.5q14 76 -28.5 110.5t-121.5 34.5q-33 0 -57.5 -3t-38.5 -6zM134 -222q9 16 21.5 42t25.5 56t25.5 60.5t20.5 53.5l65 10q-13 -28 -30 -61.5t-34.5 -64.5t-32 -56t-22.5 -35z" />
    <glyph glyph-name="rcedilla" unicode="&#x157;" horiz-adv-x="290" 
d="M105 338q7 35 13 71.5t11 70.5h45l-19 -96h3q25 45 66 76t90 31q4 0 8.5 -0.5t9.5 -1.5l-9 -46q-6 1 -11 1h-12q-24 0 -47 -10t-42.5 -28t-35 -42.5t-25.5 -52.5q-4 -11 -7.5 -22.5t-5.5 -22.5l-51 -266h-47zM-25 -222q9 16 21.5 42t25.5 56t25.5 60.5t20.5 53.5l65 10
q-13 -28 -30 -61.5t-34.5 -64.5t-32 -56t-22.5 -35z" />
    <glyph glyph-name="Rcaron" unicode="&#x158;" horiz-adv-x="496" 
d="M169 665q31 7 70.5 10.5t73.5 3.5q66 0 105.5 -14t62.5 -42q18 -21 24 -53t-1 -67q-13 -69 -57 -112.5t-107 -63.5v-2q38 -13 56 -50t18 -95q2 -79 5 -120t11 -60h-50q-6 15 -8 57.5t-3 106.5q-1 75 -28 108.5t-93 36.5h-101l-60 -309h-47zM154 347h103q78 0 131.5 39.5
t66.5 108.5q14 76 -28.5 110.5t-121.5 34.5q-33 0 -57.5 -3t-38.5 -6zM360 729l-67 137h47l44 -99h2l82 99h44l-117 -137h-35z" />
    <glyph glyph-name="rcaron" unicode="&#x159;" horiz-adv-x="290" 
d="M105 338q7 35 13 71.5t11 70.5h45l-19 -96h3q25 45 66 76t90 31q4 0 8.5 -0.5t9.5 -1.5l-9 -46q-6 1 -11 1h-12q-24 0 -47 -10t-42.5 -28t-35 -42.5t-25.5 -52.5q-4 -11 -7.5 -22.5t-5.5 -22.5l-51 -266h-47zM225 541l-67 137h47l44 -99h2l82 99h44l-117 -137h-35z" />
    <glyph glyph-name="Sacute" unicode="&#x15a;" horiz-adv-x="455" 
d="M33 74q24 -20 58.5 -32t76.5 -12q75 0 125 38.5t63 101.5q11 57 -13.5 93t-90.5 65q-72 28 -109.5 72t-24.5 114q8 37 28.5 68.5t50.5 54t67.5 35t79.5 12.5q48 0 79.5 -10t45.5 -21l-25 -40q-12 10 -40 20.5t-70 10.5q-41 0 -70.5 -11.5t-49.5 -29.5t-31.5 -39.5
t-15.5 -41.5q-11 -56 15.5 -89.5t92.5 -61.5q37 -17 64.5 -36t44 -42t21.5 -52t-2 -66q-8 -37 -28 -70.5t-51 -59t-73 -40.5t-94 -15q-43 0 -85.5 12.5t-64.5 31.5zM432 871l-148 -137h-36l115 137h69z" />
    <glyph glyph-name="sacute" unicode="&#x15b;" horiz-adv-x="366" 
d="M32 63q16 -12 41 -22.5t57 -10.5q57 0 89 26.5t39 64.5q8 39 -11 63.5t-67 45.5q-54 23 -78.5 54.5t-15.5 76.5q5 26 19.5 49.5t37 41.5t51.5 28.5t63 10.5q32 0 57 -9t41 -21l-26 -39q-11 9 -31.5 19t-55.5 10q-45 0 -73.5 -25t-34.5 -58q-7 -37 13 -57.5t65 -40.5
q54 -23 79.5 -55.5t14.5 -87.5q-12 -63 -63 -100t-123 -37q-35 0 -64.5 9t-49.5 24zM402 678l-148 -137h-36l115 137h69z" />
    <glyph glyph-name="Scircumflex" unicode="&#x15c;" horiz-adv-x="455" 
d="M33 74q24 -20 58.5 -32t76.5 -12q75 0 125 38.5t63 101.5q11 57 -13.5 93t-90.5 65q-72 28 -109.5 72t-24.5 114q8 37 28.5 68.5t50.5 54t67.5 35t79.5 12.5q48 0 79.5 -10t45.5 -21l-25 -40q-12 10 -40 20.5t-70 10.5q-41 0 -70.5 -11.5t-49.5 -29.5t-31.5 -39.5
t-15.5 -41.5q-11 -56 15.5 -89.5t92.5 -61.5q37 -17 64.5 -36t44 -42t21.5 -52t-2 -66q-8 -37 -28 -70.5t-51 -59t-73 -40.5t-94 -15q-43 0 -85.5 12.5t-64.5 31.5zM370 871l65 -137h-47l-41 99h-2l-82 -99h-45l117 137h35z" />
    <glyph glyph-name="scircumflex" unicode="&#x15d;" horiz-adv-x="366" 
d="M32 63q16 -12 41 -22.5t57 -10.5q57 0 89 26.5t39 64.5q8 39 -11 63.5t-67 45.5q-54 23 -78.5 54.5t-15.5 76.5q5 26 19.5 49.5t37 41.5t51.5 28.5t63 10.5q32 0 57 -9t41 -21l-26 -39q-11 9 -31.5 19t-55.5 10q-45 0 -73.5 -25t-34.5 -58q-7 -37 13 -57.5t65 -40.5
q54 -23 79.5 -55.5t14.5 -87.5q-12 -63 -63 -100t-123 -37q-35 0 -64.5 9t-49.5 24zM290 678l65 -137h-47l-41 99h-2l-82 -99h-45l117 137h35z" />
    <glyph glyph-name="Scedilla" unicode="&#x15e;" horiz-adv-x="455" 
d="M33 74q24 -20 58.5 -32t76.5 -12q75 0 125 38.5t63 101.5q11 57 -13.5 93t-90.5 65q-72 28 -109.5 72t-24.5 114q8 37 28.5 68.5t50.5 54t67.5 35t79.5 12.5q48 0 79.5 -10t45.5 -21l-25 -40q-12 10 -40 20.5t-70 10.5q-41 0 -70.5 -11.5t-49.5 -29.5t-31.5 -39.5
t-15.5 -41.5q-11 -56 15.5 -89.5t92.5 -61.5q37 -17 64.5 -36t44 -42t21.5 -52t-2 -66q-8 -37 -28 -70.5t-51 -59t-73 -40.5t-94 -15q-43 0 -85.5 12.5t-64.5 31.5zM227 -10l-47 -56q26 -4 43 -21.5t12 -45.5q-8 -41 -39.5 -59t-68.5 -18q-14 0 -30 4.5t-27 11.5l19 34
q19 -13 51 -13q18 0 33.5 7.5t19.5 27.5q3 23 -17 32.5t-51 12.5l65 83h37z" />
    <glyph glyph-name="scedilla" unicode="&#x15f;" horiz-adv-x="366" 
d="M32 63q16 -12 41 -22.5t57 -10.5q57 0 89 26.5t39 64.5q8 39 -11 63.5t-67 45.5q-54 23 -78.5 54.5t-15.5 76.5q5 26 19.5 49.5t37 41.5t51.5 28.5t63 10.5q32 0 57 -9t41 -21l-26 -39q-11 9 -31.5 19t-55.5 10q-45 0 -73.5 -25t-34.5 -58q-7 -37 13 -57.5t65 -40.5
q54 -23 79.5 -55.5t14.5 -87.5q-12 -63 -63 -100t-123 -37q-35 0 -64.5 9t-49.5 24zM184 -10l-47 -56q26 -4 43 -21.5t12 -45.5q-8 -41 -39.5 -59t-68.5 -18q-14 0 -30 4.5t-27 11.5l19 34q19 -13 51 -13q18 0 33.5 7.5t19.5 27.5q3 23 -17 32.5t-51 12.5l65 83h37z" />
    <glyph glyph-name="Scaron" unicode="&#x160;" horiz-adv-x="455" 
d="M33 74q24 -20 58.5 -32t76.5 -12q75 0 125 38.5t63 101.5q11 57 -13.5 93t-90.5 65q-72 28 -109.5 72t-24.5 114q8 37 28.5 68.5t50.5 54t67.5 35t79.5 12.5q48 0 79.5 -10t45.5 -21l-25 -40q-12 10 -40 20.5t-70 10.5q-41 0 -70.5 -11.5t-49.5 -29.5t-31.5 -39.5
t-15.5 -41.5q-11 -56 15.5 -89.5t92.5 -61.5q37 -17 64.5 -36t44 -42t21.5 -52t-2 -66q-8 -37 -28 -70.5t-51 -59t-73 -40.5t-94 -15q-43 0 -85.5 12.5t-64.5 31.5zM319 710l-82 112h51l55 -77h2l84 77h48l-121 -112h-37z" />
    <glyph glyph-name="scaron" unicode="&#x161;" horiz-adv-x="366" 
d="M32 63q16 -12 41 -22.5t57 -10.5q57 0 89 26.5t39 64.5q8 39 -11 63.5t-67 45.5q-54 23 -78.5 54.5t-15.5 76.5q5 26 19.5 49.5t37 41.5t51.5 28.5t63 10.5q32 0 57 -9t41 -21l-26 -39q-11 9 -31.5 19t-55.5 10q-45 0 -73.5 -25t-34.5 -58q-7 -37 13 -57.5t65 -40.5
q54 -23 79.5 -55.5t14.5 -87.5q-12 -63 -63 -100t-123 -37q-35 0 -64.5 9t-49.5 24zM235 540l-67 137h47l44 -99h2l83 99h44l-118 -137h-35z" />
    <glyph glyph-name="Tcedilla" unicode="&#x162;" horiz-adv-x="456" 
d="M288 634h-214l8 40h475l-8 -40h-214l-123 -634h-47zM232 0l-47 -56q26 -4 43 -21.5t12 -45.5q-8 -41 -39.5 -59t-68.5 -18q-14 0 -30 4.5t-27 11.5l19 34q19 -13 51 -13q18 0 33.5 7.5t19.5 27.5q3 23 -17 32.5t-51 12.5l65 83h37z" />
    <glyph glyph-name="tcedilla" unicode="&#x163;" horiz-adv-x="303" 
d="M218 586l-20 -106h133l-8 -38h-133l-60 -313q-10 -48 0.5 -73.5t48.5 -25.5q18 0 31.5 2t23.5 5l-2 -36q-25 -11 -66 -11q-33 0 -52.5 11t-28.5 30.5t-8.5 47t6.5 59.5l59 304h-79l8 38h79l17 88zM190 -10l-47 -56q26 -4 43 -21.5t12 -45.5q-8 -41 -39.5 -59t-68.5 -18
q-14 0 -30 4.5t-27 11.5l19 34q19 -13 51 -13q18 0 33.5 7.5t19.5 27.5q3 23 -17 32.5t-51 12.5l65 83h37z" />
    <glyph glyph-name="Tcaron" unicode="&#x164;" horiz-adv-x="456" 
d="M288 634h-214l8 40h475l-8 -40h-214l-123 -634h-47zM312 724l-67 137h47l44 -99h2l82 99h44l-117 -137h-35z" />
    <glyph glyph-name="tcaron" unicode="&#x165;" horiz-adv-x="313" 
d="M218 586l-20 -106h133l-8 -38h-133l-60 -313q-10 -48 0.5 -73.5t48.5 -25.5q18 0 31.5 2t23.5 5l-2 -36q-25 -11 -66 -11q-33 0 -52.5 11t-28.5 30.5t-8.5 47t6.5 59.5l59 304h-79l8 38h79l17 88zM426 741q-13 -28 -30 -61.5t-34.5 -64.5t-32 -56t-22.5 -35l-34 -5
q9 16 21.5 42t25.5 56t25.5 60.5t20.5 53.5z" />
    <glyph glyph-name="Tbar" unicode="&#x166;" horiz-adv-x="456" 
d="M132 408l7 38h112l37 188h-214l8 40h475l-8 -40h-214l-37 -188h101l-7 -38h-101l-79 -408h-47l79 408h-112z" />
    <glyph glyph-name="tbar" unicode="&#x167;" horiz-adv-x="303" 
d="M37 308l8 38h79l18 96h-79l8 38h79l17 88l51 18l-20 -106h133l-8 -38h-133l-18 -96h133l-8 -38h-133l-34 -179q-10 -48 0.5 -73.5t48.5 -25.5q18 0 31.5 2t23.5 5l-2 -36q-25 -11 -66 -11q-33 0 -52.5 11t-28.5 30.5t-8.5 47t6.5 59.5l33 170h-79z" />
    <glyph glyph-name="Utilde" unicode="&#x168;" horiz-adv-x="613" 
d="M218 674l-80 -410q-12 -63 -7 -107.5t23 -72.5t47 -41t66 -13q40 0 76.5 13.5t66.5 42t52.5 72.5t34.5 106l80 410h47l-79 -406q-15 -77 -44.5 -130t-68 -86t-84 -48t-92.5 -15q-43 0 -80 13.5t-61 45.5t-32 83.5t7 128.5l81 414h47zM296 724q5 33 25 58t49 25
q16 0 28 -6t29 -16q11 -6 20.5 -11t23.5 -5q11 0 18.5 8.5t14.5 32.5h30q-7 -35 -25.5 -57.5t-49.5 -22.5q-14 0 -26.5 6t-25.5 15q-13 8 -22.5 13t-20.5 5q-13 0 -21.5 -12.5t-14.5 -32.5h-32z" />
    <glyph glyph-name="utilde" unicode="&#x169;" horiz-adv-x="519" 
d="M423 117q-6 -32 -10.5 -61t-7.5 -56h-46l16 83h-4q-12 -16 -30 -33t-40.5 -30.5t-49.5 -22t-59 -8.5q-23 0 -49.5 8t-46 30.5t-28 63.5t4.5 107l55 282h48l-53 -272q-8 -39 -8 -71.5t10.5 -56t31.5 -37t55 -13.5q26 0 50 8.5t44 22.5t36 31t26 35q6 11 11.5 24.5
t7.5 27.5l59 301h48zM212 540q5 33 25 58t49 25q16 0 28 -6t29 -16q11 -6 20.5 -11t23.5 -5q11 0 18.5 8.5t14.5 32.5h30q-7 -35 -25.5 -57.5t-49.5 -22.5q-14 0 -26.5 6t-25.5 15q-13 8 -22.5 13t-20.5 5q-13 0 -21.5 -12.5t-14.5 -32.5h-32z" />
    <glyph glyph-name="Umacron" unicode="&#x16a;" horiz-adv-x="613" 
d="M218 674l-80 -410q-12 -63 -7 -107.5t23 -72.5t47 -41t66 -13q40 0 76.5 13.5t66.5 42t52.5 72.5t34.5 106l80 410h47l-79 -406q-15 -77 -44.5 -130t-68 -86t-84 -48t-92.5 -15q-43 0 -80 13.5t-61 45.5t-32 83.5t7 128.5l81 414h47zM528 762l-8 -38h-229l8 38h229z" />
    <glyph glyph-name="umacron" unicode="&#x16b;" horiz-adv-x="519" 
d="M423 117q-6 -32 -10.5 -61t-7.5 -56h-46l16 83h-4q-12 -16 -30 -33t-40.5 -30.5t-49.5 -22t-59 -8.5q-23 0 -49.5 8t-46 30.5t-28 63.5t4.5 107l55 282h48l-53 -272q-8 -39 -8 -71.5t10.5 -56t31.5 -37t55 -13.5q26 0 50 8.5t44 22.5t36 31t26 35q6 11 11.5 24.5
t7.5 27.5l59 301h48zM445 614l-8 -38h-229l8 38h229z" />
    <glyph glyph-name="Ubreve" unicode="&#x16c;" horiz-adv-x="613" 
d="M218 674l-80 -410q-12 -63 -7 -107.5t23 -72.5t47 -41t66 -13q40 0 76.5 13.5t66.5 42t52.5 72.5t34.5 106l80 410h47l-79 -406q-15 -77 -44.5 -130t-68 -86t-84 -48t-92.5 -15q-43 0 -80 13.5t-61 45.5t-32 83.5t7 128.5l81 414h47zM350 837q-1 -30 15.5 -51.5
t48.5 -21.5q19 0 34.5 6.5t27 17t19 23.5t11.5 26h36q-10 -51 -47 -82t-88 -31q-32 0 -51.5 10.5t-30 26.5t-12.5 36t2 40h35z" />
    <glyph glyph-name="ubreve" unicode="&#x16d;" horiz-adv-x="519" 
d="M423 117q-6 -32 -10.5 -61t-7.5 -56h-46l16 83h-4q-12 -16 -30 -33t-40.5 -30.5t-49.5 -22t-59 -8.5q-23 0 -49.5 8t-46 30.5t-28 63.5t4.5 107l55 282h48l-53 -272q-8 -39 -8 -71.5t10.5 -56t31.5 -37t55 -13.5q26 0 50 8.5t44 22.5t36 31t26 35q6 11 11.5 24.5
t7.5 27.5l59 301h48zM266 643q-1 -30 15.5 -51.5t48.5 -21.5q19 0 34.5 6.5t27 17t19 23.5t11.5 26h36q-10 -51 -47 -82t-88 -31q-32 0 -51.5 10.5t-30 26.5t-12.5 36t2 40h35z" />
    <glyph glyph-name="Uring" unicode="&#x16e;" horiz-adv-x="613" 
d="M218 674l-80 -410q-12 -63 -7 -107.5t23 -72.5t47 -41t66 -13q40 0 76.5 13.5t66.5 42t52.5 72.5t34.5 106l80 410h47l-79 -406q-15 -77 -44.5 -130t-68 -86t-84 -48t-92.5 -15q-43 0 -80 13.5t-61 45.5t-32 83.5t7 128.5l81 414h47zM515 815q-3 -19 -13.5 -35.5t-25 -29
t-32.5 -19.5t-37 -7q-38 0 -59.5 26.5t-14.5 64.5q4 19 14.5 35.5t25 29t32.5 19.5t37 7q38 0 59.5 -26.5t13.5 -64.5zM368 815q-4 -24 9 -40.5t36 -16.5q24 0 44 16.5t24 40.5q5 23 -8.5 40t-37.5 17q-23 0 -42.5 -17t-24.5 -40z" />
    <glyph glyph-name="uring" unicode="&#x16f;" horiz-adv-x="519" 
d="M423 117q-6 -32 -10.5 -61t-7.5 -56h-46l16 83h-4q-12 -16 -30 -33t-40.5 -30.5t-49.5 -22t-59 -8.5q-23 0 -49.5 8t-46 30.5t-28 63.5t4.5 107l55 282h48l-53 -272q-8 -39 -8 -71.5t10.5 -56t31.5 -37t55 -13.5q26 0 50 8.5t44 22.5t36 31t26 35q6 11 11.5 24.5
t7.5 27.5l59 301h48zM432 621q-3 -19 -13.5 -35.5t-25 -29t-32.5 -19.5t-37 -7q-38 0 -59.5 26.5t-14.5 64.5q4 19 14.5 35.5t25 29t32.5 19.5t37 7q38 0 59.5 -26.5t13.5 -64.5zM285 621q-4 -24 9 -40.5t36 -16.5q24 0 44 16.5t24 40.5q5 23 -8.5 40t-37.5 17
q-23 0 -42.5 -17t-24.5 -40z" />
    <glyph glyph-name="Uhungarumlaut" unicode="&#x170;" horiz-adv-x="613" 
d="M218 674l-80 -410q-12 -63 -7 -107.5t23 -72.5t47 -41t66 -13q40 0 76.5 13.5t66.5 42t52.5 72.5t34.5 106l80 410h47l-79 -406q-15 -77 -44.5 -130t-68 -86t-84 -48t-92.5 -15q-43 0 -80 13.5t-61 45.5t-32 83.5t7 128.5l81 414h47zM446 853l-142 -129h-36l113 129h65z
M570 853l-141 -129h-35l112 129h64z" />
    <glyph glyph-name="uhungarumlaut" unicode="&#x171;" horiz-adv-x="519" 
d="M423 117q-6 -32 -10.5 -61t-7.5 -56h-46l16 83h-4q-12 -16 -30 -33t-40.5 -30.5t-49.5 -22t-59 -8.5q-23 0 -49.5 8t-46 30.5t-28 63.5t4.5 107l55 282h48l-53 -272q-8 -39 -8 -71.5t10.5 -56t31.5 -37t55 -13.5q26 0 50 8.5t44 22.5t36 31t26 35q6 11 11.5 24.5
t7.5 27.5l59 301h48zM402 659l-142 -129h-36l113 129h65zM526 659l-141 -129h-35l112 129h64z" />
    <glyph glyph-name="Uogonek" unicode="&#x172;" horiz-adv-x="613" 
d="M218 674l-80 -410q-12 -63 -7 -107.5t23 -72.5t47 -41t66 -13q40 0 76.5 13.5t66.5 42t52.5 72.5t34.5 106l80 410h47l-79 -406q-15 -77 -44.5 -130t-68 -86t-84 -48t-92.5 -15q-43 0 -80 13.5t-61 45.5t-32 83.5t7 128.5l81 414h47zM329 -11q-19 -10 -38.5 -23
t-36 -27.5t-28 -31t-14.5 -32.5q-6 -25 6.5 -36.5t29.5 -11.5q11 0 24.5 2t26.5 8l2 -31q-32 -15 -71 -15q-34 0 -52 20t-11 55q3 19 17 39t32.5 37t38 29.5t33.5 17.5h41z" />
    <glyph glyph-name="uogonek" unicode="&#x173;" horiz-adv-x="519" 
d="M423 117q-6 -32 -10.5 -61t-7.5 -56h-46l16 83h-4q-12 -16 -30 -33t-40.5 -30.5t-49.5 -22t-59 -8.5q-23 0 -49.5 8t-46 30.5t-28 63.5t4.5 107l55 282h48l-53 -272q-8 -39 -8 -71.5t10.5 -56t31.5 -37t55 -13.5q26 0 50 8.5t44 22.5t36 31t26 35q6 11 11.5 24.5
t7.5 27.5l59 301h48zM283 -11q-19 -10 -38.5 -23t-36 -27.5t-28 -31t-14.5 -32.5q-6 -25 6.5 -36.5t29.5 -11.5q11 0 24.5 2t26.5 8l2 -31q-32 -15 -71 -15q-34 0 -52 20t-11 55q3 19 17 39t32.5 37t38 29.5t33.5 17.5h41z" />
    <glyph glyph-name="Wcircumflex" unicode="&#x174;" horiz-adv-x="808" 
d="M150 0l-44 674h48l23 -379q4 -66 6.5 -124.5t3.5 -107.5h2q17 48 45 107t60 126l182 378h46l25 -375q4 -63 7 -122.5t1 -113.5h2q22 57 48.5 113t57.5 120l181 378h49l-329 -674h-45l-25 388q-6 74 -7.5 127t0.5 101h-2q-17 -48 -41.5 -101t-61.5 -126l-187 -389h-45z
M551 861l65 -137h-47l-41 99h-2l-82 -99h-45l117 137h35z" />
    <glyph glyph-name="wcircumflex" unicode="&#x175;" horiz-adv-x="709" 
d="M124 480l26 -272q4 -42 6.5 -79t4.5 -72h3q15 34 34.5 71.5t41.5 79.5l147 272h44l38 -269q6 -44 10 -82t6 -72h3q13 35 31 71t40 81l137 271h48l-250 -480h-41l-37 268q-7 43 -11.5 81.5t-5.5 80.5h-2q-19 -43 -40 -82.5t-43 -81.5l-145 -266h-41l-53 480h49zM462 667
l65 -137h-47l-41 99h-2l-82 -99h-45l117 137h35z" />
    <glyph glyph-name="Ycircumflex" unicode="&#x176;" horiz-adv-x="495" 
d="M186 0l56 292l-135 382h53l69 -199q13 -40 25 -74.5t21 -71.5h2q22 35 48.5 70t57.5 77l151 198h53l-298 -383l-56 -291h-47zM399 861l65 -137h-47l-41 99h-2l-82 -99h-45l117 137h35z" />
    <glyph glyph-name="ycircumflex" unicode="&#x177;" horiz-adv-x="431" 
d="M115 480l61 -312q5 -26 8.5 -53.5t6.5 -50.5h2q11 22 25.5 49.5t31.5 56.5l174 310h50l-208 -352q-32 -56 -59.5 -101.5t-53 -82t-50.5 -64.5t-53 -49q-33 -25 -59 -36.5t-33 -14.5l-9 39q19 8 43.5 21t49.5 34q22 18 49 47.5t52 71.5q8 14 10 21q2 9 -2 21l-86 445h50z
M322 667l65 -137h-47l-41 99h-2l-82 -99h-45l117 137h35z" />
    <glyph glyph-name="Ydieresis" unicode="&#x178;" horiz-adv-x="495" 
d="M186 0l56 292l-135 382h53l69 -199q13 -40 25 -74.5t21 -71.5h2q22 35 48.5 70t57.5 77l151 198h53l-298 -383l-56 -291h-47zM233 766q4 16 17 27.5t29 11.5t25.5 -11.5t5.5 -27.5q-3 -16 -16.5 -27t-29.5 -11t-25 11t-6 27zM402 766q4 16 17 27.5t29 11.5t25.5 -11.5
t5.5 -27.5q-3 -16 -16.5 -27t-29.5 -11t-25 11t-6 27z" />
    <glyph glyph-name="Zacute" unicode="&#x179;" horiz-adv-x="525" 
d="M-1 31l512 600l1 3h-363l8 40h423l-7 -31l-512 -600l-1 -3h400l-7 -40h-460zM468 861l-148 -137h-36l115 137h69z" />
    <glyph glyph-name="zacute" unicode="&#x17a;" horiz-adv-x="395" 
d="M-19 29l318 341q18 17 34 34t34 35v2h-285l8 39h342l-6 -32l-320 -341q-16 -17 -31 -33t-32 -33v-2h304l-7 -39h-364zM366 667l-148 -137h-36l115 137h69z" />
    <glyph glyph-name="Zdotaccent" unicode="&#x17b;" horiz-adv-x="525" 
d="M-1 31l512 600l1 3h-363l8 40h423l-7 -31l-512 -600l-1 -3h400l-7 -40h-460zM331 763q3 17 16.5 28.5t30.5 11.5t26 -11.5t6 -28.5t-16.5 -28t-30.5 -11t-26 11t-6 28z" />
    <glyph glyph-name="zdotaccent" unicode="&#x17c;" horiz-adv-x="395" 
d="M-19 29l318 341q18 17 34 34t34 35v2h-285l8 39h342l-6 -32l-320 -341q-16 -17 -31 -33t-32 -33v-2h304l-7 -39h-364zM228 569q3 17 16.5 28.5t30.5 11.5t26 -11.5t6 -28.5t-16.5 -28t-30.5 -11t-26 11t-6 28z" />
    <glyph glyph-name="Zcaron" unicode="&#x17d;" horiz-adv-x="525" 
d="M-1 31l512 600l1 3h-363l8 40h423l-7 -31l-512 -600l-1 -3h400l-7 -40h-460zM356 710l-82 112h51l55 -77h2l84 77h48l-121 -112h-37z" />
    <glyph glyph-name="zcaron" unicode="&#x17e;" horiz-adv-x="395" 
d="M-19 29l318 341q18 17 34 34t34 35v2h-285l8 39h342l-6 -32l-320 -341q-16 -17 -31 -33t-32 -33v-2h304l-7 -39h-364zM262 540l-67 137h47l44 -99h2l83 99h44l-118 -137h-35z" />
    <glyph glyph-name="longs" unicode="&#x17f;" horiz-adv-x="257" 
d="M43 0l85 442h-69l8 38h69l5 27q9 45 24.5 84t39.5 67.5t57 45t77 16.5q23 0 40.5 -5t26.5 -12l-22 -37q-9 5 -22.5 9t-34.5 4q-34 0 -57 -14t-39 -37t-26 -54.5t-17 -65.5l-98 -508h-47z" />
    <glyph glyph-name="uni018E" unicode="&#x18e;" horiz-adv-x="456" 
d="M101 339h264l58 295h-295l8 40h342l-131 -674h-327l7 40h280l51 259h-264z" />
    <glyph glyph-name="uni0191" unicode="&#x191;" horiz-adv-x="452" 
d="M-126 -170q31 2 58.5 11.5t45.5 29.5q9 9 16.5 18.5t14 22.5t12.5 31t13 42l13 54l124 635h327l-8 -40h-280l-52 -268h257l-8 -40h-257l-63 -326h-1q-5 -23 -11.5 -42t-13.5 -36q-17 -43 -56 -79q-15 -14 -33 -23.5t-36 -15.5t-34.5 -9t-28.5 -3z" />
    <glyph glyph-name="florin" unicode="&#x192;" horiz-adv-x="479" 
d="M143 396h103l18 54q15 44 34.5 82.5t45 67t59 45t75.5 16.5q39 -3 56 -14l-18 -37q-12 5 -24.5 8t-28.5 3q-30 0 -53.5 -14t-42 -37.5t-32.5 -54t-24 -62.5l-18 -57h129l-7 -38h-134l-70 -222q-15 -51 -34 -91t-43 -67.5t-54 -42.5t-68 -15q-41 0 -64 17l18 35
q23 -13 59 -13q25 0 45.5 12.5t37.5 35t30.5 53t24.5 67.5l72 231h-99z" />
    <glyph glyph-name="uni019D" unicode="&#x19d;" horiz-adv-x="624" 
d="M-127 -170q31 2 58.5 11.5t45.5 29.5q11 10 21 24t19 36t17.5 54t17.5 79l119 610h45l178 -395q27 -63 47.5 -113.5t34.5 -101.5l2 1q4 35 9 67.5t10.5 65.5t12 68t14.5 75l65 333h46l-131 -674h-44l-175 390q-25 60 -47 113t-38 107l-2 -1q-6 -48 -13.5 -93.5
t-18.5 -99.5l-80 -416h-1q-5 -23 -11.5 -42t-13.5 -36q-17 -43 -56 -79q-15 -14 -33 -23.5t-36 -15.5t-34.5 -9t-28.5 -3z" />
    <glyph glyph-name="Ohorn" unicode="&#x1a0;" horiz-adv-x="769" 
d="M281 -11q-60 0 -108 23.5t-78 67.5t-40 107.5t6 143.5q16 83 51.5 149t84.5 111.5t107.5 69.5t120.5 24q61 0 109 -23.5t77 -68.5q15 -22 25 -50l1 -1q14 -26 33.5 -43t44.5 -17q25 -1 39.5 13.5t17.5 31.5q2 11 2.5 24t-3.5 25l33 8q9 -30 2 -68q-7 -34 -31 -56t-59 -22
q-20 0 -37 10q-16 7 -28 21q2 -29 0.5 -60t-8.5 -66q-17 -89 -54.5 -155.5t-87 -110.5t-106.5 -66t-114 -22zM290 29q59 0 109 25.5t89 68.5t66 99t39 118q10 53 6 107.5t-25 98.5t-61 71.5t-101 27.5q-62 0 -113 -27t-89 -71t-63.5 -100.5t-36.5 -114.5q-11 -56 -6 -110.5
t27 -97.5t61.5 -69t97.5 -26z" />
    <glyph glyph-name="ohorn" unicode="&#x1a1;" horiz-adv-x="607" 
d="M317 491q96 0 144 -68q7 -11 12.5 -22.5t9.5 -25.5l15 -19q12 -13 26.5 -21t30.5 -8q25 -1 39.5 13.5t17.5 31.5q2 11 2.5 24t-3.5 25l33 8q9 -30 2 -68q-7 -34 -31 -56t-59 -22q-20 0 -37 10q-12 7 -26 19q0 -34 -7 -68q-13 -68 -42.5 -116t-68 -79t-81 -45.5
t-81.5 -14.5q-45 0 -81 17t-58.5 49.5t-30.5 78t3 102.5q12 62 39.5 109.5t64.5 80t80.5 49t86.5 16.5zM308 451q-45 0 -81 -19t-63.5 -49t-45 -68t-24.5 -76q-9 -45 -4 -83.5t22 -66.5t45 -44t66 -16q37 0 72 16t63.5 44t49 67t30.5 86q6 33 3.5 69.5t-16.5 67.5
t-42.5 51.5t-74.5 20.5z" />
    <glyph glyph-name="uni01A7" unicode="&#x1a7;" horiz-adv-x="455" 
d="M375 34q-30 -19 -76.5 -31.5t-89.5 -12.5q-53 0 -89.5 15t-58 40.5t-28 59t1.5 70.5q7 37 23 66t41.5 52t60 42t79.5 36q38 14 66.5 28.5t48.5 32.5t32.5 40t18.5 50q4 20 1 41.5t-16.5 39.5t-38.5 29.5t-65 11.5q-42 0 -74 -10.5t-48 -20.5l-11 40q20 11 54.5 21
t82.5 10q42 0 75.5 -12.5t55 -35t29.5 -54t0 -68.5q-13 -70 -67 -114t-139 -72q-76 -29 -114.5 -65t-49.5 -93q-13 -63 22 -101.5t110 -38.5q42 0 81.5 12t71.5 32z" />
    <glyph glyph-name="uni01A8" unicode="&#x1a8;" horiz-adv-x="366" 
d="M286 23q-26 -15 -58.5 -24t-67.5 -9q-72 0 -109 37t-25 100q11 55 50 87.5t100 55.5q54 20 81.5 40.5t34.5 57.5q6 33 -12.5 58t-63.5 25q-35 0 -59.5 -10t-37.5 -19l-12 39q20 12 49 21t61 9q34 0 59 -10.5t40.5 -28.5t21 -41.5t0.5 -49.5q-9 -45 -46 -76.5t-100 -54.5
q-55 -21 -83.5 -45.5t-36.5 -63.5q-7 -38 14 -64.5t78 -26.5q32 0 61 10.5t51 22.5z" />
    <glyph glyph-name="Uhorn" unicode="&#x1af;" horiz-adv-x="697" 
d="M218 674l-80 -410q-12 -63 -7 -107.5t23 -72.5t47 -41t66 -13q40 0 76.5 13.5t66.5 42t52.5 72.5t34.5 106l80 410h47l-6 -26l9 -16q14 -26 34 -43t45 -17q24 -1 38.5 13.5t17.5 31.5q3 11 3.5 24t-3.5 25l33 8q9 -28 1 -68q-6 -34 -30.5 -56t-59.5 -22q-29 0 -53.5 21
t-37.5 46q-4 6 -5 9l-65 -336q-15 -77 -44.5 -130t-68 -86t-84 -48t-92.5 -15q-43 0 -80 13.5t-61 45.5t-32 83.5t7 128.5l81 414h47z" />
    <glyph glyph-name="uhorn" unicode="&#x1b0;" horiz-adv-x="623" 
d="M423 117q-6 -32 -10.5 -61t-8.5 -56h-46l17 83h-4q-12 -16 -30 -33t-40.5 -30.5t-49.5 -22t-59 -8.5q-23 0 -49.5 8t-46 30.5t-28 63.5t4.5 107l55 282h48l-53 -272q-8 -39 -8 -71.5t10.5 -56t31.5 -37t55 -13.5q26 0 50 8.5t44 22.5t36 31t26 35q6 11 11.5 24.5
t7.5 27.5l59 301h48l-3 -14l12 -24q14 -26 35 -43t44 -17q25 -1 39 13.5t18 31.5q2 11 2.5 24t-3.5 25l33 8q9 -28 1 -68q-6 -34 -30.5 -56t-59.5 -22q-29 0 -53.5 21t-37.5 46l-8 17z" />
    <glyph glyph-name="uni01B5" unicode="&#x1b5;" horiz-adv-x="525" 
d="M-1 31l249 293h-86l8 38h111l230 269l1 3h-363l8 40h423l-7 -31l-240 -281h79l-8 -38h-104l-239 -281l-1 -3h400l-7 -40h-460z" />
    <glyph glyph-name="uni01B6" unicode="&#x1b6;" horiz-adv-x="395" 
d="M-19 29l188 202h-82l8 38h110l94 101q18 17 34 34t34 35v2h-285l8 39h342l-6 -32l-168 -179h79l-8 -38h-107l-116 -124q-16 -17 -31 -33t-32 -33v-2h304l-7 -39h-364z" />
    <glyph glyph-name="clickdental" unicode="&#x1c0;" horiz-adv-x="210" 
d="M217 674l-131 -674h-42l131 674h42z" />
    <glyph glyph-name="clicklateral" unicode="&#x1c1;" horiz-adv-x="420" 
d="M217 674l-131 -674h-42l131 674h42zM427 674l-131 -674h-42l131 674h42z" />
    <glyph glyph-name="uni01C2" unicode="&#x1c2;" horiz-adv-x="210" 
d="M29 305l8 40h74l15 80h-74l8 40h74l41 209h42l-41 -209h70l-8 -40h-70l-15 -80h70l-8 -40h-70l-59 -305h-42l59 305h-74z" />
    <glyph glyph-name="clickretroflex" unicode="&#x1c3;" horiz-adv-x="206" 
d="M76 176l88 498h58l-106 -498h-40zM59 -11q-18 0 -26 12t-4 32t17.5 32t30.5 12q18 0 26.5 -12t4.5 -32t-18 -32t-31 -12z" />
    <glyph glyph-name="DZcaron" unicode="&#x1c4;" horiz-adv-x="1157" 
d="M169 665q39 6 81 10t88 4q91 0 152.5 -23t93.5 -66q32 -42 43 -99.5t-5 -136.5q-15 -78 -48.5 -142.5t-88.5 -115.5q-54 -48 -130 -74.5t-172 -26.5q-38 0 -73.5 1t-69.5 5zM94 40q20 -3 46.5 -4t56.5 -1q157 0 252.5 83.5t124.5 232.5q12 64 4.5 117.5t-36.5 91
t-82 58.5t-132 21q-37 0 -67 -3t-52 -7zM631 31l512 600l1 3h-363l8 40h423l-7 -31l-512 -600l-1 -3h400l-7 -40h-460zM978 724l-67 137h47l44 -99h2l83 99h44l-118 -137h-35z" />
    <glyph glyph-name="Dzcaron" unicode="&#x1c5;" horiz-adv-x="1027" 
d="M169 665q39 6 81 10t88 4q91 0 152.5 -23t93.5 -66q32 -42 43 -99.5t-5 -136.5q-15 -78 -48.5 -142.5t-88.5 -115.5q-54 -48 -130 -74.5t-172 -26.5q-38 0 -73.5 1t-69.5 5zM94 40q20 -3 46.5 -4t56.5 -1q157 0 252.5 83.5t124.5 232.5q12 64 4.5 117.5t-36.5 91
t-82 58.5t-132 21q-37 0 -67 -3t-52 -7zM613 29l318 341q18 17 34 34t34 35v2h-285l8 39h342l-6 -32l-320 -341q-16 -17 -31 -33t-32 -33v-2h304l-7 -39h-364zM876 530l-67 137h47l44 -99h2l83 99h44l-118 -137h-35z" />
    <glyph glyph-name="dzcaron" unicode="&#x1c6;" horiz-adv-x="927" 
d="M505 709l-106 -560q-7 -37 -12.5 -76.5t-7.5 -72.5h-42q2 24 5.5 49.5t8.5 51.5h-2q-32 -57 -79 -84.5t-95 -27.5q-34 0 -59.5 13.5t-43 36.5t-26 55t-8.5 68q0 65 22.5 125t61.5 105.5t92.5 73t115.5 27.5q26 0 47.5 -4.5t38.5 -12.5l44 233h45zM409 437q-14 8 -35.5 14
t-46.5 6q-51 0 -95.5 -24.5t-77 -65t-51 -93t-18.5 -107.5q0 -28 5.5 -53t18 -44.5t32.5 -31t49 -11.5q31 0 59.5 14.5t52.5 41t41.5 64t26.5 84.5zM513 29l318 341q18 17 34 34t34 35v2h-285l8 39h342l-6 -32l-320 -341q-16 -17 -31 -33t-32 -33v-2h304l-7 -39h-364z
M776 530l-67 137h47l44 -99h2l83 99h44l-118 -137h-35z" />
    <glyph glyph-name="LJ" unicode="&#x1c7;" horiz-adv-x="778" 
d="M171 674h47l-124 -634h294l-7 -40h-341zM749 674h47l-91 -468q-13 -63 -35.5 -105t-51.5 -67t-63.5 -35t-70.5 -10q-23 0 -44 4.5t-33 10.5l18 39q11 -5 27.5 -9t38.5 -4q31 0 57.5 8.5t47.5 29.5t37 57t26 91z" />
    <glyph glyph-name="Lj" unicode="&#x1c8;" horiz-adv-x="651" 
d="M171 674h47l-124 -634h294l-7 -40h-341zM320 -170q31 2 58 11.5t46 29.5q12 11 21.5 25t18 35.5t16.5 53.5t17 79l81 416h48l-87 -447q-13 -66 -31.5 -111t-56.5 -79q-15 -14 -33 -23.5t-36 -15.5t-34.5 -9t-28.5 -3zM589 626q3 17 17 29t31 12t26.5 -12t6.5 -29
t-17.5 -28.5t-31.5 -11.5t-26 11.5t-6 28.5z" />
    <glyph glyph-name="lj" unicode="&#x1c9;" horiz-adv-x="417" 
d="M176 709h47l-137 -709h-47zM86 -170q31 2 58 11.5t46 29.5q12 11 21.5 25t18 35.5t16.5 53.5t17 79l81 416h48l-87 -447q-13 -66 -31.5 -111t-56.5 -79q-15 -14 -33 -23.5t-36 -15.5t-34.5 -9t-28.5 -3zM355 626q3 17 17 29t31 12t26.5 -12t6.5 -29t-17.5 -28.5
t-31.5 -11.5t-26 11.5t-6 28.5z" />
    <glyph glyph-name="NJ" unicode="&#x1ca;" horiz-adv-x="962" 
d="M40 0l131 674h45l178 -395q27 -63 47.5 -113.5t34.5 -101.5l2 1q4 35 9 67.5t10.5 65.5t12 68t14.5 75l65 333h46l-131 -674h-44l-175 390q-25 60 -47 113t-38 107l-2 -1q-4 -32 -9 -62.5t-11 -62.5t-12.5 -68t-14.5 -79l-65 -337h-46zM933 674h47l-91 -468
q-13 -63 -35.5 -105t-51.5 -67t-63.5 -35t-70.5 -10q-23 0 -44 4.5t-33 10.5l18 39q11 -5 27.5 -9t38.5 -4q31 0 57.5 8.5t47.5 29.5t37 57t26 91z" />
    <glyph glyph-name="Nj" unicode="&#x1cb;" horiz-adv-x="835" 
d="M40 0l131 674h45l178 -395q27 -63 47.5 -113.5t34.5 -101.5l2 1q4 35 9 67.5t10.5 65.5t12 68t14.5 75l65 333h46l-131 -674h-44l-175 390q-25 60 -47 113t-38 107l-2 -1q-4 -32 -9 -62.5t-11 -62.5t-12.5 -68t-14.5 -79l-65 -337h-46zM504 -170q31 2 58 11.5t46 29.5
q12 11 21.5 25t18 35.5t16.5 53.5t17 79l81 416h48l-87 -447q-13 -66 -31.5 -111t-56.5 -79q-15 -14 -33 -23.5t-36 -15.5t-34.5 -9t-28.5 -3zM773 626q3 17 17 29t31 12t26.5 -12t6.5 -29t-17.5 -28.5t-31.5 -11.5t-26 11.5t-6 28.5z" />
    <glyph glyph-name="nj" unicode="&#x1cc;" horiz-adv-x="736" 
d="M109 365q7 34 11 60t8 55h46l-17 -85h4q27 40 74.5 68t105.5 28q16 0 42.5 -6.5t49 -27.5t34 -60.5t-1.5 -105.5l-56 -291h-47l55 286q6 32 5.5 62t-11 52.5t-32.5 36t-59 13.5q-50 0 -94 -31t-67 -79q-5 -10 -9.5 -20.5t-6.5 -21.5l-57 -298h-47zM405 -170q31 2 58 11.5
t46 29.5q12 11 21.5 25t18 35.5t16.5 53.5t17 79l81 416h48l-87 -447q-13 -66 -31.5 -111t-56.5 -79q-15 -14 -33 -23.5t-36 -15.5t-34.5 -9t-28.5 -3zM674 626q3 17 17 29t31 12t26.5 -12t6.5 -29t-17.5 -28.5t-31.5 -11.5t-26 11.5t-6 28.5z" />
    <glyph glyph-name="Acaron" unicode="&#x1cd;" horiz-adv-x="574" 
d="M165 235l-127 -235h-48l369 674h46l106 -674h-49l-37 235h-260zM418 275l-36 223q-5 35 -7 63.5t-4 57.5h-2q-14 -30 -27.5 -58.5t-30.5 -60.5l-124 -225h231zM373 724l-67 137h47l44 -99h2l83 99h44l-118 -137h-35z" />
    <glyph glyph-name="acaron" unicode="&#x1ce;" horiz-adv-x="483" 
d="M346 0q-1 23 2 58.5t8 73.5h-2q-36 -75 -86 -109t-101 -34q-31 0 -55 11.5t-41 32.5t-26 50t-9 63q0 63 21.5 125t62 111.5t99 80t132.5 30.5q28 0 58 -4.5t50 -12.5l-52 -265q-12 -59 -16.5 -115t-2.5 -96h-42zM408 447q-23 10 -67 10q-57 0 -104.5 -26.5t-82 -69
t-53.5 -97t-19 -111.5q0 -26 5.5 -49t17.5 -40t30.5 -27t44.5 -10q35 0 66 19t56 52.5t43.5 78.5t28.5 97zM306 541l-67 137h47l44 -99h2l83 99h44l-118 -137h-35z" />
    <glyph glyph-name="Icaron" unicode="&#x1cf;" horiz-adv-x="208" 
d="M218 674l-131 -674h-47l131 674h47zM187 724l-67 137h47l44 -99h2l83 99h44l-118 -137h-35z" />
    <glyph glyph-name="icaron" unicode="&#x1d0;" horiz-adv-x="206" 
d="M39 0l93 480h47l-93 -480h-47zM149 530l-67 137h47l44 -99h2l83 99h44l-118 -137h-35z" />
    <glyph glyph-name="Ocaron" unicode="&#x1d1;" horiz-adv-x="654" 
d="M281 -11q-60 0 -108 23.5t-78 67.5t-40 107.5t6 143.5q16 83 51.5 149t84.5 111.5t107.5 69.5t120.5 24q61 0 109 -24t77.5 -68t38.5 -107.5t-7 -142.5q-17 -89 -54.5 -155.5t-87 -110.5t-106.5 -66t-114 -22zM290 29q59 0 109 25.5t89 68.5t66 99t39 118q10 53 6 107.5
t-25 98.5t-61 71.5t-101 27.5q-62 0 -113 -27t-89 -71t-63.5 -100.5t-36.5 -114.5q-11 -56 -6 -110.5t27 -97.5t61.5 -69t97.5 -26zM412 735l-67 137h47l44 -99h2l83 99h44l-118 -137h-35z" />
    <glyph glyph-name="ocaron" unicode="&#x1d2;" horiz-adv-x="520" 
d="M317 491q48 0 84.5 -17.5t59 -50t29.5 -78t-4 -101.5q-13 -68 -42.5 -116t-68 -79t-81 -45.5t-81.5 -14.5q-45 0 -81 17t-58.5 49.5t-30.5 78t3 102.5q12 62 39.5 109.5t64.5 80t80.5 49t86.5 16.5zM308 451q-45 0 -81 -19t-63.5 -49t-45 -68t-24.5 -76q-9 -45 -4 -83.5
t22 -66.5t45 -44t66 -16q37 0 72 16t63.5 44t49 67t30.5 86q6 33 3.5 69.5t-16.5 67.5t-42.5 51.5t-74.5 20.5zM308 541l-67 137h47l44 -99h2l83 99h44l-118 -137h-35z" />
    <glyph glyph-name="Ucaron" unicode="&#x1d3;" horiz-adv-x="613" 
d="M218 674l-80 -410q-12 -63 -7 -107.5t23 -72.5t47 -41t66 -13q40 0 76.5 13.5t66.5 42t52.5 72.5t34.5 106l80 410h47l-79 -406q-15 -77 -44.5 -130t-68 -86t-84 -48t-92.5 -15q-43 0 -80 13.5t-61 45.5t-32 83.5t7 128.5l81 414h47zM389 724l-67 137h47l44 -99h2l83 99
h44l-118 -137h-35z" />
    <glyph glyph-name="ucaron" unicode="&#x1d4;" horiz-adv-x="519" 
d="M423 117q-6 -32 -10.5 -61t-7.5 -56h-46l16 83h-4q-12 -16 -30 -33t-40.5 -30.5t-49.5 -22t-59 -8.5q-23 0 -49.5 8t-46 30.5t-28 63.5t4.5 107l55 282h48l-53 -272q-8 -39 -8 -71.5t10.5 -56t31.5 -37t55 -13.5q26 0 50 8.5t44 22.5t36 31t26 35q6 11 11.5 24.5
t7.5 27.5l59 301h48zM306 530l-67 137h47l44 -99h2l83 99h44l-118 -137h-35z" />
    <glyph glyph-name="Udieresismacron" unicode="&#x1d5;" horiz-adv-x="613" 
d="M218 674l-80 -410q-12 -63 -7 -107.5t23 -72.5t47 -41t66 -13q40 0 76.5 13.5t66.5 42t52.5 72.5t34.5 106l80 410h47l-79 -406q-15 -77 -44.5 -130t-68 -86t-84 -48t-92.5 -15q-43 0 -80 13.5t-61 45.5t-32 83.5t7 128.5l81 414h47zM291 762q3 16 16.5 27.5t29.5 11.5
t25 -11.5t6 -27.5t-16.5 -27t-29.5 -11t-25 11t-6 27zM459 762q3 16 16.5 27.5t29.5 11.5t25 -11.5t6 -27.5t-16.5 -27t-29.5 -11t-25 11t-6 27zM542 889l-8 -38h-208l8 38h208z" />
    <glyph glyph-name="udieresismacron" unicode="&#x1d6;" horiz-adv-x="519" 
d="M423 117q-6 -32 -10.5 -61t-7.5 -56h-46l16 83h-4q-12 -16 -30 -33t-40.5 -30.5t-49.5 -22t-59 -8.5q-23 0 -49.5 8t-46 30.5t-28 63.5t4.5 107l55 282h48l-53 -272q-8 -39 -8 -71.5t10.5 -56t31.5 -37t55 -13.5q26 0 50 8.5t44 22.5t36 31t26 35q6 11 11.5 24.5
t7.5 27.5l59 301h48zM207 568q3 16 16.5 27.5t29.5 11.5t25 -11.5t6 -27.5t-16.5 -27t-29.5 -11t-25 11t-6 27zM375 568q3 16 16.5 27.5t29.5 11.5t25 -11.5t6 -27.5t-16.5 -27t-29.5 -11t-25 11t-6 27zM458 695l-8 -38h-208l8 38h208z" />
    <glyph glyph-name="Udieresisacute" unicode="&#x1d7;" horiz-adv-x="613" 
d="M218 674l-80 -410q-12 -63 -7 -107.5t23 -72.5t47 -41t66 -13q40 0 76.5 13.5t66.5 42t52.5 72.5t34.5 106l80 410h47l-79 -406q-15 -77 -44.5 -130t-68 -86t-84 -48t-92.5 -15q-43 0 -80 13.5t-61 45.5t-32 83.5t7 128.5l81 414h47zM291 762q3 16 16.5 27.5t29.5 11.5
t25 -11.5t6 -27.5t-16.5 -27t-29.5 -11t-25 11t-6 27zM459 762q3 16 16.5 27.5t29.5 11.5t25 -11.5t6 -27.5t-16.5 -27t-29.5 -11t-25 11t-6 27zM536 988l-148 -137h-36l115 137h69z" />
    <glyph glyph-name="udieresisacute" unicode="&#x1d8;" horiz-adv-x="519" 
d="M423 117q-6 -32 -10.5 -61t-7.5 -56h-46l16 83h-4q-12 -16 -30 -33t-40.5 -30.5t-49.5 -22t-59 -8.5q-23 0 -49.5 8t-46 30.5t-28 63.5t4.5 107l55 282h48l-53 -272q-8 -39 -8 -71.5t10.5 -56t31.5 -37t55 -13.5q26 0 50 8.5t44 22.5t36 31t26 35q6 11 11.5 24.5
t7.5 27.5l59 301h48zM207 568q3 16 16.5 27.5t29.5 11.5t25 -11.5t6 -27.5t-16.5 -27t-29.5 -11t-25 11t-6 27zM375 568q3 16 16.5 27.5t29.5 11.5t25 -11.5t6 -27.5t-16.5 -27t-29.5 -11t-25 11t-6 27zM452 794l-148 -137h-36l115 137h69z" />
    <glyph glyph-name="Udieresiscaron" unicode="&#x1d9;" horiz-adv-x="613" 
d="M218 674l-80 -410q-12 -63 -7 -107.5t23 -72.5t47 -41t66 -13q40 0 76.5 13.5t66.5 42t52.5 72.5t34.5 106l80 410h47l-79 -406q-15 -77 -44.5 -130t-68 -86t-84 -48t-92.5 -15q-43 0 -80 13.5t-61 45.5t-32 83.5t7 128.5l81 414h47zM291 762q3 16 16.5 27.5t29.5 11.5
t25 -11.5t6 -27.5t-16.5 -27t-29.5 -11t-25 11t-6 27zM459 762q3 16 16.5 27.5t29.5 11.5t25 -11.5t6 -27.5t-16.5 -27t-29.5 -11t-25 11t-6 27zM414 851l-67 137h47l44 -99h2l83 99h44l-118 -137h-35z" />
    <glyph glyph-name="udieresiscaron" unicode="&#x1da;" horiz-adv-x="519" 
d="M423 117q-6 -32 -10.5 -61t-7.5 -56h-46l16 83h-4q-12 -16 -30 -33t-40.5 -30.5t-49.5 -22t-59 -8.5q-23 0 -49.5 8t-46 30.5t-28 63.5t4.5 107l55 282h48l-53 -272q-8 -39 -8 -71.5t10.5 -56t31.5 -37t55 -13.5q26 0 50 8.5t44 22.5t36 31t26 35q6 11 11.5 24.5
t7.5 27.5l59 301h48zM207 568q3 16 16.5 27.5t29.5 11.5t25 -11.5t6 -27.5t-16.5 -27t-29.5 -11t-25 11t-6 27zM375 568q3 16 16.5 27.5t29.5 11.5t25 -11.5t6 -27.5t-16.5 -27t-29.5 -11t-25 11t-6 27zM330 657l-67 137h47l44 -99h2l83 99h44l-118 -137h-35z" />
    <glyph glyph-name="Udieresisgrave" unicode="&#x1db;" horiz-adv-x="613" 
d="M218 674l-80 -410q-12 -63 -7 -107.5t23 -72.5t47 -41t66 -13q40 0 76.5 13.5t66.5 42t52.5 72.5t34.5 106l80 410h47l-79 -406q-15 -77 -44.5 -130t-68 -86t-84 -48t-92.5 -15q-43 0 -80 13.5t-61 45.5t-32 83.5t7 128.5l81 414h47zM291 762q3 16 16.5 27.5t29.5 11.5
t25 -11.5t6 -27.5t-16.5 -27t-29.5 -11t-25 11t-6 27zM459 762q3 16 16.5 27.5t29.5 11.5t25 -11.5t6 -27.5t-16.5 -27t-29.5 -11t-25 11t-6 27zM448 988l61 -137h-36l-94 137h69z" />
    <glyph glyph-name="udieresisgrave" unicode="&#x1dc;" horiz-adv-x="519" 
d="M423 117q-6 -32 -10.5 -61t-7.5 -56h-46l16 83h-4q-12 -16 -30 -33t-40.5 -30.5t-49.5 -22t-59 -8.5q-23 0 -49.5 8t-46 30.5t-28 63.5t4.5 107l55 282h48l-53 -272q-8 -39 -8 -71.5t10.5 -56t31.5 -37t55 -13.5q26 0 50 8.5t44 22.5t36 31t26 35q6 11 11.5 24.5
t7.5 27.5l59 301h48zM207 568q3 16 16.5 27.5t29.5 11.5t25 -11.5t6 -27.5t-16.5 -27t-29.5 -11t-25 11t-6 27zM375 568q3 16 16.5 27.5t29.5 11.5t25 -11.5t6 -27.5t-16.5 -27t-29.5 -11t-25 11t-6 27zM364 794l61 -137h-36l-94 137h69z" />
    <glyph glyph-name="uni01DD" unicode="&#x1dd;" horiz-adv-x="409" 
d="M78 456q23 14 60 25.5t82 11.5q43 0 74 -15t51 -41.5t29 -61t9 -73.5q0 -54 -17.5 -109.5t-50 -100.5t-77.5 -73.5t-99 -28.5q-58 0 -90 31.5t-32 78.5q0 45 23.5 74t63.5 46.5t94 24.5t114 7h20q2 11 3.5 23t1.5 28q0 67 -31 110t-94 43q-42 0 -74 -11t-52 -24zM326 216
q-56 0 -104 -4.5t-83.5 -17t-56 -35t-20.5 -58.5q0 -35 23 -54.5t60 -19.5q34 0 63.5 15.5t52.5 42t39.5 60.5t25.5 71z" />
    <glyph glyph-name="Adieresismacron" unicode="&#x1de;" horiz-adv-x="574" 
d="M165 235l-127 -235h-48l369 674h46l106 -674h-49l-37 235h-260zM418 275l-36 223q-5 35 -7 63.5t-4 57.5h-2q-14 -30 -27.5 -58.5t-30.5 -60.5l-124 -225h231zM275 762q3 16 16.5 27.5t29.5 11.5t25 -11.5t6 -27.5t-16.5 -27t-29.5 -11t-25 11t-6 27zM443 762
q3 16 16.5 27.5t29.5 11.5t25 -11.5t6 -27.5t-16.5 -27t-29.5 -11t-25 11t-6 27zM526 889l-8 -38h-208l8 38h208z" />
    <glyph glyph-name="adieresismacron" unicode="&#x1df;" horiz-adv-x="483" 
d="M346 0q-1 23 2 58.5t8 73.5h-2q-36 -75 -86 -109t-101 -34q-31 0 -55 11.5t-41 32.5t-26 50t-9 63q0 63 21.5 125t62 111.5t99 80t132.5 30.5q28 0 58 -4.5t50 -12.5l-52 -265q-12 -59 -16.5 -115t-2.5 -96h-42zM408 447q-23 10 -67 10q-57 0 -104.5 -26.5t-82 -69
t-53.5 -97t-19 -111.5q0 -26 5.5 -49t17.5 -40t30.5 -27t44.5 -10q35 0 66 19t56 52.5t43.5 78.5t28.5 97zM197 579q3 16 16.5 27.5t29.5 11.5t25 -11.5t6 -27.5t-16.5 -27t-29.5 -11t-25 11t-6 27zM365 579q3 16 16.5 27.5t29.5 11.5t25 -11.5t6 -27.5t-16.5 -27t-29.5 -11
t-25 11t-6 27zM449 706l-8 -38h-208l8 38h208z" />
    <glyph glyph-name="Adotmacron" unicode="&#x1e0;" horiz-adv-x="574" 
d="M165 235l-127 -235h-48l369 674h46l106 -674h-49l-37 235h-260zM418 275l-36 223q-5 35 -7 63.5t-4 57.5h-2q-14 -30 -27.5 -58.5t-30.5 -60.5l-124 -225h231zM358 763q3 17 16.5 28.5t30.5 11.5t26 -11.5t6 -28.5t-16.5 -28t-30.5 -11t-26 11t-6 28zM527 891l-8 -38
h-208l8 38h208z" />
    <glyph glyph-name="adotmacron" unicode="&#x1e1;" horiz-adv-x="483" 
d="M346 0q-1 23 2 58.5t8 73.5h-2q-36 -75 -86 -109t-101 -34q-31 0 -55 11.5t-41 32.5t-26 50t-9 63q0 63 21.5 125t62 111.5t99 80t132.5 30.5q28 0 58 -4.5t50 -12.5l-52 -265q-12 -59 -16.5 -115t-2.5 -96h-42zM408 447q-23 10 -67 10q-57 0 -104.5 -26.5t-82 -69
t-53.5 -97t-19 -111.5q0 -26 5.5 -49t17.5 -40t30.5 -27t44.5 -10q35 0 66 19t56 52.5t43.5 78.5t28.5 97zM301 580q3 17 16.5 28.5t30.5 11.5t26 -11.5t6 -28.5t-16.5 -28t-30.5 -11t-26 11t-6 28zM469 708l-8 -38h-208l8 38h208z" />
    <glyph glyph-name="AEmacron" unicode="&#x1e2;" horiz-adv-x="724" 
d="M-42 0l444 674h359l-9 -40h-285l-21 -260h244l-8 -40h-239l-23 -294h238l-7 -40h-278l19 269h-208l-177 -269h-49zM395 308l19 213q2 26 5 59t6 59h-5q-14 -24 -32 -53t-37 -59l-142 -219h186zM586 762l-8 -38h-208l8 38h208z" />
    <glyph glyph-name="aemacron" unicode="&#x1e3;" horiz-adv-x="739" 
d="M379 252q-12 -56 -8.5 -97.5t20.5 -69t45 -41t66 -13.5q51 0 82.5 9.5t47.5 17.5l6 -37q-25 -12 -63 -21.5t-86 -9.5q-61 0 -105 30.5t-51 87.5h-2q-30 -57 -82.5 -87.5t-113.5 -30.5q-36 0 -60 11t-37.5 29t-17 41t0.5 47q16 81 96 128t225 44l5 25q2 12 2.5 35t-8 45.5
t-29 39t-61.5 16.5q-32 0 -66 -9.5t-58 -25.5l-8 34q39 23 78 32t65 9q67 0 97 -31.5t31 -82.5h2q31 54 80 84t107 30q55 0 84.5 -24.5t42 -58.5t12.5 -69t-5 -57q-2 -20 -8 -30h-326zM334 252q-35 1 -77 -2t-80.5 -16.5t-68 -39.5t-38.5 -71q-8 -45 15.5 -69.5t62.5 -24.5
q58 0 98 30t60 72q5 9 7.5 18.5t4.5 18.5zM666 290q6 24 5 52.5t-12 52.5t-33.5 40.5t-58.5 16.5t-66.5 -15.5t-54 -39.5t-38.5 -52.5t-21 -54.5h279zM555 614l-8 -38h-229l8 38h229z" />
    <glyph glyph-name="uni01E4" unicode="&#x1e4;" horiz-adv-x="610" 
d="M346 175l7 38h153l16 82h-153l7 39h200l-23 -121h42l-7 -38h-42l-29 -146q-28 -11 -79.5 -23.5t-118.5 -12.5q-66 0 -119.5 19t-95.5 68q-34 42 -46.5 106t3.5 148q14 72 49 135.5t88 110.5t122.5 74t152.5 27q54 0 91.5 -10t55.5 -20l-24 -39q-23 12 -54 20t-79 8
q-67 0 -125 -21t-103.5 -60.5t-77 -95.5t-45.5 -126q-14 -72 -5 -128.5t38 -95.5t77 -59t113 -20q51 0 86 6.5t54 15.5l24 119h-153z" />
    <glyph glyph-name="uni01E5" unicode="&#x1e5;" horiz-adv-x="481" 
d="M26 -138q19 -15 50 -24t66 -9q47 0 85.5 20.5t66.5 72.5h-121l8 38h130q5 16 10 33.5t10 37.5l17 79h-2q-32 -60 -79 -85.5t-94 -25.5q-35 0 -60.5 13.5t-42.5 36.5t-25.5 53t-8.5 62q0 62 20 121t57 105.5t90 74.5t118 28q36 0 73.5 -9t61.5 -23l-77 -407
q-10 -53 -24 -94h68l-8 -38h-76q-18 -40 -40.5 -65t-48 -39.5t-54 -20t-58.5 -5.5q-38 0 -72 9t-54 25zM406 435q-15 8 -40 15t-52 7q-52 0 -94.5 -25t-73 -65.5t-47 -91.5t-16.5 -103q0 -25 5.5 -49.5t18 -43.5t33 -31t50.5 -12q29 0 57 13.5t52.5 41t43.5 68t29 94.5z" />
    <glyph glyph-name="Gcaron" unicode="&#x1e6;" horiz-adv-x="610" 
d="M517 29q-28 -11 -79.5 -23.5t-118.5 -12.5q-66 0 -119.5 19t-95.5 68q-34 42 -46.5 106t3.5 148q14 72 49 135.5t88 110.5t122.5 74t152.5 27q54 0 91.5 -10t55.5 -20l-24 -39q-23 12 -54 20t-79 8q-67 0 -125 -21t-103.5 -60.5t-77 -95.5t-45.5 -126q-14 -72 -5 -128.5
t38 -95.5t77 -59t113 -20q51 0 86 6.5t54 15.5l47 239h-153l7 39h200zM379 731l-67 137h47l44 -99h2l83 99h44l-118 -137h-35z" />
    <glyph glyph-name="gcaron" unicode="&#x1e7;" horiz-adv-x="481" 
d="M26 -138q19 -15 50 -24t66 -9q33 0 62 9.5t53 33t43 62t31 97.5l17 79h-2q-32 -60 -79 -85.5t-94 -25.5q-35 0 -60.5 13.5t-42.5 36.5t-25.5 53t-8.5 62q0 62 20 121t57 105.5t90 74.5t118 28q36 0 73.5 -9t61.5 -23l-77 -407q-15 -83 -39.5 -134t-56 -79.5t-68.5 -38.5
t-77 -10q-38 0 -72 9t-54 25zM406 435q-15 8 -40 15t-52 7q-52 0 -94.5 -25t-73 -65.5t-47 -91.5t-16.5 -103q0 -25 5.5 -49.5t18 -43.5t33 -31t50.5 -12q29 0 57 13.5t52.5 41t43.5 68t29 94.5zM297 541l-67 137h47l44 -99h2l83 99h44l-118 -137h-35z" />
    <glyph glyph-name="Kcaron" unicode="&#x1e8;" horiz-adv-x="489" 
d="M171 674h47l-67 -341h4q18 20 36 37.5t35 33.5l285 270h58l-307 -286l199 -388h-57l-180 355l-83 -76l-54 -279h-47zM373 724l-67 137h47l44 -99h2l83 99h44l-118 -137h-35z" />
    <glyph glyph-name="kcaron" unicode="&#x1e9;" horiz-adv-x="416" 
d="M134 249h2q11 11 26.5 26t28.5 26l201 179h58l-229 -199l162 -281h-58l-143 251l-58 -51l-38 -200h-47l137 709h47zM311 759l-67 137h47l44 -99h2l83 99h44l-118 -137h-35z" />
    <glyph glyph-name="Oogonek" unicode="&#x1ea;" horiz-adv-x="654" 
d="M281 -11q-60 0 -108 23.5t-78 67.5t-40 107.5t6 143.5q16 83 51.5 149t84.5 111.5t107.5 69.5t120.5 24q61 0 109 -24t77.5 -68t38.5 -107.5t-7 -142.5q-17 -89 -54.5 -155.5t-87 -110.5t-106.5 -66t-114 -22zM290 29q59 0 109 25.5t89 68.5t66 99t39 118q10 53 6 107.5
t-25 98.5t-61 71.5t-101 27.5q-62 0 -113 -27t-89 -71t-63.5 -100.5t-36.5 -114.5q-11 -56 -6 -110.5t27 -97.5t61.5 -69t97.5 -26zM350 -11q-20 -10 -39.5 -22.5t-36 -27.5t-28 -31.5t-14.5 -32.5q-6 -25 6.5 -36.5t29.5 -11.5q11 0 24.5 2t26.5 8l2 -31q-32 -15 -71 -15
q-34 0 -52 20t-11 55q3 19 17 39t32.5 37t38 29.5t34.5 17.5h41z" />
    <glyph glyph-name="oogonek" unicode="&#x1eb;" horiz-adv-x="520" 
d="M317 491q48 0 84.5 -17.5t59 -50t29.5 -78t-4 -101.5q-13 -68 -42.5 -116t-68 -79t-81 -45.5t-81.5 -14.5q-45 0 -81 17t-58.5 49.5t-30.5 78t3 102.5q12 62 39.5 109.5t64.5 80t80.5 49t86.5 16.5zM308 451q-45 0 -81 -19t-63.5 -49t-45 -68t-24.5 -76q-9 -45 -4 -83.5
t22 -66.5t45 -44t66 -16q37 0 72 16t63.5 44t49 67t30.5 86q6 33 3.5 69.5t-16.5 67.5t-42.5 51.5t-74.5 20.5zM283 -11q-20 -10 -39.5 -22.5t-36 -27.5t-28 -31.5t-14.5 -32.5q-6 -25 6.5 -36.5t29.5 -11.5q11 0 24.5 2t26.5 8l2 -31q-32 -15 -71 -15q-34 0 -52 20t-11 55
q3 19 17 39t32.5 37t38 29.5t34.5 17.5h41z" />
    <glyph glyph-name="Oogonekmacron" unicode="&#x1ec;" horiz-adv-x="654" 
d="M281 -11q-60 0 -108 23.5t-78 67.5t-40 107.5t6 143.5q16 83 51.5 149t84.5 111.5t107.5 69.5t120.5 24q61 0 109 -24t77.5 -68t38.5 -107.5t-7 -142.5q-17 -89 -54.5 -155.5t-87 -110.5t-106.5 -66t-114 -22zM290 29q59 0 109 25.5t89 68.5t66 99t39 118q10 53 6 107.5
t-25 98.5t-61 71.5t-101 27.5q-62 0 -113 -27t-89 -71t-63.5 -100.5t-36.5 -114.5q-11 -56 -6 -110.5t27 -97.5t61.5 -69t97.5 -26zM350 -11q-20 -10 -39.5 -22.5t-36 -27.5t-28 -31.5t-14.5 -32.5q-6 -25 6.5 -36.5t29.5 -11.5q11 0 24.5 2t26.5 8l2 -31q-32 -15 -71 -15
q-34 0 -52 20t-11 55q3 19 17 39t32.5 37t38 29.5t34.5 17.5h41zM541 773l-8 -38h-208l8 38h208z" />
    <glyph glyph-name="oogonekmacron" unicode="&#x1ed;" horiz-adv-x="520" 
d="M283 -11q-20 -10 -39.5 -22.5t-36 -27.5t-28 -31.5t-14.5 -32.5q-6 -25 6.5 -36.5t29.5 -11.5q11 0 24.5 2t26.5 8l2 -31q-32 -15 -71 -15q-34 0 -52 20t-11 55q3 19 17 39t32.5 37t38 29.5t34.5 17.5h41zM317 491q48 0 84.5 -17.5t59 -50t29.5 -78t-4 -101.5
q-13 -68 -42.5 -116t-68 -79t-81 -45.5t-81.5 -14.5q-45 0 -81 17t-58.5 49.5t-30.5 78t3 102.5q12 62 39.5 109.5t64.5 80t80.5 49t86.5 16.5zM308 451q-45 0 -81 -19t-63.5 -49t-45 -68t-24.5 -76q-9 -45 -4 -83.5t22 -66.5t45 -44t66 -16q37 0 72 16t63.5 44t49 67
t30.5 86q6 33 3.5 69.5t-16.5 67.5t-42.5 51.5t-74.5 20.5zM455 614l-8 -38h-229l8 38h229z" />
    <glyph glyph-name="jcaron" unicode="&#x1f0;" horiz-adv-x="211" 
d="M-120 -170q31 2 58 11.5t46 29.5q12 11 21.5 25t18 35.5t16.5 53.5t17 79l81 416h48l-87 -447q-13 -66 -31.5 -111t-56.5 -79q-15 -14 -33 -23.5t-36 -15.5t-34.5 -9t-28.5 -3zM155 530l-67 137h47l44 -99h2l83 99h44l-118 -137h-35z" />
    <glyph glyph-name="DZ" unicode="&#x1f1;" horiz-adv-x="1157" 
d="M169 665q39 6 81 10t88 4q91 0 152.5 -23t93.5 -66q32 -42 43 -99.5t-5 -136.5q-15 -78 -48.5 -142.5t-88.5 -115.5q-54 -48 -130 -74.5t-172 -26.5q-38 0 -73.5 1t-69.5 5zM94 40q20 -3 46.5 -4t56.5 -1q157 0 252.5 83.5t124.5 232.5q12 64 4.5 117.5t-36.5 91
t-82 58.5t-132 21q-37 0 -67 -3t-52 -7zM631 31l512 600l1 3h-363l8 40h423l-7 -31l-512 -600l-1 -3h400l-7 -40h-460z" />
    <glyph glyph-name="Dz" unicode="&#x1f2;" horiz-adv-x="1027" 
d="M169 665q39 6 81 10t88 4q91 0 152.5 -23t93.5 -66q32 -42 43 -99.5t-5 -136.5q-15 -78 -48.5 -142.5t-88.5 -115.5q-54 -48 -130 -74.5t-172 -26.5q-38 0 -73.5 1t-69.5 5zM94 40q20 -3 46.5 -4t56.5 -1q157 0 252.5 83.5t124.5 232.5q12 64 4.5 117.5t-36.5 91
t-82 58.5t-132 21q-37 0 -67 -3t-52 -7zM613 29l318 341q18 17 34 34t34 35v2h-285l8 39h342l-6 -32l-320 -341q-16 -17 -31 -33t-32 -33v-2h304l-7 -39h-364z" />
    <glyph glyph-name="dz" unicode="&#x1f3;" horiz-adv-x="927" 
d="M505 709l-106 -560q-7 -37 -12.5 -76.5t-7.5 -72.5h-42q2 24 5.5 49.5t8.5 51.5h-2q-32 -57 -79 -84.5t-95 -27.5q-34 0 -59.5 13.5t-43 36.5t-26 55t-8.5 68q0 65 22.5 125t61.5 105.5t92.5 73t115.5 27.5q26 0 47.5 -4.5t38.5 -12.5l44 233h45zM409 437q-14 8 -35.5 14
t-46.5 6q-51 0 -95.5 -24.5t-77 -65t-51 -93t-18.5 -107.5q0 -28 5.5 -53t18 -44.5t32.5 -31t49 -11.5q31 0 59.5 14.5t52.5 41t41.5 64t26.5 84.5zM513 29l318 341q18 17 34 34t34 35v2h-285l8 39h342l-6 -32l-320 -341q-16 -17 -31 -33t-32 -33v-2h304l-7 -39h-364z" />
    <glyph glyph-name="Gacute" unicode="&#x1f4;" horiz-adv-x="610" 
d="M517 29q-28 -11 -79.5 -23.5t-118.5 -12.5q-66 0 -119.5 19t-95.5 68q-34 42 -46.5 106t3.5 148q14 72 49 135.5t88 110.5t122.5 74t152.5 27q54 0 91.5 -10t55.5 -20l-24 -39q-23 12 -54 20t-79 8q-67 0 -125 -21t-103.5 -60.5t-77 -95.5t-45.5 -126q-14 -72 -5 -128.5
t38 -95.5t77 -59t113 -20q51 0 86 6.5t54 15.5l47 239h-153l7 39h200zM501 868l-148 -137h-36l115 137h69z" />
    <glyph glyph-name="gacute" unicode="&#x1f5;" horiz-adv-x="481" 
d="M26 -138q19 -15 50 -24t66 -9q33 0 62 9.5t53 33t43 62t31 97.5l17 79h-2q-32 -60 -79 -85.5t-94 -25.5q-35 0 -60.5 13.5t-42.5 36.5t-25.5 53t-8.5 62q0 62 20 121t57 105.5t90 74.5t118 28q36 0 73.5 -9t61.5 -23l-77 -407q-15 -83 -39.5 -134t-56 -79.5t-68.5 -38.5
t-77 -10q-38 0 -72 9t-54 25zM406 435q-15 8 -40 15t-52 7q-52 0 -94.5 -25t-73 -65.5t-47 -91.5t-16.5 -103q0 -25 5.5 -49.5t18 -43.5t33 -31t50.5 -12q29 0 57 13.5t52.5 41t43.5 68t29 94.5zM469 678l-148 -137h-36l115 137h69z" />
    <glyph glyph-name="Ngrave" unicode="&#x1f8;" horiz-adv-x="624" 
d="M40 0l131 674h45l178 -395q27 -63 47.5 -113.5t34.5 -101.5l2 1q4 35 9 67.5t10.5 65.5t12 68t14.5 75l65 333h46l-131 -674h-44l-175 390q-25 60 -47 113t-38 107l-2 -1q-4 -32 -9 -62.5t-11 -62.5t-12.5 -68t-14.5 -79l-65 -337h-46zM429 861l61 -137h-36l-94 137h69z
" />
    <glyph glyph-name="ngrave" unicode="&#x1f9;" horiz-adv-x="525" 
d="M109 365q7 34 11 60t8 55h46l-17 -85h4q27 40 74.5 68t105.5 28q16 0 42.5 -6.5t49 -27.5t34 -60.5t-1.5 -105.5l-56 -291h-47l55 286q6 32 5.5 62t-11 52.5t-32.5 36t-59 13.5q-50 0 -94 -31t-67 -79q-5 -10 -9.5 -20.5t-6.5 -21.5l-57 -298h-47zM314 678l61 -137h-36
l-94 137h69z" />
    <glyph glyph-name="Aringacute" unicode="&#x1fa;" horiz-adv-x="574" 
d="M165 235l-127 -235h-48l369 674h46l106 -674h-49l-37 235h-260zM418 275l-36 223q-5 35 -7 63.5t-4 57.5h-2q-14 -30 -27.5 -58.5t-30.5 -60.5l-124 -225h231zM498 815q-3 -19 -13.5 -35.5t-25 -29t-32.5 -19.5t-37 -7q-38 0 -59.5 26.5t-14.5 64.5q4 19 14.5 35.5t25 29
t32.5 19.5t37 7q38 0 59.5 -26.5t13.5 -64.5zM351 815q-4 -24 9 -40.5t36 -16.5q24 0 44 16.5t24 40.5q5 23 -8.5 40t-37.5 17q-23 0 -42.5 -17t-24.5 -40zM540 1093l-148 -137h-36l115 137h69z" />
    <glyph glyph-name="aringacute" unicode="&#x1fb;" horiz-adv-x="483" 
d="M346 0q-1 23 2 58.5t8 73.5h-2q-36 -75 -86 -109t-101 -34q-31 0 -55 11.5t-41 32.5t-26 50t-9 63q0 63 21.5 125t62 111.5t99 80t132.5 30.5q28 0 58 -4.5t50 -12.5l-52 -265q-12 -59 -16.5 -115t-2.5 -96h-42zM408 447q-23 10 -67 10q-57 0 -104.5 -26.5t-82 -69
t-53.5 -97t-19 -111.5q0 -26 5.5 -49t17.5 -40t30.5 -27t44.5 -10q35 0 66 19t56 52.5t43.5 78.5t28.5 97zM431 627q-3 -19 -13.5 -35.5t-25 -29t-32.5 -19.5t-37 -7q-38 0 -59.5 26.5t-14.5 64.5q4 19 14.5 35.5t25 29t32.5 19.5t37 7q38 0 59.5 -26.5t13.5 -64.5zM284 627
q-4 -24 9 -40.5t36 -16.5q24 0 44 16.5t24 40.5q5 23 -8.5 40t-37.5 17q-23 0 -42.5 -17t-24.5 -40zM501 890l-148 -137h-36l115 137h69z" />
    <glyph glyph-name="AEacute" unicode="&#x1fc;" horiz-adv-x="724" 
d="M-42 0l444 674h359l-9 -40h-285l-21 -260h244l-8 -40h-239l-23 -294h238l-7 -40h-278l19 269h-208l-177 -269h-49zM395 308l19 213q2 26 5 59t6 59h-5q-14 -24 -32 -53t-37 -59l-142 -219h186zM599 861l-148 -137h-36l115 137h69z" />
    <glyph glyph-name="aeacute" unicode="&#x1fd;" horiz-adv-x="739" 
d="M379 252q-12 -56 -8.5 -97.5t20.5 -69t45 -41t66 -13.5q51 0 82.5 9.5t47.5 17.5l6 -37q-25 -12 -63 -21.5t-86 -9.5q-61 0 -105 30.5t-51 87.5h-2q-30 -57 -82.5 -87.5t-113.5 -30.5q-36 0 -60 11t-37.5 29t-17 41t0.5 47q16 81 96 128t225 44l5 25q2 12 2.5 35t-8 45.5
t-29 39t-61.5 16.5q-32 0 -66 -9.5t-58 -25.5l-8 34q39 23 78 32t65 9q67 0 97 -31.5t31 -82.5h2q31 54 80 84t107 30q55 0 84.5 -24.5t42 -58.5t12.5 -69t-5 -57q-2 -20 -8 -30h-326zM334 252q-35 1 -77 -2t-80.5 -16.5t-68 -39.5t-38.5 -71q-8 -45 15.5 -69.5t62.5 -24.5
q58 0 98 30t60 72q5 9 7.5 18.5t4.5 18.5zM666 290q6 24 5 52.5t-12 52.5t-33.5 40.5t-58.5 16.5t-66.5 -15.5t-54 -39.5t-38.5 -52.5t-21 -54.5h279zM579 678l-148 -137h-36l115 137h69z" />
    <glyph glyph-name="Oslashacute" unicode="&#x1fe;" horiz-adv-x="654" 
d="M94 81q-29 45 -39 107t6 143q16 83 51.5 149t84.5 111.5t107.5 69.5t120.5 24q103 0 162 -63l74 80l28 -22l-79 -86q29 -45 39 -107.5t-6 -143.5q-17 -89 -54.5 -155.5t-87 -110.5t-106.5 -66t-114 -22q-104 0 -166 65l-75 -82l-24 23zM290 29q59 0 109 25.5t89 68.5
t66 99t39 118q10 55 5.5 111t-27.5 101l-420 -459q23 -30 57 -47t82 -17zM110 332q-11 -57 -6 -112t28 -98l420 460q-24 29 -58 46t-82 17q-62 0 -113 -27t-89 -71t-63.5 -100.5t-36.5 -114.5zM538 889l-148 -137h-36l115 137h69z" />
    <glyph glyph-name="oslashacute" unicode="&#x1ff;" horiz-adv-x="520" 
d="M456 428q24 -32 32.5 -79t-2.5 -105q-13 -68 -42.5 -116t-68 -79t-81 -45.5t-81.5 -14.5q-69 0 -113 38l-50 -54l-23 23l49 56q-24 32 -32.5 78t2.5 106q12 62 39.5 109.5t64.5 80t80.5 49t86.5 16.5q35 0 64 -10t52 -28l47 53l27 -20zM308 451q-45 0 -81 -19t-63.5 -49
t-45 -68t-24.5 -76q-17 -90 16 -148l289 325q-16 16 -38 25.5t-53 9.5zM438 242q6 35 3 74.5t-21 71.5l-288 -325q34 -34 91 -34q37 0 72 16t63.5 44t49 67t30.5 86zM433 693l-148 -137h-36l115 137h69z" />
    <glyph glyph-name="Adblgrave" unicode="&#x200;" horiz-adv-x="574" 
d="M165 235l-127 -235h-48l369 674h46l106 -674h-49l-37 235h-260zM418 275l-36 223q-5 35 -7 63.5t-4 57.5h-2q-14 -30 -27.5 -58.5t-30.5 -60.5l-124 -225h231zM482 861l61 -137h-36l-94 137h69zM332 861l61 -137h-36l-94 137h69z" />
    <glyph glyph-name="adblgrave" unicode="&#x201;" horiz-adv-x="483" 
d="M346 0q-1 23 2 58.5t8 73.5h-2q-36 -75 -86 -109t-101 -34q-31 0 -55 11.5t-41 32.5t-26 50t-9 63q0 63 21.5 125t62 111.5t99 80t132.5 30.5q28 0 58 -4.5t50 -12.5l-52 -265q-12 -59 -16.5 -115t-2.5 -96h-42zM408 447q-23 10 -67 10q-57 0 -104.5 -26.5t-82 -69
t-53.5 -97t-19 -111.5q0 -26 5.5 -49t17.5 -40t30.5 -27t44.5 -10q35 0 66 19t56 52.5t43.5 78.5t28.5 97zM365 678l61 -137h-36l-94 137h69zM215 678l61 -137h-36l-94 137h69z" />
    <glyph glyph-name="Ainvertedbreve" unicode="&#x202;" horiz-adv-x="574" 
d="M165 235l-127 -235h-48l369 674h46l106 -674h-49l-37 235h-260zM418 275l-36 223q-5 35 -7 63.5t-4 57.5h-2q-14 -30 -27.5 -58.5t-30.5 -60.5l-124 -225h231zM277 724q3 19 13 39.5t26.5 36.5t40.5 26.5t55 10.5q51 0 76 -31t16 -82h-36q1 13 -2 26t-10.5 23.5t-20 17
t-31.5 6.5q-31 0 -56.5 -21.5t-35.5 -51.5h-35z" />
    <glyph glyph-name="ainvertedbreve" unicode="&#x203;" horiz-adv-x="483" 
d="M346 0q-1 23 2 58.5t8 73.5h-2q-36 -75 -86 -109t-101 -34q-31 0 -55 11.5t-41 32.5t-26 50t-9 63q0 63 21.5 125t62 111.5t99 80t132.5 30.5q28 0 58 -4.5t50 -12.5l-52 -265q-12 -59 -16.5 -115t-2.5 -96h-42zM408 447q-23 10 -67 10q-57 0 -104.5 -26.5t-82 -69
t-53.5 -97t-19 -111.5q0 -26 5.5 -49t17.5 -40t30.5 -27t44.5 -10q35 0 66 19t56 52.5t43.5 78.5t28.5 97zM200 541q3 19 13 39.5t26.5 36.5t40.5 26.5t55 10.5q51 0 76 -31t16 -82h-36q1 13 -2 26t-10.5 23.5t-20 17t-31.5 6.5q-31 0 -56.5 -21.5t-35.5 -51.5h-35z" />
    <glyph glyph-name="Edblgrave" unicode="&#x204;" horiz-adv-x="456" 
d="M416 335h-264l-58 -295h295l-7 -40h-342l131 674h327l-8 -40h-280l-51 -259h264zM443 861l61 -137h-36l-94 137h69zM293 861l61 -137h-36l-94 137h69z" />
    <glyph glyph-name="edblgrave" unicode="&#x205;" horiz-adv-x="409" 
d="M342 27q-23 -14 -60 -25.5t-82 -11.5q-44 0 -74.5 15t-50.5 41.5t-29 61t-9 73.5q0 54 17.5 109.5t50 100.5t77.5 73.5t99 28.5q58 0 90 -31.5t32 -78.5q0 -45 -23.5 -74t-63.5 -46.5t-94 -24.5t-114 -7h-20q-2 -11 -3.5 -23t-1.5 -28q0 -67 31 -110t94 -43q42 0 74 11
t52 24zM94 267q56 0 104 4.5t83.5 17t56 35t20.5 58.5q0 35 -23 54.5t-60 19.5q-34 0 -63.5 -16t-52.5 -42t-39.5 -60t-25.5 -71zM324 678l61 -137h-36l-94 137h69zM174 678l61 -137h-36l-94 137h69z" />
    <glyph glyph-name="Einvertedbreve" unicode="&#x206;" horiz-adv-x="456" 
d="M416 335h-264l-58 -295h295l-7 -40h-342l131 674h327l-8 -40h-280l-51 -259h264zM238 724q3 19 13 39.5t26.5 36.5t40.5 26.5t55 10.5q51 0 76 -31t16 -82h-36q1 13 -2 26t-10.5 23.5t-20 17t-31.5 6.5q-31 0 -56.5 -21.5t-35.5 -51.5h-35z" />
    <glyph glyph-name="einvertedbreve" unicode="&#x207;" horiz-adv-x="409" 
d="M342 27q-23 -14 -60 -25.5t-82 -11.5q-44 0 -74.5 15t-50.5 41.5t-29 61t-9 73.5q0 54 17.5 109.5t50 100.5t77.5 73.5t99 28.5q58 0 90 -31.5t32 -78.5q0 -45 -23.5 -74t-63.5 -46.5t-94 -24.5t-114 -7h-20q-2 -11 -3.5 -23t-1.5 -28q0 -67 31 -110t94 -43q42 0 74 11
t52 24zM94 267q56 0 104 4.5t83.5 17t56 35t20.5 58.5q0 35 -23 54.5t-60 19.5q-34 0 -63.5 -16t-52.5 -42t-39.5 -60t-25.5 -71zM159 541q3 19 13 39.5t26.5 36.5t40.5 26.5t55 10.5q51 0 76 -31t16 -82h-36q1 13 -2 26t-10.5 23.5t-20 17t-31.5 6.5q-31 0 -56.5 -21.5
t-35.5 -51.5h-35z" />
    <glyph glyph-name="Idblgrave" unicode="&#x208;" horiz-adv-x="208" 
d="M218 674l-131 -674h-47l131 674h47zM295 861l61 -137h-36l-94 137h69zM145 861l61 -137h-36l-94 137h69z" />
    <glyph glyph-name="idblgrave" unicode="&#x209;" horiz-adv-x="206" 
d="M39 0l93 480h47l-93 -480h-47zM257 667l61 -137h-36l-94 137h69zM107 667l61 -137h-36l-94 137h69z" />
    <glyph glyph-name="Iinvertedbreve" unicode="&#x20a;" horiz-adv-x="208" 
d="M218 674l-131 -674h-47l131 674h47zM90 724q3 19 13 39.5t26.5 36.5t40.5 26.5t55 10.5q51 0 76 -31t16 -82h-36q1 13 -2 26t-10.5 23.5t-20 17t-31.5 6.5q-31 0 -56.5 -21.5t-35.5 -51.5h-35z" />
    <glyph glyph-name="iinvertedbreve" unicode="&#x20b;" horiz-adv-x="206" 
d="M39 0l93 480h47l-93 -480h-47zM51 530q3 19 13 39.5t26.5 36.5t40.5 26.5t55 10.5q51 0 76 -31t16 -82h-36q1 13 -2 26t-10.5 23.5t-20 17t-31.5 6.5q-31 0 -56.5 -21.5t-35.5 -51.5h-35z" />
    <glyph glyph-name="Odblgrave" unicode="&#x20c;" horiz-adv-x="654" 
d="M281 -11q-60 0 -108 23.5t-78 67.5t-40 107.5t6 143.5q16 83 51.5 149t84.5 111.5t107.5 69.5t120.5 24q61 0 109 -24t77.5 -68t38.5 -107.5t-7 -142.5q-17 -89 -54.5 -155.5t-87 -110.5t-106.5 -66t-114 -22zM290 29q59 0 109 25.5t89 68.5t66 99t39 118q10 53 6 107.5
t-25 98.5t-61 71.5t-101 27.5q-62 0 -113 -27t-89 -71t-63.5 -100.5t-36.5 -114.5q-11 -56 -6 -110.5t27 -97.5t61.5 -69t97.5 -26zM521 872l61 -137h-36l-94 137h69zM371 872l61 -137h-36l-94 137h69z" />
    <glyph glyph-name="odblgrave" unicode="&#x20d;" horiz-adv-x="520" 
d="M317 491q48 0 84.5 -17.5t59 -50t29.5 -78t-4 -101.5q-13 -68 -42.5 -116t-68 -79t-81 -45.5t-81.5 -14.5q-45 0 -81 17t-58.5 49.5t-30.5 78t3 102.5q12 62 39.5 109.5t64.5 80t80.5 49t86.5 16.5zM308 451q-45 0 -81 -19t-63.5 -49t-45 -68t-24.5 -76q-9 -45 -4 -83.5
t22 -66.5t45 -44t66 -16q37 0 72 16t63.5 44t49 67t30.5 86q6 33 3.5 69.5t-16.5 67.5t-42.5 51.5t-74.5 20.5zM377 678l61 -137h-36l-94 137h69zM227 678l61 -137h-36l-94 137h69z" />
    <glyph glyph-name="Oinvertedbreve" unicode="&#x20e;" horiz-adv-x="654" 
d="M281 -11q-60 0 -108 23.5t-78 67.5t-40 107.5t6 143.5q16 83 51.5 149t84.5 111.5t107.5 69.5t120.5 24q61 0 109 -24t77.5 -68t38.5 -107.5t-7 -142.5q-17 -89 -54.5 -155.5t-87 -110.5t-106.5 -66t-114 -22zM290 29q59 0 109 25.5t89 68.5t66 99t39 118q10 53 6 107.5
t-25 98.5t-61 71.5t-101 27.5q-62 0 -113 -27t-89 -71t-63.5 -100.5t-36.5 -114.5q-11 -56 -6 -110.5t27 -97.5t61.5 -69t97.5 -26zM316 735q3 19 13 39.5t26.5 36.5t40.5 26.5t55 10.5q51 0 76 -31t16 -82h-36q1 13 -2 26t-10.5 23.5t-20 17t-31.5 6.5q-31 0 -56.5 -21.5
t-35.5 -51.5h-35z" />
    <glyph glyph-name="oinvertedbreve" unicode="&#x20f;" horiz-adv-x="520" 
d="M317 491q48 0 84.5 -17.5t59 -50t29.5 -78t-4 -101.5q-13 -68 -42.5 -116t-68 -79t-81 -45.5t-81.5 -14.5q-45 0 -81 17t-58.5 49.5t-30.5 78t3 102.5q12 62 39.5 109.5t64.5 80t80.5 49t86.5 16.5zM308 451q-45 0 -81 -19t-63.5 -49t-45 -68t-24.5 -76q-9 -45 -4 -83.5
t22 -66.5t45 -44t66 -16q37 0 72 16t63.5 44t49 67t30.5 86q6 33 3.5 69.5t-16.5 67.5t-42.5 51.5t-74.5 20.5zM212 541q3 19 13 39.5t26.5 36.5t40.5 26.5t55 10.5q51 0 76 -31t16 -82h-36q1 13 -2 26t-10.5 23.5t-20 17t-31.5 6.5q-31 0 -56.5 -21.5t-35.5 -51.5h-35z" />
    <glyph glyph-name="Rdblgrave" unicode="&#x210;" horiz-adv-x="496" 
d="M169 665q31 7 70.5 10.5t73.5 3.5q66 0 105.5 -14t62.5 -42q18 -21 24 -53t-1 -67q-13 -69 -57 -112.5t-107 -63.5v-2q38 -13 56 -50t18 -95q2 -79 5 -120t11 -60h-50q-6 15 -8 57.5t-3 106.5q-1 75 -28 108.5t-93 36.5h-101l-60 -309h-47zM154 347h103q78 0 131.5 39.5
t66.5 108.5q14 76 -28.5 110.5t-121.5 34.5q-33 0 -57.5 -3t-38.5 -6zM468 866l61 -137h-36l-94 137h69zM318 866l61 -137h-36l-94 137h69z" />
    <glyph glyph-name="rdblgrave" unicode="&#x211;" horiz-adv-x="290" 
d="M105 338q7 35 13 71.5t11 70.5h45l-19 -96h3q25 45 66 76t90 31q4 0 8.5 -0.5t9.5 -1.5l-9 -46q-6 1 -11 1h-12q-24 0 -47 -10t-42.5 -28t-35 -42.5t-25.5 -52.5q-4 -11 -7.5 -22.5t-5.5 -22.5l-51 -266h-47zM303 678l61 -137h-36l-94 137h69zM153 678l61 -137h-36
l-94 137h69z" />
    <glyph glyph-name="Rinvertedbreve" unicode="&#x212;" horiz-adv-x="496" 
d="M169 665q31 7 70.5 10.5t73.5 3.5q66 0 105.5 -14t62.5 -42q18 -21 24 -53t-1 -67q-13 -69 -57 -112.5t-107 -63.5v-2q38 -13 56 -50t18 -95q2 -79 5 -120t11 -60h-50q-6 15 -8 57.5t-3 106.5q-1 75 -28 108.5t-93 36.5h-101l-60 -309h-47zM154 347h103q78 0 131.5 39.5
t66.5 108.5q14 76 -28.5 110.5t-121.5 34.5q-33 0 -57.5 -3t-38.5 -6zM263 729q3 19 13 39.5t26.5 36.5t40.5 26.5t55 10.5q51 0 76 -31t16 -82h-36q1 13 -2 26t-10.5 23.5t-20 17t-31.5 6.5q-31 0 -56.5 -21.5t-35.5 -51.5h-35z" />
    <glyph glyph-name="rinvertedbreve" unicode="&#x213;" horiz-adv-x="290" 
d="M105 338q7 35 13 71.5t11 70.5h45l-19 -96h3q25 45 66 76t90 31q4 0 8.5 -0.5t9.5 -1.5l-9 -46q-6 1 -11 1h-12q-24 0 -47 -10t-42.5 -28t-35 -42.5t-25.5 -52.5q-4 -11 -7.5 -22.5t-5.5 -22.5l-51 -266h-47zM128 541q3 19 13 39.5t26.5 36.5t40.5 26.5t55 10.5
q51 0 76 -31t16 -82h-36q1 13 -2 26t-10.5 23.5t-20 17t-31.5 6.5q-31 0 -56.5 -21.5t-35.5 -51.5h-35z" />
    <glyph glyph-name="Udblgrave" unicode="&#x214;" horiz-adv-x="613" 
d="M218 674l-80 -410q-12 -63 -7 -107.5t23 -72.5t47 -41t66 -13q40 0 76.5 13.5t66.5 42t52.5 72.5t34.5 106l80 410h47l-79 -406q-15 -77 -44.5 -130t-68 -86t-84 -48t-92.5 -15q-43 0 -80 13.5t-61 45.5t-32 83.5t7 128.5l81 414h47zM498 861l61 -137h-36l-94 137h69z
M348 861l61 -137h-36l-94 137h69z" />
    <glyph glyph-name="udblgrave" unicode="&#x215;" horiz-adv-x="519" 
d="M423 117q-6 -32 -10.5 -61t-7.5 -56h-46l16 83h-4q-12 -16 -30 -33t-40.5 -30.5t-49.5 -22t-59 -8.5q-23 0 -49.5 8t-46 30.5t-28 63.5t4.5 107l55 282h48l-53 -272q-8 -39 -8 -71.5t10.5 -56t31.5 -37t55 -13.5q26 0 50 8.5t44 22.5t36 31t26 35q6 11 11.5 24.5
t7.5 27.5l59 301h48zM415 667l61 -137h-36l-94 137h69zM265 667l61 -137h-36l-94 137h69z" />
    <glyph glyph-name="Uinvertedbreve" unicode="&#x216;" horiz-adv-x="613" 
d="M218 674l-80 -410q-12 -63 -7 -107.5t23 -72.5t47 -41t66 -13q40 0 76.5 13.5t66.5 42t52.5 72.5t34.5 106l80 410h47l-79 -406q-15 -77 -44.5 -130t-68 -86t-84 -48t-92.5 -15q-43 0 -80 13.5t-61 45.5t-32 83.5t7 128.5l81 414h47zM293 724q3 19 13 39.5t26.5 36.5
t40.5 26.5t55 10.5q51 0 76 -31t16 -82h-36q1 13 -2 26t-10.5 23.5t-20 17t-31.5 6.5q-31 0 -56.5 -21.5t-35.5 -51.5h-35z" />
    <glyph glyph-name="uinvertedbreve" unicode="&#x217;" horiz-adv-x="519" 
d="M423 117q-6 -32 -10.5 -61t-7.5 -56h-46l16 83h-4q-12 -16 -30 -33t-40.5 -30.5t-49.5 -22t-59 -8.5q-23 0 -49.5 8t-46 30.5t-28 63.5t4.5 107l55 282h48l-53 -272q-8 -39 -8 -71.5t10.5 -56t31.5 -37t55 -13.5q26 0 50 8.5t44 22.5t36 31t26 35q6 11 11.5 24.5
t7.5 27.5l59 301h48zM209 530q3 19 13 39.5t26.5 36.5t40.5 26.5t55 10.5q51 0 76 -31t16 -82h-36q1 13 -2 26t-10.5 23.5t-20 17t-31.5 6.5q-31 0 -56.5 -21.5t-35.5 -51.5h-35z" />
    <glyph glyph-name="Scommaaccent" unicode="&#x218;" horiz-adv-x="455" 
d="M33 74q24 -20 58.5 -32t76.5 -12q75 0 125 38.5t63 101.5q11 57 -13.5 93t-90.5 65q-72 28 -109.5 72t-24.5 114q8 37 28.5 68.5t50.5 54t67.5 35t79.5 12.5q48 0 79.5 -10t45.5 -21l-25 -40q-12 10 -40 20.5t-70 10.5q-41 0 -70.5 -11.5t-49.5 -29.5t-31.5 -39.5
t-15.5 -41.5q-11 -56 15.5 -89.5t92.5 -61.5q37 -17 64.5 -36t44 -42t21.5 -52t-2 -66q-8 -37 -28 -70.5t-51 -59t-73 -40.5t-94 -15q-43 0 -85.5 12.5t-64.5 31.5zM72 -282q9 16 21.5 42t25.5 56t25.5 60.5t20.5 53.5l65 10q-13 -28 -30 -61.5t-34.5 -64.5t-32 -56
t-22.5 -35z" />
    <glyph glyph-name="scommaaccent" unicode="&#x219;" horiz-adv-x="366" 
d="M32 63q16 -12 41 -22.5t57 -10.5q57 0 89 26.5t39 64.5q8 39 -11 63.5t-67 45.5q-54 23 -78.5 54.5t-15.5 76.5q5 26 19.5 49.5t37 41.5t51.5 28.5t63 10.5q32 0 57 -9t41 -21l-26 -39q-11 9 -31.5 19t-55.5 10q-45 0 -73.5 -25t-34.5 -58q-7 -37 13 -57.5t65 -40.5
q54 -23 79.5 -55.5t14.5 -87.5q-12 -63 -63 -100t-123 -37q-35 0 -64.5 9t-49.5 24zM29 -282q9 16 21.5 42t25.5 56t25.5 60.5t20.5 53.5l65 10q-13 -28 -30 -61.5t-34.5 -64.5t-32 -56t-22.5 -35z" />
    <glyph glyph-name="uni021A" unicode="&#x21a;" horiz-adv-x="456" 
d="M288 634h-214l8 40h475l-8 -40h-214l-123 -634h-47zM77 -272q9 16 21.5 42t25.5 56t25.5 60.5t20.5 53.5l65 10q-13 -28 -30 -61.5t-34.5 -64.5t-32 -56t-22.5 -35z" />
    <glyph glyph-name="uni021B" unicode="&#x21b;" horiz-adv-x="303" 
d="M218 586l-20 -106h133l-8 -38h-133l-60 -313q-10 -48 0.5 -73.5t48.5 -25.5q18 0 31.5 2t23.5 5l-2 -36q-25 -11 -66 -11q-33 0 -52.5 11t-28.5 30.5t-8.5 47t6.5 59.5l59 304h-79l8 38h79l17 88zM25 -282q9 16 21.5 42t25.5 56t25.5 60.5t20.5 53.5l65 10
q-13 -28 -30 -61.5t-34.5 -64.5t-32 -56t-22.5 -35z" />
    <glyph glyph-name="Hcaron" unicode="&#x21e;" horiz-adv-x="616" 
d="M218 674l-58 -297h362l58 297h47l-131 -674h-47l65 337h-362l-65 -337h-47l131 674h47zM391 724l-67 137h47l44 -99h2l83 99h44l-118 -137h-35z" />
    <glyph glyph-name="hcaron" unicode="&#x21f;" horiz-adv-x="525" 
d="M176 709h47l-61 -313h2q32 45 76.5 70t101.5 25q16 0 42.5 -6.5t48.5 -27.5t33.5 -60t-1.5 -104l-56 -293h-47l55 287q7 32 6.5 61.5t-11.5 52t-33 36t-58 13.5q-51 0 -94.5 -31.5t-67.5 -76.5q-5 -10 -9.5 -21.5t-6.5 -25.5l-57 -295h-47zM324 759l-67 137h47l44 -99h2
l83 99h44l-118 -137h-35z" />
    <glyph glyph-name="Adotaccent" unicode="&#x226;" horiz-adv-x="574" 
d="M165 235l-127 -235h-48l369 674h46l106 -674h-49l-37 235h-260zM418 275l-36 223q-5 35 -7 63.5t-4 57.5h-2q-14 -30 -27.5 -58.5t-30.5 -60.5l-124 -225h231zM358 763q3 17 16.5 28.5t30.5 11.5t26 -11.5t6 -28.5t-16.5 -28t-30.5 -11t-26 11t-6 28z" />
    <glyph glyph-name="adotaccent" unicode="&#x227;" horiz-adv-x="483" 
d="M346 0q-1 23 2 58.5t8 73.5h-2q-36 -75 -86 -109t-101 -34q-31 0 -55 11.5t-41 32.5t-26 50t-9 63q0 63 21.5 125t62 111.5t99 80t132.5 30.5q28 0 58 -4.5t50 -12.5l-52 -265q-12 -59 -16.5 -115t-2.5 -96h-42zM408 447q-23 10 -67 10q-57 0 -104.5 -26.5t-82 -69
t-53.5 -97t-19 -111.5q0 -26 5.5 -49t17.5 -40t30.5 -27t44.5 -10q35 0 66 19t56 52.5t43.5 78.5t28.5 97zM311 580q3 17 16.5 28.5t30.5 11.5t26 -11.5t6 -28.5t-16.5 -28t-30.5 -11t-26 11t-6 28z" />
    <glyph glyph-name="Ecedilla" unicode="&#x228;" horiz-adv-x="456" 
d="M416 335h-264l-58 -295h295l-7 -40h-342l131 674h327l-8 -40h-280l-51 -259h264zM255 0l-47 -56q26 -4 43 -21.5t12 -45.5q-8 -41 -39.5 -59t-68.5 -18q-14 0 -30 4.5t-27 11.5l19 34q19 -13 51 -13q18 0 33.5 7.5t19.5 27.5q3 23 -17 32.5t-51 12.5l65 83h37z" />
    <glyph glyph-name="ecedilla" unicode="&#x229;" horiz-adv-x="409" 
d="M342 27q-13 -8 -30.5 -15t-37.5 -12l-54 -66q26 -4 43 -21.5t12 -45.5q-8 -41 -39.5 -59t-68.5 -18q-14 0 -30 4.5t-27 11.5l19 34q19 -13 51 -13q18 0 33.5 7.5t19.5 27.5q3 23 -17 32.5t-51 12.5l66 85q-8 -1 -15.5 -1.5t-15.5 -0.5q-44 0 -74.5 15t-50.5 41.5t-29 61
t-9 73.5q0 54 17.5 109.5t50 100.5t77.5 73.5t99 28.5q58 0 90 -31.5t32 -78.5q0 -45 -23.5 -74t-63.5 -46.5t-94 -24.5t-114 -7h-20q-2 -11 -3.5 -23t-1.5 -28q0 -67 31 -110t94 -43q42 0 74 11t52 24zM94 267q56 0 104 4.5t83.5 17t56 35t20.5 58.5q0 35 -23 54.5
t-60 19.5q-34 0 -63.5 -16t-52.5 -42t-39.5 -60t-25.5 -71z" />
    <glyph glyph-name="Odieresismacron" unicode="&#x22a;" horiz-adv-x="654" 
d="M281 -11q-60 0 -108 23.5t-78 67.5t-40 107.5t6 143.5q16 83 51.5 149t84.5 111.5t107.5 69.5t120.5 24q61 0 109 -24t77.5 -68t38.5 -107.5t-7 -142.5q-17 -89 -54.5 -155.5t-87 -110.5t-106.5 -66t-114 -22zM290 29q59 0 109 25.5t89 68.5t66 99t39 118q10 53 6 107.5
t-25 98.5t-61 71.5t-101 27.5q-62 0 -113 -27t-89 -71t-63.5 -100.5t-36.5 -114.5q-11 -56 -6 -110.5t27 -97.5t61.5 -69t97.5 -26zM314 773q3 16 16.5 27.5t29.5 11.5t25 -11.5t6 -27.5t-16.5 -27t-29.5 -11t-25 11t-6 27zM482 773q3 16 16.5 27.5t29.5 11.5t25 -11.5
t6 -27.5t-16.5 -27t-29.5 -11t-25 11t-6 27zM565 900l-8 -38h-208l8 38h208z" />
    <glyph glyph-name="odieresismacron" unicode="&#x22b;" horiz-adv-x="520" 
d="M317 491q48 0 84.5 -17.5t59 -50t29.5 -78t-4 -101.5q-13 -68 -42.5 -116t-68 -79t-81 -45.5t-81.5 -14.5q-45 0 -81 17t-58.5 49.5t-30.5 78t3 102.5q12 62 39.5 109.5t64.5 80t80.5 49t86.5 16.5zM308 451q-45 0 -81 -19t-63.5 -49t-45 -68t-24.5 -76q-9 -45 -4 -83.5
t22 -66.5t45 -44t66 -16q37 0 72 16t63.5 44t49 67t30.5 86q6 33 3.5 69.5t-16.5 67.5t-42.5 51.5t-74.5 20.5zM209 579q3 16 16.5 27.5t29.5 11.5t25 -11.5t6 -27.5t-16.5 -27t-29.5 -11t-25 11t-6 27zM377 579q3 16 16.5 27.5t29.5 11.5t25 -11.5t6 -27.5t-16.5 -27
t-29.5 -11t-25 11t-6 27zM461 706l-8 -38h-208l8 38h208z" />
    <glyph glyph-name="Otildemacron" unicode="&#x22c;" horiz-adv-x="654" 
d="M281 -11q-60 0 -108 23.5t-78 67.5t-40 107.5t6 143.5q16 83 51.5 149t84.5 111.5t107.5 69.5t120.5 24q61 0 109 -24t77.5 -68t38.5 -107.5t-7 -142.5q-17 -89 -54.5 -155.5t-87 -110.5t-106.5 -66t-114 -22zM290 29q59 0 109 25.5t89 68.5t66 99t39 118q10 53 6 107.5
t-25 98.5t-61 71.5t-101 27.5q-62 0 -113 -27t-89 -71t-63.5 -100.5t-36.5 -114.5q-11 -56 -6 -110.5t27 -97.5t61.5 -69t97.5 -26zM319 735q5 33 25 58t49 25q16 0 28 -6t29 -16q11 -6 20.5 -11t23.5 -5q11 0 19 8.5t15 32.5h30q-7 -35 -25.5 -57.5t-50.5 -22.5
q-14 0 -26.5 6t-25.5 15q-13 8 -22.5 13t-20.5 5q-13 0 -21.5 -12.5t-14.5 -32.5h-32zM567 909l-8 -38h-208l8 38h208z" />
    <glyph glyph-name="otildemacron" unicode="&#x22d;" horiz-adv-x="520" 
d="M317 491q48 0 84.5 -17.5t59 -50t29.5 -78t-4 -101.5q-13 -68 -42.5 -116t-68 -79t-81 -45.5t-81.5 -14.5q-45 0 -81 17t-58.5 49.5t-30.5 78t3 102.5q12 62 39.5 109.5t64.5 80t80.5 49t86.5 16.5zM308 451q-45 0 -81 -19t-63.5 -49t-45 -68t-24.5 -76q-9 -45 -4 -83.5
t22 -66.5t45 -44t66 -16q37 0 72 16t63.5 44t49 67t30.5 86q6 33 3.5 69.5t-16.5 67.5t-42.5 51.5t-74.5 20.5zM214 541q5 33 25 58t49 25q16 0 28 -6t29 -16q11 -6 20.5 -11t23.5 -5q11 0 19 8.5t15 32.5h30q-7 -35 -25.5 -57.5t-50.5 -22.5q-14 0 -26.5 6t-25.5 15
q-13 8 -22.5 13t-20.5 5q-13 0 -21.5 -12.5t-14.5 -32.5h-32zM462 715l-8 -38h-208l8 38h208z" />
    <glyph glyph-name="Odotaccent" unicode="&#x22e;" horiz-adv-x="654" 
d="M281 -11q-60 0 -108 23.5t-78 67.5t-40 107.5t6 143.5q16 83 51.5 149t84.5 111.5t107.5 69.5t120.5 24q61 0 109 -24t77.5 -68t38.5 -107.5t-7 -142.5q-17 -89 -54.5 -155.5t-87 -110.5t-106.5 -66t-114 -22zM290 29q59 0 109 25.5t89 68.5t66 99t39 118q10 53 6 107.5
t-25 98.5t-61 71.5t-101 27.5q-62 0 -113 -27t-89 -71t-63.5 -100.5t-36.5 -114.5q-11 -56 -6 -110.5t27 -97.5t61.5 -69t97.5 -26zM397 774q3 17 16.5 28.5t30.5 11.5t26 -11.5t6 -28.5t-16.5 -28t-30.5 -11t-26 11t-6 28z" />
    <glyph glyph-name="odotaccent" unicode="&#x22f;" horiz-adv-x="520" 
d="M317 491q48 0 84.5 -17.5t59 -50t29.5 -78t-4 -101.5q-13 -68 -42.5 -116t-68 -79t-81 -45.5t-81.5 -14.5q-45 0 -81 17t-58.5 49.5t-30.5 78t3 102.5q12 62 39.5 109.5t64.5 80t80.5 49t86.5 16.5zM308 451q-45 0 -81 -19t-63.5 -49t-45 -68t-24.5 -76q-9 -45 -4 -83.5
t22 -66.5t45 -44t66 -16q37 0 72 16t63.5 44t49 67t30.5 86q6 33 3.5 69.5t-16.5 67.5t-42.5 51.5t-74.5 20.5zM303 580q3 17 16.5 28.5t30.5 11.5t26 -11.5t6 -28.5t-16.5 -28t-30.5 -11t-26 11t-6 28z" />
    <glyph glyph-name="Odotaccentmacron" unicode="&#x230;" horiz-adv-x="654" 
d="M281 -11q-60 0 -108 23.5t-78 67.5t-40 107.5t6 143.5q16 83 51.5 149t84.5 111.5t107.5 69.5t120.5 24q61 0 109 -24t77.5 -68t38.5 -107.5t-7 -142.5q-17 -89 -54.5 -155.5t-87 -110.5t-106.5 -66t-114 -22zM290 29q59 0 109 25.5t89 68.5t66 99t39 118q10 53 6 107.5
t-25 98.5t-61 71.5t-101 27.5q-62 0 -113 -27t-89 -71t-63.5 -100.5t-36.5 -114.5q-11 -56 -6 -110.5t27 -97.5t61.5 -69t97.5 -26zM397 774q3 17 16.5 28.5t30.5 11.5t26 -11.5t6 -28.5t-16.5 -28t-30.5 -11t-26 11t-6 28zM566 902l-8 -38h-208l8 38h208z" />
    <glyph glyph-name="odotaccentmacron" unicode="&#x231;" horiz-adv-x="520" 
d="M317 491q48 0 84.5 -17.5t59 -50t29.5 -78t-4 -101.5q-13 -68 -42.5 -116t-68 -79t-81 -45.5t-81.5 -14.5q-45 0 -81 17t-58.5 49.5t-30.5 78t3 102.5q12 62 39.5 109.5t64.5 80t80.5 49t86.5 16.5zM308 451q-45 0 -81 -19t-63.5 -49t-45 -68t-24.5 -76q-9 -45 -4 -83.5
t22 -66.5t45 -44t66 -16q37 0 72 16t63.5 44t49 67t30.5 86q6 33 3.5 69.5t-16.5 67.5t-42.5 51.5t-74.5 20.5zM293 580q3 17 16.5 28.5t30.5 11.5t26 -11.5t6 -28.5t-16.5 -28t-30.5 -11t-26 11t-6 28zM461 708l-8 -38h-208l8 38h208z" />
    <glyph glyph-name="Ymacron" unicode="&#x232;" horiz-adv-x="495" 
d="M186 0l56 292l-135 382h53l69 -199q13 -40 25 -74.5t21 -71.5h2q22 35 48.5 70t57.5 77l151 198h53l-298 -383l-56 -291h-47zM468 762l-8 -38h-208l8 38h208z" />
    <glyph glyph-name="ymacron" unicode="&#x233;" horiz-adv-x="431" 
d="M115 480l61 -312q5 -26 8.5 -53.5t6.5 -50.5h2q11 22 25.5 49.5t31.5 56.5l174 310h50l-208 -352q-32 -56 -59.5 -101.5t-53 -82t-50.5 -64.5t-53 -49q-33 -25 -59 -36.5t-33 -14.5l-9 39q19 8 43.5 21t49.5 34q22 18 49 47.5t52 71.5q8 14 10 21q2 9 -2 21l-86 445h50z
M415 614l-8 -38h-229l8 38h229z" />
    <glyph glyph-name="uni0237" unicode="&#x237;" horiz-adv-x="211" 
d="M-120 -170q31 2 58 11.5t46 29.5q12 11 21.5 25t18 35.5t16.5 53.5t17 79l81 416h48l-87 -447q-13 -66 -31.5 -111t-56.5 -79q-15 -14 -33 -23.5t-36 -15.5t-34.5 -9t-28.5 -3z" />
    <glyph glyph-name="uni02B9" unicode="&#x2b9;" horiz-adv-x="173" 
d="M243 691l-119 -217l-34 -5l93 212z" />
    <glyph glyph-name="uni02BA" unicode="&#x2ba;" horiz-adv-x="292" 
d="M243 691l-119 -217l-34 -5l93 212zM362 691l-119 -217l-34 -5l93 212z" />
    <glyph glyph-name="uni02BB" unicode="&#x2bb;" horiz-adv-x="173" 
d="M90 469q12 28 29 61.5t34 64t32.5 55.5t23.5 36l34 5q-9 -16 -22 -42.5t-26.5 -56.5t-25.5 -60t-19 -53z" />
    <glyph glyph-name="uni02BC" unicode="&#x2bc;" horiz-adv-x="173" 
d="M243 691q-13 -28 -30 -61.5t-34.5 -64.5t-32 -56t-22.5 -35l-34 -5q9 16 21.5 42t25.5 56t25.5 60.5t20.5 53.5z" />
    <glyph glyph-name="uni02BD" unicode="&#x2bd;" horiz-adv-x="173" 
d="M189 681q-2 -23 -1.5 -53.5t2 -60.5t4.5 -56.5t6 -41.5l-32 5q-4 10 -9.5 35t-11 56t-9.5 64.5t-5 61.5z" />
    <glyph glyph-name="uni02BE" unicode="&#x2be;" horiz-adv-x="203" 
d="M132 681q1 3 1 5q31 0 52 -10t33 -27t15.5 -38.5t-1.5 -45.5q-5 -29 -20 -52t-36 -39.5t-45 -25t-46 -8.5l6 33q38 0 67 26t36 64q3 14 2 30t-8.5 29.5t-22.5 22t-39 8.5z" />
    <glyph glyph-name="uni02BF" unicode="&#x2bf;" horiz-adv-x="203" 
d="M249 653q-24 0 -42 -8.5t-30.5 -22t-19.5 -29.5t-10 -30q-7 -38 11 -64t56 -26l-6 -33q-23 0 -43.5 8.5t-34.5 25t-20 39.5t-1 52q5 24 17 45.5t30.5 38.5t43.5 27t56 10q0 -2 -1 -5z" />
    <glyph glyph-name="circumflex" unicode="&#x2c6;" horiz-adv-x="300" 
d="M257 677l66 -137h-48l-41 99h-2l-82 -99h-45l117 137h35z" />
    <glyph glyph-name="caron" unicode="&#x2c7;" horiz-adv-x="300" 
d="M198 540l-67 137h47l44 -99h2l83 99h44l-118 -137h-35z" />
    <glyph glyph-name="uni02C8" unicode="&#x2c8;" horiz-adv-x="118" 
d="M142 540h-38l27 137h38z" />
    <glyph glyph-name="uni02C9" unicode="&#x2c9;" horiz-adv-x="300" 
d="M335 623l-8 -38h-208l8 38h208z" />
    <glyph glyph-name="uni02CA" unicode="&#x2ca;" horiz-adv-x="237" 
d="M288 677l-148 -137h-36l115 137h69z" />
    <glyph glyph-name="uni02CB" unicode="&#x2cb;" horiz-adv-x="237" 
d="M200 677l61 -137h-36l-94 137h69z" />
    <glyph glyph-name="uni02CC" unicode="&#x2cc;" horiz-adv-x="118" 
d="M10 -140h-38l27 137h38z" />
    <glyph glyph-name="uni02CD" unicode="&#x2cd;" horiz-adv-x="300" 
d="M202 -57l-7 -38h-208l7 38h208z" />
    <glyph glyph-name="uni02CE" unicode="&#x2ce;" horiz-adv-x="237" 
d="M68 -3l61 -137h-36l-94 137h69z" />
    <glyph glyph-name="uni02CF" unicode="&#x2cf;" horiz-adv-x="237" 
d="M156 -3l-148 -137h-36l115 137h69z" />
    <glyph glyph-name="breve" unicode="&#x2d8;" horiz-adv-x="300" 
d="M162 674q-1 -30 15.5 -51.5t48.5 -21.5q19 0 34.5 6.5t27 17t19.5 23.5t12 26h36q-10 -51 -47.5 -82t-88.5 -31q-32 0 -51.5 10.5t-30 26.5t-12.5 36t2 40h35z" />
    <glyph glyph-name="dotaccent" unicode="&#x2d9;" horiz-adv-x="300" 
d="M187 600q3 17 16.5 28.5t30.5 11.5t26 -11.5t6 -28.5t-16.5 -28t-30.5 -11t-26 11t-6 28z" />
    <glyph glyph-name="ring" unicode="&#x2da;" horiz-adv-x="400" 
d="M371 621q-3 -19 -13.5 -35.5t-25 -29t-32.5 -19.5t-37 -7q-38 0 -59.5 26.5t-14.5 64.5q4 19 14.5 35.5t25 29t32.5 19.5t37 7q38 0 59.5 -26.5t13.5 -64.5zM224 621q-4 -24 9 -40.5t36 -16.5q24 0 44 16.5t24 40.5q5 23 -8.5 40t-37.5 17q-23 0 -42.5 -17t-24.5 -40z
" />
    <glyph glyph-name="ogonek" unicode="&#x2db;" horiz-adv-x="300" 
d="M171 0q-20 -10 -39.5 -22.5t-36 -27.5t-28 -31.5t-14.5 -32.5q-6 -25 6.5 -36.5t29.5 -11.5q11 0 24.5 2t26.5 8l2 -31q-32 -15 -71 -15q-34 0 -52 20t-11 55q3 19 17 39t32.5 37t38 29.5t34.5 17.5h41z" />
    <glyph glyph-name="tilde" unicode="&#x2dc;" horiz-adv-x="300" 
d="M108 563q5 33 25 58t49 25q16 0 28 -6t29 -16q11 -6 20.5 -11t23.5 -5q11 0 19 8.5t15 32.5h30q-7 -35 -25.5 -57.5t-50.5 -22.5q-14 0 -26.5 6t-25.5 15q-13 8 -22.5 13t-20.5 5q-13 0 -21.5 -12.5t-14.5 -32.5h-32z" />
    <glyph glyph-name="hungarumlaut" unicode="&#x2dd;" horiz-adv-x="300" 
d="M313 677l-142 -129h-36l113 129h65zM438 677l-142 -129h-35l113 129h64z" />
    <glyph glyph-name="uni02EE" unicode="&#x2ee;" horiz-adv-x="292" 
d="M243 691q-13 -28 -30 -61.5t-34.5 -64.5t-32 -56t-22.5 -35l-34 -5q9 16 21.5 42t25.5 56t25.5 60.5t20.5 53.5zM362 691q-13 -28 -30 -61.5t-34.5 -64.5t-32 -56t-22.5 -35l-34 -5q9 16 21.5 42t25.5 56t25.5 60.5t20.5 53.5z" />
    <glyph glyph-name="gravecmb" unicode="&#x300;" 
d="M-139 677l61 -137h-36l-94 137h69z" />
    <glyph glyph-name="acutecmb" unicode="&#x301;" 
d="M-51 677l-148 -137h-36l115 137h69z" />
    <glyph glyph-name="circumflexcmb" unicode="&#x302;" 
d="M-83 677l65 -137h-47l-41 99h-2l-82 -99h-45l117 137h35z" />
    <glyph glyph-name="tildecmb" unicode="&#x303;" 
d="M-229 563q5 33 25 58t49 25q16 0 28 -6t29 -16q11 -6 20.5 -11t23.5 -5q11 0 18.5 8.5t14.5 32.5h30q-7 -35 -25.5 -57.5t-49.5 -22.5q-14 0 -26.5 6t-25.5 15q-13 8 -22.5 13t-20.5 5q-13 0 -21.5 -12.5t-14.5 -32.5h-32z" />
    <glyph glyph-name="macroncmb" unicode="&#x304;" 
d="M-14 629l-8 -38h-229l8 38h229z" />
    <glyph glyph-name="brevecmb" unicode="&#x306;" 
d="M-173 674q-1 -30 15.5 -51.5t48.5 -21.5q19 0 34.5 6.5t27 17t19 23.5t11.5 26h36q-10 -51 -47 -82t-88 -31q-32 0 -51.5 10.5t-30 26.5t-12.5 36t2 40h35z" />
    <glyph glyph-name="dotaccentcmb" unicode="&#x307;" 
d="M-223 600q3 17 16.5 28.5t30.5 11.5t26 -11.5t6 -28.5t-16.5 -28t-30.5 -11t-26 11t-6 28z" />
    <glyph glyph-name="dieresiscmb" unicode="&#x308;" 
d="M-223 601q3 16 16.5 27.5t29.5 11.5t25 -11.5t6 -27.5t-16.5 -27t-29.5 -11t-25 11t-6 27zM-55 601q3 16 16 27.5t29 11.5t25 -11.5t6 -27.5t-16.5 -27t-29.5 -11q-15 0 -24 11t-6 27z" />
    <glyph glyph-name="hookabovecmb" unicode="&#x309;" 
d="M-249 498q21 5 42.5 13t40 19t33.5 24.5t22 29.5q12 24 4 39t-24 19q-10 3 -23 4.5t-26 -1.5l6 32q33 7 70 -3q31 -9 42 -34t-5 -59q-8 -18 -26 -34.5t-39.5 -29.5t-43 -20.5t-36.5 -8.5z" />
    <glyph glyph-name="ringcmb" unicode="&#x30a;" 
d="M-137 621q-3 -19 -13.5 -35.5t-25 -29t-32.5 -19.5t-37 -7q-38 0 -59.5 26.5t-14.5 64.5q4 19 14.5 35.5t25 29t32.5 19.5t37 7q38 0 59.5 -26.5t13.5 -64.5zM-284 621q-4 -24 9 -40.5t36 -16.5q24 0 44 16.5t24 40.5q5 23 -8.5 40t-37.5 17q-23 0 -42.5 -17t-24.5 -40z
" />
    <glyph glyph-name="hungarumlautcmb" unicode="&#x30b;" 
d="M-55 677l-142 -129h-36l113 129h65zM69 677l-141 -129h-35l112 129h64z" />
    <glyph glyph-name="caroncmb" unicode="&#x30c;" 
d="M-141 540l-67 137h47l44 -99h2l82 99h44l-117 -137h-35z" />
    <glyph glyph-name="uni030D" unicode="&#x30d;" 
d="M-176 540h-38l27 137h38z" />
    <glyph glyph-name="uni030E" unicode="&#x30e;" 
d="M-226 540h-38l27 137h38zM-126 540h-38l27 137h38z" />
    <glyph glyph-name="doublegravecmb" unicode="&#x30f;" 
d="M-139 677l61 -137h-36l-94 137h69zM-289 677l61 -137h-36l-94 137h69z" />
    <glyph glyph-name="invertedbrevecmb" unicode="&#x311;" 
d="M-158 561q3 19 13 39.5t26.5 36.5t40.5 26.5t55 10.5q51 0 76 -31t16 -82h-36q1 13 -2 26t-10.5 23.5t-20 17t-31.5 6.5q-31 0 -56.5 -21.5t-35.5 -51.5h-35z" />
    <glyph glyph-name="uni0312" unicode="&#x312;" 
d="M-263 469q12 28 29 61.5t34 64t32.5 55.5t23.5 36l34 5q-9 -16 -22 -42.5t-26.5 -56.5t-25.5 -60t-19 -53z" />
    <glyph glyph-name="uni0313" unicode="&#x313;" 
d="M-110 691q-13 -28 -30 -61.5t-34.5 -64.5t-32 -56t-22.5 -35l-34 -5q9 16 21.5 42t25.5 56t25.5 60.5t20.5 53.5z" />
    <glyph glyph-name="uni0314" unicode="&#x314;" 
d="M-164 681q-2 -23 -1.5 -53.5t2 -60.5t4.5 -56.5t6 -41.5l-32 5q-4 10 -9.5 35t-11 56t-9.5 64.5t-5 61.5z" />
    <glyph glyph-name="uni0316" unicode="&#x316;" 
d="M-315 -33l61 -137h-36l-94 137h69z" />
    <glyph glyph-name="uni0317" unicode="&#x317;" 
d="M-227 -33l-148 -137h-36l115 137h69z" />
    <glyph glyph-name="horncmb" unicode="&#x31b;" 
d="M-243 630q6 -18 15.5 -35t22 -30.5t27 -21.5t30.5 -8q25 -1 39.5 13.5t17.5 31.5q2 11 2.5 24t-2.5 25l32 8q10 -27 2 -68q-7 -34 -31 -56t-59 -22q-19 0 -37 10t-32.5 25t-23.5 32t-11 31z" />
    <glyph glyph-name="uni031C" unicode="&#x31c;" 
d="M-249 -57q-24 0 -42 -8.5t-30.5 -22t-19.5 -29.5t-10 -30q-7 -38 11 -64t56 -26l-6 -33q-23 0 -43.5 8.5t-34.5 25t-20 39.5t-1 52q5 24 17 45.5t30.5 38.5t43.5 27t56 10q0 -2 -1 -5z" />
    <glyph glyph-name="dotbelowcmb" unicode="&#x323;" 
d="M-204 -160q-18 0 -26.5 13t-4.5 32t18 32t32 13t26.5 -13t4.5 -32q-4 -20 -18 -32.5t-32 -12.5z" />
    <glyph glyph-name="dieresisbelowcmb" unicode="&#x324;" 
d="M-361 -109q3 16 16.5 27.5t29.5 11.5t25 -11.5t6 -27.5t-16.5 -27t-29.5 -11t-25 11t-6 27zM-193 -109q3 16 16.5 27.5t29.5 11.5t25 -11.5t6 -27.5t-16.5 -27t-29.5 -11t-25 11t-6 27z" />
    <glyph glyph-name="ringbelowcmb" unicode="&#x325;" 
d="M-289 -161q-3 -19 -13.5 -35.5t-25 -29t-32.5 -19.5t-37 -7q-38 0 -59.5 26.5t-14.5 64.5q4 19 14.5 35.5t25 29t32.5 19.5t37 7q38 0 59.5 -26.5t13.5 -64.5zM-436 -161q-4 -24 9 -40.5t36 -16.5q24 0 44 16.5t24 40.5q5 23 -8.5 40t-37.5 17q-23 0 -42.5 -17t-24.5 -40
z" />
    <glyph glyph-name="commabelowcmb" unicode="&#x326;" 
d="M-269 -292q9 16 21.5 42t25.5 56t25.5 60.5t20.5 53.5l65 10q-13 -28 -30 -61.5t-34.5 -64.5t-32 -56t-22.5 -35z" />
    <glyph glyph-name="cedillacmb" unicode="&#x327;" 
d="M-218 2l-47 -56q26 -4 43 -21.5t12 -45.5q-8 -41 -39.5 -59t-68.5 -18q-14 0 -30 4.5t-27 11.5l19 34q19 -13 51 -13q18 0 33.5 7.5t19.5 27.5q3 23 -17 32.5t-51 12.5l65 83h37z" />
    <glyph glyph-name="ogonekcmb" unicode="&#x328;" 
d="M-201 0q-19 -10 -38.5 -23t-36 -27.5t-28 -31t-14.5 -32.5q-6 -25 6.5 -36.5t29.5 -11.5q11 0 24.5 2t26.5 8l2 -31q-32 -15 -71 -15q-34 0 -52 20t-11 55q3 19 17 39t32.5 37t38 29.5t33.5 17.5h41z" />
    <glyph glyph-name="uni0329" unicode="&#x329;" 
d="M-314 -170h-38l27 137h38z" />
    <glyph glyph-name="uni032C" unicode="&#x32c;" 
d="M-349 -170l-67 137h47l44 -99h2l83 99h44l-118 -137h-35z" />
    <glyph glyph-name="circumflexbelowcmb" unicode="&#x32d;" 
d="M-228 -70l66 -137h-48l-41 99h-2l-82 -99h-45l117 137h35z" />
    <glyph glyph-name="brevebelowcmb" unicode="&#x32e;" 
d="M-318 -70q-1 -30 16 -51.5t49 -21.5q19 0 34 6.5t26.5 17t19.5 23.5t12 26h36q-10 -51 -47.5 -82t-88.5 -31q-32 0 -51.5 10.5t-30 26.5t-12.5 36t2 40h35z" />
    <glyph glyph-name="uni032F" unicode="&#x32f;" 
d="M-442 -149q3 20 13 40t26.5 36.5t40.5 26.5t56 10q51 0 76 -31t16 -82h-36q1 13 -2 26t-10.5 23.5t-20 17t-31.5 6.5q-32 0 -57.5 -21.5t-35.5 -51.5h-35z" />
    <glyph glyph-name="tildebelowcmb" unicode="&#x330;" 
d="M-369 -156q6 33 25.5 58t48.5 25q16 0 28 -6t29 -16q11 -6 20.5 -11t23.5 -5q11 0 19 8.5t15 32.5h30q-7 -35 -25.5 -57.5t-50.5 -22.5q-14 0 -26 6t-26 15q-13 8 -22.5 13t-20.5 5q-13 0 -21.5 -12.5t-14.5 -32.5h-32z" />
    <glyph glyph-name="macronbelowcmb" unicode="&#x331;" 
d="M-152 -87l-8 -38h-230l8 38h230z" />
    <glyph glyph-name="uni0334" unicode="&#x334;" 
d="M-369 208q5 33 25 58t49 25q16 0 28 -6t29 -16q11 -6 20.5 -11t23.5 -5q11 0 19 8.5t15 32.5h30q-7 -35 -25.5 -57.5t-50.5 -22.5q-14 0 -26.5 6t-25.5 15q-13 8 -22.5 13t-20.5 5q-13 0 -21.5 -12.5t-14.5 -32.5h-32z" />
    <glyph glyph-name="uni0335" unicode="&#x335;" 
d="M-131 274l-8 -38h-230l8 38h230z" />
    <glyph glyph-name="uni0338" unicode="&#x338;" 
d="M-486 -40l451 725h48l-453 -725h-46z" />
    <glyph glyph-name="uni0339" unicode="&#x339;" 
d="M-366 -29q1 3 1 5q31 0 52 -10t33 -27t15.5 -38.5t-1.5 -45.5q-5 -29 -20 -52t-36 -39.5t-45 -25t-46 -8.5l6 33q38 0 67 26t36 64q3 14 2 30t-8.5 29.5t-22.5 22t-39 8.5z" />
    <glyph glyph-name="gravetonecmb" unicode="&#x340;" 
d="M-139 677l61 -137h-36l-94 137h69z" />
    <glyph glyph-name="acutetonecmb" unicode="&#x341;" 
d="M-51 677l-148 -137h-36l115 137h69z" />
    <glyph glyph-name="koroniscmb" unicode="&#x343;" 
d="M-110 691q-13 -28 -30 -61.5t-34.5 -64.5t-32 -56t-22.5 -35l-34 -5q9 16 21.5 42t25.5 56t25.5 60.5t20.5 53.5z" />
    <glyph glyph-name="dialytikatonoscmb" unicode="&#x344;" 
d="M-223 601q3 16 16.5 27.5t29.5 11.5t25 -11.5t6 -27.5t-16.5 -27t-29.5 -11t-25 11t-6 27zM-55 601q3 16 16 27.5t29 11.5t25 -11.5t6 -27.5t-16.5 -27t-29.5 -11q-15 0 -24 11t-6 27zM22 827l-148 -137h-36l115 137h69z" />
    <glyph glyph-name="uni034F" unicode="&#x34f;" 
 />
    <glyph glyph-name="uni0351" unicode="&#x351;" 
d="M-111 653q-24 0 -42 -8.5t-30.5 -22t-19.5 -29.5t-10 -30q-7 -38 11 -64t56 -26l-6 -33q-23 0 -43.5 8.5t-34.5 25t-20 39.5t-1 52q5 24 17 45.5t30.5 38.5t43.5 27t56 10q0 -2 -1 -5z" />
    <glyph glyph-name="uni0357" unicode="&#x357;" 
d="M-228 681q1 3 1 5q31 0 52 -10t33 -27t15.5 -38.5t-1.5 -45.5q-5 -29 -20 -52t-36 -39.5t-45 -25t-46 -8.5l6 33q38 0 67 26t36 64q3 14 2 30t-8.5 29.5t-22.5 22t-39 8.5z" />
    <glyph glyph-name="uni037E" unicode="&#x37e;" horiz-adv-x="173" 
d="M132 361q-18 0 -26.5 13t-5.5 32q4 19 18 32t32 13t26.5 -13t4.5 -32q-3 -20 -17 -32.5t-32 -12.5zM-40 -126q9 15 21.5 41.5t26 56.5t26 60.5t19.5 53.5l65 10q-12 -28 -29 -61.5t-34.5 -64.5t-32.5 -56t-23 -35z" />
    <glyph glyph-name="tonos" unicode="&#x384;" horiz-adv-x="500" 
d="M401 684l-107 -142h-34l86 142h55z" />
    <glyph glyph-name="dieresistonos" unicode="&#x385;" horiz-adv-x="316" 
d="M97 605q3 14 15 24.5t26 10.5q15 0 23 -10t5 -25q-3 -14 -15.5 -24t-26.5 -10t-22 10t-5 24zM294 693l-75 -153h-30l56 153h49zM304 605q3 14 15 24.5t26 10.5q15 0 23 -10t5 -25q-3 -14 -15.5 -24t-26.5 -10t-22 10t-5 24z" />
    <glyph glyph-name="Alphatonos" unicode="&#x386;" horiz-adv-x="572" 
d="M230 674l-62 -152h-31l41 152h52zM407 674l98 -674h-51q-9 57 -17.5 114t-16.5 114h-261l-120 -228h-50l360 674h58zM367 629q-18 -38 -37.5 -75t-38.5 -74q-28 -54 -55.5 -106.5t-56.5 -106.5h235q-8 54 -14.5 106.5t-13.5 106.5q-5 38 -9.5 74.5t-8.5 74.5h-1z" />
    <glyph glyph-name="anoteleia" unicode="&#x387;" horiz-adv-x="173" 
d="M90 230q-18 0 -26.5 13t-4.5 32t18 32t32 13t26.5 -13t4.5 -32q-4 -20 -18 -32.5t-32 -12.5z" />
    <glyph glyph-name="Epsilontonos" unicode="&#x388;" horiz-adv-x="485" 
d="M154 674l-62 -152h-31l41 152h52zM445 335h-258l-58 -295h288l-7 -40h-335l131 674h320l-8 -40h-273l-51 -259h258z" />
    <glyph glyph-name="Etatonos" unicode="&#x389;" horiz-adv-x="648" 
d="M154 674l-62 -152h-31l41 152h52zM253 674l-59 -299h359l59 299h47l-131 -674h-47l65 335h-359l-65 -335h-47l131 674h47z" />
    <glyph glyph-name="Iotatonos" unicode="&#x38a;" horiz-adv-x="242" 
d="M154 674l-62 -152h-31l41 152h52zM253 674l-131 -674h-47l131 674h47z" />
    <glyph glyph-name="Omicrontonos" unicode="&#x38c;" horiz-adv-x="670" 
d="M159 674l-62 -152h-31l41 152h52zM448 685q63 0 109 -24.5t74 -69.5t35.5 -108t-7.5 -139q-17 -87 -52.5 -153.5t-83.5 -111.5t-105 -67.5t-115 -22.5q-60 0 -106.5 24.5t-74.5 69.5t-36.5 108t6.5 140q16 81 50.5 146.5t82 111.5t105 71t118.5 25zM438 645
q-55 0 -103 -24t-87 -66.5t-66 -99.5t-40 -123q-12 -63 -7 -118.5t27 -96.5t60.5 -64.5t91.5 -23.5q52 0 100 22.5t86.5 64t66.5 99t42 127.5q12 61 7.5 116t-25.5 96.5t-59.5 66t-93.5 24.5z" />
    <glyph glyph-name="Upsilontonos" unicode="&#x38e;" horiz-adv-x="630" 
d="M159 674l-62 -152h-31l41 152h52zM208 680q48 -10 83.5 -42t58 -79.5t32 -107t5.5 -123.5h2q19 54 50.5 108t72.5 102t92 85t110 57v-39q-54 -21 -107.5 -67t-99 -107.5t-79 -133.5t-47.5 -145l-36 -188h-47l39 204q16 81 11 154t-25.5 131.5t-55 98t-77.5 53.5z" />
    <glyph glyph-name="Omegatonos" unicode="&#x38f;" horiz-adv-x="698" 
d="M159 674l-62 -152h-31l41 152h52zM180 39v2q-22 22 -41 54t-31 71t-15 85.5t7 97.5q15 76 49.5 138t82 106t105 68t118.5 24q63 0 110 -24.5t75 -68.5t36.5 -104t-5.5 -131q-11 -54 -32 -102t-48.5 -88t-59.5 -72t-64 -54v-2h155l-7 -39h-213l6 32q34 22 67.5 54.5t62 73
t50 88.5t31.5 101q11 58 6.5 111.5t-26 95t-60 66t-94.5 24.5q-54 0 -102.5 -23.5t-87.5 -64.5t-66 -96t-39 -117q-10 -50 -6.5 -97.5t16.5 -88.5t33.5 -73.5t45.5 -53.5l-6 -32h-213l7 39h153z" />
    <glyph glyph-name="iotadieresistonos" unicode="&#x390;" horiz-adv-x="199" 
d="M101 107q-5 -25 -6 -40.5t2 -24.5t10.5 -12t19.5 -2l-11 -35q-11 -4 -26 -4q-13 0 -23 4.5t-15.5 17.5t-5 35t7.5 57l73 380h47zM48 605q3 14 15 24.5t26 10.5q15 0 23 -10t5 -25q-3 -14 -15.5 -24t-26.5 -10t-22 10t-5 24zM245 693l-75 -153h-30l56 153h49zM255 605
q3 14 15 24.5t26 10.5q15 0 23 -10t5 -25q-3 -14 -15.5 -24t-26.5 -10t-22 10t-5 24z" />
    <glyph glyph-name="Alpha" unicode="&#x391;" horiz-adv-x="572" 
d="M407 674l98 -674h-51q-9 57 -17.5 114t-16.5 114h-261l-120 -228h-50l360 674h58zM367 629q-18 -38 -37.5 -75t-38.5 -74q-28 -54 -55.5 -106.5t-56.5 -106.5h235q-8 54 -14.5 106.5t-13.5 106.5q-5 38 -9.5 74.5t-8.5 74.5h-1z" />
    <glyph glyph-name="Beta" unicode="&#x392;" horiz-adv-x="499" 
d="M169 665q26 6 60.5 10t77.5 4t80.5 -7.5t64 -26t38 -49.5t2.5 -79q-11 -57 -56 -98t-109 -58l-1 -1q29 -6 55.5 -18t45 -32.5t26.5 -50t0 -69.5q-11 -55 -40.5 -92.5t-71.5 -60.5t-93 -33t-105 -10q-34 0 -59 2.5t-44 4.5zM159 375h68q86 0 144.5 36.5t71.5 102.5
q7 35 -0.5 59t-26 39t-48 22t-66.5 7q-32 0 -55.5 -2.5t-36.5 -5.5zM94 37q13 -3 30 -4t39 -1q42 0 81.5 8.5t72 27t55.5 48.5t31 74q9 43 -3.5 71.5t-40 46t-67 24.5t-84.5 7h-56z" />
    <glyph glyph-name="Gamma" unicode="&#x393;" horiz-adv-x="400" 
d="M487 674l-8 -40h-269l-123 -634h-47l131 674h316z" />
    <glyph glyph-name="uni0394" unicode="&#x394;" horiz-adv-x="589" 
d="M415 674q13 -76 26 -152.5t26.5 -156t28 -164t30.5 -177.5l-4 -24h-533l4 25q91 163 182.5 325t183.5 324h56zM475 40l-74 432q-6 38 -12 78.5t-12 78.5q-21 -38 -45 -80.5t-43 -76.5l-242 -432h428z" />
    <glyph glyph-name="Epsilon" unicode="&#x395;" horiz-adv-x="450" 
d="M410 335h-258l-58 -295h288l-7 -40h-335l131 674h320l-8 -40h-273l-51 -259h258z" />
    <glyph glyph-name="Zeta" unicode="&#x396;" horiz-adv-x="512" 
d="M566 674l-6 -29l-497 -603q-1 -1 -1 -2h385l-7 -40h-447l5 28l498 604q1 1 1 2h-349l8 40h410z" />
    <glyph glyph-name="Eta" unicode="&#x397;" horiz-adv-x="613" 
d="M218 674l-59 -299h359l59 299h47l-131 -674h-47l65 335h-359l-65 -335h-47l131 674h47z" />
    <glyph glyph-name="Theta" unicode="&#x398;" horiz-adv-x="639" 
d="M486 372l-8 -40h-269l8 40h269zM417 685q63 0 109 -24.5t74 -69.5t35.5 -108t-7.5 -139q-17 -87 -52.5 -153.5t-83.5 -111.5t-105 -67.5t-115 -22.5q-60 0 -106.5 24.5t-74.5 69.5t-36.5 108t6.5 140q16 81 50.5 146.5t82 111.5t105 71t118.5 25zM407 645q-55 0 -103 -24
t-87 -66.5t-66 -99.5t-40 -123q-12 -63 -7 -118.5t27 -96.5t60.5 -64.5t91.5 -23.5q52 0 100 22.5t86.5 64t66.5 99t42 127.5q12 61 7.5 116t-25.5 96.5t-59.5 66t-93.5 24.5z" />
    <glyph glyph-name="Iota" unicode="&#x399;" horiz-adv-x="207" 
d="M218 674l-131 -674h-47l131 674h47z" />
    <glyph glyph-name="Kappa" unicode="&#x39a;" horiz-adv-x="503" 
d="M218 674l-69 -354h1q24 25 47.5 48t46.5 46l270 260h57l-295 -283l187 -391h-56l-172 359l-97 -92l-51 -267h-47l131 674h47z" />
    <glyph glyph-name="Lambda" unicode="&#x39b;" horiz-adv-x="572" 
d="M407 674l98 -674h-51q-24 158 -46 314.5t-40 314.5h-1q-81 -158 -162.5 -314t-165.5 -315h-50l360 674h58z" />
    <glyph glyph-name="Mu" unicode="&#x39c;" horiz-adv-x="762" 
d="M263 674l53 -341q11 -71 18.5 -136.5t14.5 -130.5h1q33 63 69 128.5t76 137.5l192 342h63l-89 -674h-47l42 315q11 77 22 157.5t23 151.5h-3q-36 -68 -74 -138.5t-80 -145.5l-190 -337h-38l-49 330q-11 77 -20.5 148.5t-17.5 142.5h-2q-19 -75 -39.5 -159.5t-43.5 -169.5
l-76 -295h-46l178 674h63z" />
    <glyph glyph-name="Nu" unicode="&#x39d;" horiz-adv-x="621" 
d="M221 673l153 -357q28 -66 52 -128t45 -122h2q12 75 25 146.5t28 152.5l60 308h45l-131 -674h-48l-149 354q-27 65 -53 129t-49 128l-1 -1q-12 -72 -25.5 -143.5t-29.5 -155.5l-61 -311h-45l131 674h51z" />
    <glyph glyph-name="Xi" unicode="&#x39e;" horiz-adv-x="489" 
d="M535 674l-8 -40h-398l8 40h398zM442 369l-7 -39l-334 -1l8 40h333zM421 40l-7 -40h-419l7 40h419z" />
    <glyph glyph-name="Omicron" unicode="&#x39f;" horiz-adv-x="639" 
d="M417 685q63 0 109 -24.5t74 -69.5t35.5 -108t-7.5 -139q-17 -87 -52.5 -153.5t-83.5 -111.5t-105 -67.5t-115 -22.5q-60 0 -106.5 24.5t-74.5 69.5t-36.5 108t6.5 140q16 81 50.5 146.5t82 111.5t105 71t118.5 25zM407 645q-55 0 -103 -24t-87 -66.5t-66 -99.5t-40 -123
q-12 -63 -7 -118.5t27 -96.5t60.5 -64.5t91.5 -23.5q52 0 100 22.5t86.5 64t66.5 99t42 127.5q12 61 7.5 116t-25.5 96.5t-59.5 66t-93.5 24.5z" />
    <glyph glyph-name="Pi" unicode="&#x3a0;" horiz-adv-x="600" 
d="M611 674l-131 -674h-47l123 634h-346l-123 -634h-47l131 674h440z" />
    <glyph glyph-name="Rho" unicode="&#x3a1;" horiz-adv-x="493" 
d="M169 666q27 5 62 9t83 4q49 0 88.5 -10.5t65 -33t36 -58.5t0.5 -88q-10 -50 -35 -88.5t-62 -65.5t-84 -41t-101 -14q-22 0 -42.5 1.5t-37.5 5.5l-55 -287h-47zM150 326q17 -5 37 -6.5t43 -1.5q92 0 151 45t74 123q8 41 1 70.5t-26.5 48t-50.5 27.5t-71 9q-35 0 -59.5 -3
t-39.5 -6z" />
    <glyph glyph-name="Sigma" unicode="&#x3a3;" horiz-adv-x="513" 
d="M546 674l-8 -39h-352v-2l158 -296l-286 -296v-1h396l-7 -40h-459l5 29l298 307l-166 306l7 32h414z" />
    <glyph glyph-name="Tau" unicode="&#x3a4;" horiz-adv-x="447" 
d="M534 634h-205l-123 -634h-47l123 634h-203l8 40h455z" />
    <glyph glyph-name="Upsilon" unicode="&#x3a5;" horiz-adv-x="533" 
d="M111 680q48 -10 83.5 -42t58 -79.5t32 -107t5.5 -123.5h2q19 54 50.5 108t72.5 102t92 85t110 57v-39q-54 -21 -107.5 -67t-99 -107.5t-79 -133.5t-47.5 -145l-36 -188h-47l39 204q16 81 11 154t-25.5 131.5t-55 98t-77.5 53.5z" />
    <glyph glyph-name="Phi" unicode="&#x3a6;" horiz-adv-x="675" 
d="M456 700l-12 -59q55 -2 101.5 -20t77.5 -54.5t42 -93.5t-4 -136q-15 -80 -48.5 -136.5t-78.5 -92.5t-99 -53t-109 -19l-12 -62h-46l12 62q-54 2 -100 18.5t-77.5 51.5t-43 91t3.5 137q16 82 51.5 140t81.5 94.5t98.5 53.5t103.5 19l12 59h46zM391 603q-42 -2 -85.5 -17
t-81.5 -46.5t-67.5 -82t-43.5 -122.5q-13 -67 -4.5 -115t33.5 -79.5t63 -47.5t83 -19zM334 74q47 2 91.5 18t81.5 48t64.5 81t40.5 117q13 70 4.5 119.5t-33 81.5t-62.5 47t-84 17z" />
    <glyph glyph-name="Chi" unicode="&#x3a7;" horiz-adv-x="527" 
d="M183 674l63 -164q13 -35 26 -67t24 -64h1q26 33 50 64.5t53 66.5l129 164h55l-267 -328l140 -346h-55l-67 171q-16 40 -29.5 73t-24.5 65h-1q-24 -32 -49.5 -64.5t-56.5 -73.5l-130 -171h-54l271 344l-132 330h54z" />
    <glyph glyph-name="Psi" unicode="&#x3a8;" horiz-adv-x="635" 
d="M185 674l-42 -211q-10 -53 -2 -91t30 -62.5t56 -37t76 -13.5l81 415h47l-81 -415q43 1 82.5 15.5t71.5 42t55.5 69t34.5 97.5l38 191h48l-38 -195q-12 -61 -39.5 -108t-66.5 -79.5t-88.5 -50.5t-105.5 -20l-42 -221h-47l42 221q-48 1 -89.5 15t-70.5 42t-41 72t0 106
l43 218h48z" />
    <glyph glyph-name="uni03A9" unicode="&#x3a9;" horiz-adv-x="681" 
d="M163 39v2q-22 22 -41 54t-31 71t-15 85.5t7 97.5q15 76 49.5 138t82 106t105 68t118.5 24q63 0 110 -24.5t75 -68.5t36.5 -104t-5.5 -131q-11 -54 -32 -102t-48.5 -88t-59.5 -72t-64 -54v-2h155l-7 -39h-213l6 32q34 22 67.5 54.5t62 73t50 88.5t31.5 101
q11 58 6.5 111.5t-26 95t-60 66t-94.5 24.5q-54 0 -102.5 -23.5t-87.5 -64.5t-66 -96t-39 -117q-10 -50 -6.5 -97.5t16.5 -88.5t33.5 -73.5t45.5 -53.5l-6 -32h-213l7 39h153z" />
    <glyph glyph-name="Iotadieresis" unicode="&#x3aa;" horiz-adv-x="207" 
d="M218 674l-131 -674h-47l131 674h47zM90 766q3 16 16.5 27.5t29.5 11.5t25 -11.5t6 -27.5t-16.5 -27t-29.5 -11t-25 11t-6 27zM258 766q3 16 16.5 27.5t29.5 11.5t25 -11.5t6 -27.5t-16.5 -27t-29.5 -11t-25 11t-6 27z" />
    <glyph glyph-name="Upsilondieresis" unicode="&#x3ab;" horiz-adv-x="533" 
d="M111 680q48 -10 83.5 -42t58 -79.5t32 -107t5.5 -123.5h2q19 54 50.5 108t72.5 102t92 85t110 57v-39q-54 -21 -107.5 -67t-99 -107.5t-79 -133.5t-47.5 -145l-36 -188h-47l39 204q16 81 11 154t-25.5 131.5t-55 98t-77.5 53.5zM260 766q3 16 16.5 27.5t29.5 11.5
t25 -11.5t6 -27.5t-16.5 -27t-29.5 -11t-25 11t-6 27zM428 766q3 16 16.5 27.5t29.5 11.5t25 -11.5t6 -27.5t-16.5 -27t-29.5 -11t-25 11t-6 27z" />
    <glyph glyph-name="alphatonos" unicode="&#x3ac;" horiz-adv-x="522" 
d="M503 482q-5 -15 -14 -50.5t-20 -81t-22.5 -97t-20.5 -99.5q-14 -72 -9.5 -100.5t30.5 -28.5l-11 -34q-11 -3 -21 -3q-12 0 -22 6t-15 20.5t-5 40t8 64.5h-2q-15 -26 -35.5 -50t-44.5 -42t-52.5 -28t-59.5 -10q-45 0 -76.5 20t-49.5 53t-22 76.5t5 91.5q10 52 33.5 99.5
t57 83.5t76 57.5t90.5 21.5q59 0 90.5 -37t37.5 -91h1q8 29 16 59t17 59h40zM295 454q-35 0 -67 -16.5t-59 -46.5t-47 -71t-29 -89q-8 -39 -5 -76t17 -65.5t39 -45.5t61 -17q39 0 71.5 20t57.5 51.5t42 71.5t25 79q7 35 5.5 71.5t-13.5 66t-36 48.5t-62 19zM433 684
l-107 -142h-34l86 142h55z" />
    <glyph glyph-name="epsilontonos" unicode="&#x3ad;" horiz-adv-x="403" 
d="M313 241h-52q-78 0 -126.5 -29t-57.5 -78q-6 -28 2.5 -48.5t25.5 -33.5t41.5 -19t51.5 -6q20 0 40.5 3.5t40 8.5t36 12t28.5 14l4 -33q-27 -19 -72.5 -31t-92.5 -12q-33 0 -64 7.5t-54 24t-34.5 43.5t-3.5 66q10 50 51.5 85t99.5 43v3q-48 11 -67.5 41t-12.5 66
q5 25 20.5 47.5t40 39.5t59 27.5t76.5 10.5q79 0 121 -34l-19 -33q-14 13 -43 21.5t-64 8.5q-60 0 -97.5 -25t-45.5 -65q-8 -41 25 -65.5t99 -24.5h51zM406 684l-107 -142h-34l86 142h55z" />
    <glyph glyph-name="etatonos" unicode="&#x3ae;" horiz-adv-x="519" 
d="M161 483q2 -16 2 -39t-5 -47h2q13 17 31.5 34.5t41.5 31t50 22t56 8.5q22 0 48.5 -7t47 -29t29.5 -63t-4 -109l-59 -303q-4 -21 -9 -46t-8.5 -50t-6 -47t-1.5 -37h-45q-2 13 0 34t5 45t7.5 49.5t8.5 48.5l59 300q10 50 6.5 83.5t-17 54t-35 29t-47.5 8.5t-54 -11.5
t-52.5 -32.5t-43 -50.5t-25.5 -64.5l-57 -295h-48l69 357q7 35 10.5 68.5t-0.5 57.5h44zM451 684l-107 -142h-34l86 142h55z" />
    <glyph glyph-name="iotatonos" unicode="&#x3af;" horiz-adv-x="199" 
d="M101 107q-5 -25 -6 -40.5t2 -24.5t10.5 -12t19.5 -2l-11 -35q-11 -4 -26 -4q-13 0 -23 4.5t-15.5 17.5t-5 35t7.5 57l73 380h47zM279 684l-107 -142h-34l86 142h55z" />
    <glyph glyph-name="upsilondieresistonos" unicode="&#x3b0;" horiz-adv-x="485" 
d="M157 483q5 -15 1 -51t-17 -101l-23 -119q-9 -48 -6.5 -83t15 -57.5t34 -33t48.5 -10.5q36 0 66.5 17.5t55 50t43 79t29.5 104.5q13 68 13 121.5t-8 82.5h45q12 -42 10 -92.5t-13 -110.5q-11 -57 -31.5 -109.5t-51.5 -93t-73.5 -64.5t-96.5 -24q-84 0 -116 57t-9 175
l22 111q12 61 17 96.5t2 54.5h44zM177 605q3 14 15 24.5t26 10.5q15 0 23 -10t5 -25q-3 -14 -15.5 -24t-26.5 -10t-22 10t-5 24zM374 693l-75 -153h-30l56 153h49zM384 605q3 14 15 24.5t26 10.5q15 0 23 -10t5 -25q-3 -14 -15.5 -24t-26.5 -10t-22 10t-5 24z" />
    <glyph glyph-name="alpha" unicode="&#x3b1;" horiz-adv-x="522" 
d="M503 482q-5 -15 -14 -50.5t-20 -81t-22.5 -97t-20.5 -99.5q-14 -72 -9.5 -100.5t30.5 -28.5l-11 -34q-11 -3 -21 -3q-12 0 -22 6t-15 20.5t-5 40t8 64.5h-2q-15 -26 -35.5 -50t-44.5 -42t-52.5 -28t-59.5 -10q-45 0 -76.5 20t-49.5 53t-22 76.5t5 91.5q10 52 33.5 99.5
t57 83.5t76 57.5t90.5 21.5q59 0 90.5 -37t37.5 -91h1q8 29 16 59t17 59h40zM295 454q-35 0 -67 -16.5t-59 -46.5t-47 -71t-29 -89q-8 -39 -5 -76t17 -65.5t39 -45.5t61 -17q39 0 71.5 20t57.5 51.5t42 71.5t25 79q7 35 5.5 71.5t-13.5 66t-36 48.5t-62 19z" />
    <glyph glyph-name="beta" unicode="&#x3b2;" horiz-adv-x="524" 
d="M121 438q12 65 33.5 117t52 89t70 56.5t88.5 19.5q34 0 61 -12.5t44.5 -34t24.5 -51.5t0 -66q-6 -32 -21 -59.5t-34.5 -48.5t-41.5 -35.5t-43 -21.5l-1 -4q30 -5 56.5 -20t45 -39.5t26 -59t-1.5 -78.5q-9 -49 -33 -86.5t-56 -63t-68.5 -38.5t-72.5 -13q-56 0 -94 16
t-62 45h-2q-5 -24 -11.5 -59t-12 -70.5t-9.5 -67.5t-2 -51h-46q-4 24 2 69.5t17 98.5zM102 100q18 -29 55 -51t94 -22q30 0 59.5 11t54 32t42 51t24.5 68q9 46 -1.5 79.5t-35.5 54.5t-62 31t-81 10l7 35q72 0 123.5 41t64.5 109q11 58 -14.5 95.5t-77.5 37.5
q-72 0 -117.5 -62.5t-68.5 -177.5z" />
    <glyph glyph-name="gamma" unicode="&#x3b3;" horiz-adv-x="421" 
d="M98 -198q13 57 22.5 112.5t12.5 113.5q3 63 -4 127t-20 123.5t-30 111.5t-34 93h55q16 -35 30.5 -83t26 -102.5t17.5 -112.5t5 -115h3q31 40 64.5 87.5t63.5 98t52 100.5t31 95q2 9 3.5 17t1.5 15h47q1 -6 -0.5 -14.5t-3.5 -17.5q-9 -46 -33 -99t-58 -107.5t-75 -109.5
t-83 -106q-6 -7 -7.5 -12.5t-3.5 -12.5q-5 -48 -15 -99t-21 -103h-47z" />
    <glyph glyph-name="delta" unicode="&#x3b4;" horiz-adv-x="506" 
d="M495 642q-14 14 -45 27t-72 13q-50 0 -78.5 -20.5t-33.5 -44.5q-3 -15 1.5 -29t18 -31t36.5 -39t58 -54q25 -23 45 -48.5t32.5 -54t16 -61t-3.5 -70.5q-11 -54 -36 -98.5t-60.5 -76t-77.5 -49t-86 -17.5q-42 0 -77 15.5t-58.5 46.5t-32.5 76.5t3 104.5q9 46 32 85t55 71
t71 57t80 43q1 1 1 3q-15 14 -28.5 28t-23 29t-14 31.5t-0.5 35.5q3 18 15.5 36.5t33.5 34t50.5 25t67.5 9.5q46 0 80 -14.5t51 -31.5zM308 465q-37 -17 -72 -39.5t-63.5 -51t-49.5 -64t-29 -78.5q-10 -51 -3.5 -89t25 -64t46 -39t59.5 -13q33 0 65 14t59 39.5t47 62.5
t29 84q7 37 2.5 68.5t-19.5 60t-39.5 55t-56.5 54.5z" />
    <glyph glyph-name="epsilon" unicode="&#x3b5;" horiz-adv-x="403" 
d="M313 241h-52q-78 0 -126.5 -29t-57.5 -78q-6 -28 2.5 -48.5t25.5 -33.5t41.5 -19t51.5 -6q20 0 40.5 3.5t40 8.5t36 12t28.5 14l4 -33q-27 -19 -72.5 -31t-92.5 -12q-33 0 -64 7.5t-54 24t-34.5 43.5t-3.5 66q10 50 51.5 85t99.5 43v3q-48 11 -67.5 41t-12.5 66
q5 25 20.5 47.5t40 39.5t59 27.5t76.5 10.5q79 0 121 -34l-19 -33q-14 13 -43 21.5t-64 8.5q-60 0 -97.5 -25t-45.5 -65q-8 -41 25 -65.5t99 -24.5h51z" />
    <glyph glyph-name="zeta" unicode="&#x3b6;" horiz-adv-x="375" 
d="M464 675q-66 -35 -127 -84t-110.5 -105.5t-84 -117.5t-45.5 -120q-12 -64 0 -104t42.5 -64.5t76 -37t99.5 -20.5q11 -2 9 -11q-4 -19 -12.5 -39.5t-20 -40t-23.5 -36.5t-23 -28l-30 10q7 9 16 23t17.5 29.5t14.5 31t9 28.5q-54 8 -101 22.5t-79 43t-45.5 73.5t-0.5 113
q11 57 42 116.5t77 116.5t104.5 107.5t124.5 88.5v3h-99q-29 0 -55.5 1t-44.5 6l11 32q20 -3 48.5 -3.5t55.5 -0.5h152z" />
    <glyph glyph-name="eta" unicode="&#x3b7;" horiz-adv-x="519" 
d="M161 483q2 -16 2 -39t-5 -47h2q13 17 31.5 34.5t41.5 31t50 22t56 8.5q22 0 48.5 -7t47 -29t29.5 -63t-4 -109l-59 -303q-4 -21 -9 -46t-8.5 -50t-6 -47t-1.5 -37h-45q-2 13 0 34t5 45t7.5 49.5t8.5 48.5l59 300q10 50 6.5 83.5t-17 54t-35 29t-47.5 8.5t-54 -11.5
t-52.5 -32.5t-43 -50.5t-25.5 -64.5l-57 -295h-48l69 357q7 35 10.5 68.5t-0.5 57.5h44z" />
    <glyph glyph-name="theta" unicode="&#x3b8;" horiz-adv-x="494" 
d="M351 720q51 0 84 -25.5t49.5 -72.5t16 -113.5t-16.5 -148.5q-17 -86 -43 -155t-61 -117t-79 -73.5t-95 -25.5q-95 0 -134.5 91.5t-3.5 279.5q15 78 42.5 144t64 114t81 75t95.5 27zM441 386q12 65 12.5 119.5t-11.5 93.5t-37 61t-65 22q-38 0 -72 -23t-62 -63t-49.5 -94
t-33.5 -116h318zM115 348q-31 -160 -2 -240.5t102 -80.5q39 0 73 22.5t61.5 64.5t49 101t35.5 132h-319v1z" />
    <glyph glyph-name="iota" unicode="&#x3b9;" horiz-adv-x="199" 
d="M101 107q-5 -25 -6 -40.5t2 -24.5t10.5 -12t19.5 -2l-11 -35q-11 -4 -26 -4q-13 0 -23 4.5t-15.5 17.5t-5 35t7.5 57l73 380h47z" />
    <glyph glyph-name="kappa" unicode="&#x3ba;" horiz-adv-x="452" 
d="M38 0l73 380q3 15 5.5 30.5t4 29.5t1.5 25.5t-2 17.5h45q4 -11 2.5 -36.5t-6.5 -54.5l-26 -131h15q78 60 145 116t130 106h59v-2q-66 -52 -137 -107.5t-147 -115.5l-1 -1q30 -6 56.5 -32t51 -63t48 -79.5t47.5 -82.5h-58q-28 49 -51.5 91t-47 73t-49 49t-55.5 18h-12
l-44 -231h-47z" />
    <glyph glyph-name="lambda" unicode="&#x3bb;" horiz-adv-x="434" 
d="M141 716q5 2 13 3t16 1q30 0 49 -15.5t31.5 -45t21.5 -73t19 -99.5l85 -487h-52l-47 286l-10 66t-10 68q-8 -13 -17.5 -30t-20 -35t-20.5 -36t-17 -31l-162 -288h-50l260 449q8 13 10.5 22.5t0.5 22.5q-8 43 -14.5 78t-16 59t-24 37t-36.5 13q-4 0 -10 -0.5t-11 -1.5
l12 37v0z" />
    <glyph glyph-name="uni03BC" unicode="&#x3bc;" horiz-adv-x="512" 
d="M174 483l-63 -325q-5 -26 -0.5 -49.5t17 -41t33.5 -28t49 -10.5q30 0 58 12t51 30t38 39.5t19 41.5l64 331h47l-70 -360q-11 -55 -6.5 -75t29.5 -21l-12 -35q-5 -2 -9 -2.5t-10 -0.5q-12 0 -22 4t-15.5 14t-7 27.5t2.5 44.5h-2q-12 -15 -28.5 -30.5t-37.5 -28.5t-46 -21
t-53 -8q-41 0 -71.5 18.5t-39.5 50.5l-15 -79q-5 -24 -9.5 -50t-7.5 -50t-4.5 -44.5t-0.5 -33.5l-43 -2q-3 23 3 71t17 106l98 505h47z" />
    <glyph glyph-name="nu" unicode="&#x3bd;" horiz-adv-x="435" 
d="M115 483l42 -279q3 -15 6 -35t6 -41t6 -41.5t6 -35.5q30 40 65.5 89.5t67.5 101t56.5 103.5t33.5 97q2 11 4 21.5t3 19.5h47q0 -17 -3 -35q-10 -50 -37 -105.5t-64 -113t-80.5 -116t-86.5 -113.5h-46l-78 483h52z" />
    <glyph glyph-name="xi" unicode="&#x3be;" horiz-adv-x="392" 
d="M449 661q-11 9 -32.5 15.5t-50.5 6.5q-35 0 -64 -11t-50 -29t-34.5 -41.5t-18.5 -48.5q-7 -35 2.5 -59t32 -40t56 -23t75.5 -7l-7 -35h-28q-50 0 -91 -14.5t-72 -39t-50.5 -56.5t-26.5 -66q-11 -58 7.5 -94.5t55.5 -57.5t86 -30t98 -13q9 -1 6 -13q-3 -18 -11.5 -38.5
t-19.5 -40t-23.5 -36.5t-24.5 -27l-31 10q9 8 18.5 22t17.5 29.5t14.5 31.5t8.5 28q-49 4 -99 15t-88.5 35.5t-58 66.5t-6.5 108q7 36 25.5 68t44.5 58t59.5 44.5t70.5 27.5v3q-58 19 -78 57t-11 88q6 31 24 61t46 53t66 37t84 14q34 0 57.5 -6.5t38.5 -17.5z" />
    <glyph glyph-name="omicron" unicode="&#x3bf;" horiz-adv-x="509" 
d="M313 493q46 0 81.5 -18t57.5 -50t28.5 -78t-4.5 -101q-13 -68 -42 -116.5t-66.5 -79.5t-79.5 -46t-81 -15q-44 0 -79 17t-57 49.5t-29 78.5t4 104q12 61 38 108.5t62 80t79 49.5t88 17zM304 455q-39 0 -73 -16.5t-61.5 -45.5t-46.5 -68.5t-28 -85.5q-9 -47 -4.5 -86
t21 -67t43.5 -43.5t63 -15.5q33 0 66 14.5t61.5 42t50 68t31.5 92.5q8 41 4.5 79t-18.5 67.5t-42 47t-67 17.5z" />
    <glyph glyph-name="pi" unicode="&#x3c0;" horiz-adv-x="516" 
d="M455 444l-58 -298q-13 -64 -15.5 -97.5t1.5 -48.5h-45q-5 11 -3 45t14 97l59 302h-190q-12 -52 -30 -115t-39.5 -124.5t-44 -116t-41.5 -88.5h-45q21 37 43 91.5t43 115.5t38.5 123t29.5 114q-36 -1 -62 -5t-43 -10l-1 30q17 11 48 17.5t87 6.5h336l-13 -39h-69z" />
    <glyph glyph-name="rho" unicode="&#x3c1;" horiz-adv-x="524" 
d="M4 -198q-2 23 5 70t18 104l46 236q15 75 42.5 128.5t63.5 87.5t77 49.5t83 15.5q46 0 79.5 -17.5t53.5 -49.5t25 -77t-5 -100q-13 -65 -40 -113.5t-62 -81t-76 -49t-81 -16.5q-48 0 -86 21.5t-53 63.5h-1l-19 -95q-5 -24 -9.5 -49.5t-8.5 -49.5t-6 -44.5t-1 -33.5h-45z
M112 173q-6 -31 1.5 -58t25 -46.5t42 -30.5t53.5 -11q36 0 69.5 15.5t61 44t48 69.5t30.5 92q9 44 5.5 82t-18 65.5t-40 43.5t-62.5 16q-30 0 -61.5 -13t-59.5 -41t-50.5 -72t-34.5 -105z" />
    </font>
</defs>
</svg>
